<?xml version="1.0" encoding="UTF-8" standalone="no"?>
<!-- Created with Inkscape (http://www.inkscape.org/) -->

<svg
   xmlns:dc="http://purl.org/dc/elements/1.1/"
   xmlns:cc="http://creativecommons.org/ns#"
   xmlns:rdf="http://www.w3.org/1999/02/22-rdf-syntax-ns#"
   xmlns:svg="http://www.w3.org/2000/svg"
   xmlns="http://www.w3.org/2000/svg"
   xmlns:sodipodi="http://sodipodi.sourceforge.net/DTD/sodipodi-0.dtd"
   xmlns:inkscape="http://www.inkscape.org/namespaces/inkscape"
   width="210mm"
   height="297mm"
   viewBox="0 0 744.09448819 1052.3622047"
   id="svg2"
   version="1.1"
   inkscape:version="0.91 r13725"
   sodipodi:docname="poster.svg">
  <defs
     id="defs4" />
  <sodipodi:namedview
     id="base"
     pagecolor="#ffffff"
     bordercolor="#666666"
     borderopacity="1.0"
     inkscape:pageopacity="0.0"
     inkscape:pageshadow="2"
     inkscape:zoom="0.5"
     inkscape:cx="345.77926"
     inkscape:cy="532.39434"
     inkscape:document-units="px"
     inkscape:current-layer="g3344"
     showgrid="false"
     inkscape:window-width="1870"
     inkscape:window-height="1179"
     inkscape:window-x="50"
     inkscape:window-y="21"
     inkscape:window-maximized="1" />
  <metadata
     id="metadata7">
    <rdf:RDF>
      <cc:Work
         rdf:about="">
        <dc:format>image/svg+xml</dc:format>
        <dc:type
           rdf:resource="http://purl.org/dc/dcmitype/StillImage" />
        <dc:title />
      </cc:Work>
    </rdf:RDF>
  </metadata>
  <g
     inkscape:label="Vrstva 1"
     inkscape:groupmode="layer"
     id="layer1">
    <g
       transform="matrix(1.25,0,0,-1.25,0.79285429,1057.7556)"
       inkscape:label="poster (1)"
       id="g3344">
      <g
         id="g3346"
         transform="matrix(1.001624,0,0,1.0023962,-4.2640983,-0.00248246)">
        <path
           inkscape:connector-curvature="0"
           id="path3348"
           style="fill:#8b0000;fill-opacity:1;fill-rule:nonzero;stroke:none"
           d="m 4.285,844.165 593.012,0 c 0.363,0 0.656,-0.438 0.656,-0.985 l 0,-526.91 c 0,-0.543 -0.293,-0.98 -0.656,-0.98 l -593.012,0 c -0.363,0 -0.656,0.437 -0.656,0.98 l 0,526.91 c 0,0.547 0.293,0.985 0.656,0.985 z" />
        <text
           id="text3350"
           style="font-variant:normal;font-weight:normal;font-size:84.64131165px;font-family:Xenippa;-inkscape-font-specification:Xenippa;writing-mode:lr-tb;fill:#ffffff;fill-opacity:1;fill-rule:nonzero;stroke:none"
           transform="matrix(1,0,0,-1,31.286609,727.6999)">
          <tspan
             id="tspan3352"
             sodipodi:role="line"
             y="0"
             x="0 75.584686 112.4883 146.17554">Rytí</tspan>
        </text>
        <text
           id="text3354"
           style="font-variant:normal;font-weight:normal;font-size:84.64131165px;font-family:Xenippa;-inkscape-font-specification:Xenippa;writing-mode:lr-tb;fill:#ffffff;fill-opacity:1;fill-rule:nonzero;stroke:none"
           transform="matrix(1,0,0,-1,202.43134,727.6999)">
          <tspan
             id="tspan3356"
             y="0"
             x="0">ř</tspan>
        </text>
        <text
           id="text3358"
           style="font-variant:normal;font-weight:normal;font-size:84.64131165px;font-family:Xenippa;-inkscape-font-specification:Xenippa;writing-mode:lr-tb;fill:#ffffff;fill-opacity:1;fill-rule:nonzero;stroke:none"
           transform="matrix(1,0,0,-1,242.21275,727.6999)">
          <tspan
             id="tspan3360"
             sodipodi:role="line"
             y="0"
             x="0 27.000578 68.051613 107.74838 136.52643 170.21367 211.26471 252.73895 289.64255">ský tábor</tspan>
        </text>
        <text
           id="text3362"
           style="font-variant:normal;font-weight:normal;font-size:42.61559677px;font-family:Xenippa;-inkscape-font-specification:Xenippa;writing-mode:lr-tb;fill:#ffffff;fill-opacity:1;fill-rule:nonzero;stroke:none"
           transform="matrix(1,0,0,-1,86.496367,605.32659)">
          <tspan
             id="tspan3364"
             sodipodi:role="line"
             y="0"
             x="0 23.779503 40.101276 58.681679 73.170982 88.768288 109.09593 122.77554 143.48671 167.26622 182.86353">pro chlapce</tspan>
          <tspan
             id="tspan3366"
             sodipodi:role="line"
             y="59.661835"
             x="14.607476 35.318657 49.807961">a d</tspan>
        </text>
        <text
           id="text3368"
           style="font-variant:normal;font-weight:normal;font-size:42.61559677px;font-family:Xenippa;-inkscape-font-specification:Xenippa;writing-mode:lr-tb;fill:#ffffff;fill-opacity:1;fill-rule:nonzero;stroke:none"
           transform="matrix(1,0,0,-1,156.29104,545.66476)">
          <tspan
             id="tspan3370"
             y="0"
             x="0">ě</tspan>
        </text>
        <text
           id="text3372"
           style="font-variant:normal;font-weight:normal;font-size:42.61559677px;font-family:Xenippa;-inkscape-font-specification:Xenippa;writing-mode:lr-tb;fill:#ffffff;fill-opacity:1;fill-rule:nonzero;stroke:none"
           transform="matrix(1,0,0,-1,173.29466,545.66476)">
          <tspan
             id="tspan3374"
             y="0"
             x="0">v</tspan>
        </text>
        <text
           id="text3376"
           style="font-variant:normal;font-weight:normal;font-size:42.61559677px;font-family:Xenippa;-inkscape-font-specification:Xenippa;writing-mode:lr-tb;fill:#ffffff;fill-opacity:1;fill-rule:nonzero;stroke:none"
           transform="matrix(1,0,0,-1,197.50032,545.66476)">
          <tspan
             id="tspan3378"
             y="0"
             x="0">č</tspan>
        </text>
        <text
           id="text3380"
           style="font-variant:normal;font-weight:normal;font-size:42.61559677px;font-family:Xenippa;-inkscape-font-specification:Xenippa;writing-mode:lr-tb;fill:#ffffff;fill-opacity:1;fill-rule:nonzero;stroke:none"
           transform="matrix(1,0,0,-1,213.22548,545.66476)">
          <tspan
             id="tspan3382"
             sodipodi:role="line"
             y="0"
             x="0 20.71118 37.672188">ata</tspan>
          <tspan
             id="tspan3384"
             sodipodi:role="line"
             y="59.661835"
             x="-150.20102 -131.62062 -111.6339 -97.1446 -74.132172 -59.642872 -39.656158 -21.075756 -6.7143002 10.374554 34.409752 48.899055 62.578659 79.582283">od 9 do 17 let</tspan>
        </text>
        <text
           id="text3386"
           style="font-variant:normal;font-weight:normal;font-size:64.51312256px;font-family:Xenippa;-inkscape-font-specification:Xenippa;writing-mode:lr-tb;fill:#ffffff;fill-opacity:1;fill-rule:nonzero;stroke:none"
           transform="matrix(1,0,0,-1,64.832583,359.77125)">
          <tspan
             id="tspan3388"
             sodipodi:role="line"
             y="0"
             x="0 32.643639 58.384377 80.31884 113.73663 135.6711 161.54086 195.92636 221.66708">8. - 15.</tspan>
        </text>
        <text
           id="text3390"
           style="font-variant:normal;font-weight:normal;font-size:64.51312256px;font-family:Xenippa;-inkscape-font-specification:Xenippa;writing-mode:lr-tb;fill:#ffffff;fill-opacity:1;fill-rule:nonzero;stroke:none"
           transform="matrix(1,0,0,-1,308.43414,359.77125)">
          <tspan
             id="tspan3392"
             y="0"
             x="0">č</tspan>
        </text>
        <text
           id="text3394"
           style="font-variant:normal;font-weight:normal;font-size:64.51312256px;font-family:Xenippa;-inkscape-font-specification:Xenippa;writing-mode:lr-tb;fill:#ffffff;fill-opacity:1;fill-rule:nonzero;stroke:none"
           transform="matrix(1,0,0,-1,332.23948,359.77125)">
          <tspan
             id="tspan3396"
             sodipodi:role="line"
             y="0"
             x="0 25.547197 54.771641 91.415092 117.15583 152.4445 176.05632">ervence</tspan>
        </text>
        <path
           inkscape:connector-curvature="0"
           id="path3398"
           style="fill:#8b0000;fill-opacity:1;fill-rule:nonzero;stroke:none"
           d="m 3.82,86.883 594.524,0 c 0.363,0 0.656,-0.07 0.656,-0.16 l 0,-85.527 c 0,-0.09 -0.293,-0.16 -0.656,-0.16 l -594.524,0 c -0.363,0 -0.66,0.07 -0.66,0.16 l 0,85.527 c 0,0.09 0.297,0.16 0.66,0.16 z" />
        <text
           id="text3400"
           style="font-variant:normal;font-weight:normal;font-size:38.4074173px;font-family:Xenippa;-inkscape-font-specification:Xenippa;writing-mode:lr-tb;fill:#ffffff;fill-opacity:1;fill-rule:nonzero;stroke:none"
           transform="matrix(1,0,0,-1,168.69536,35.341328)">
          <tspan
             id="tspan3402"
             sodipodi:role="line"
             y="0"
             x="0 17.398561 34.144196 49.430347 60.222832 76.392357 88.644325 107.27192 124.01756 139.30371 157.96971 176.78935 193.53499 210.93355 226.2581 240.31522">rytirskytabor.cz</tspan>
        </text>
        <text
           id="text3410"
           style="font-variant:normal;font-weight:normal;font-size:52.49378586px;font-family:Xenippa;-inkscape-font-specification:Xenippa;writing-mode:lr-tb;fill:#8b0000;fill-opacity:1;fill-rule:nonzero;stroke:none"
           transform="matrix(1,0,0,-1,139.59794,184.20662)">
          <tspan
             id="tspan3412"
             y="0"
             x="0" />
        </text>
        <text
           id="text3414"
           style="font-variant:normal;font-weight:normal;font-size:52.49378586px;font-family:Xenippa;-inkscape-font-specification:Xenippa;writing-mode:lr-tb;fill:#8b0000;fill-opacity:1;fill-rule:nonzero;stroke:none"
           transform="matrix(1,0,0,-1,164.27001,184.20662)">
          <tspan
             id="tspan3418"
             sodipodi:role="line"
             x="0"
             y="0" />
        </text>
        <text
           id="text3420"
           style="font-variant:normal;font-weight:normal;font-size:52.49378586px;font-family:Xenippa;-inkscape-font-specification:Xenippa;writing-mode:lr-tb;fill:#8b0000;fill-opacity:1;fill-rule:nonzero;stroke:none"
           transform="matrix(1,0,0,-1,309.9419,115.9647)">
          <tspan
             id="tspan3422"
             y="0"
             x="0" />
        </text>
        <text
           id="text3424"
           style="font-variant:normal;font-weight:normal;font-size:52.49378586px;font-family:Xenippa;-inkscape-font-specification:Xenippa;writing-mode:lr-tb;fill:#8b0000;fill-opacity:1;fill-rule:nonzero;stroke:none"
           transform="matrix(1,0,0,-1,329.3121,115.9647)">
          <tspan
             id="tspan3426"
             y="0"
             x="0" />
        </text>
        <text
           id="text3428"
           style="font-variant:normal;font-weight:normal;font-size:52.49378586px;font-family:Xenippa;-inkscape-font-specification:Xenippa;writing-mode:lr-tb;fill:#8b0000;fill-opacity:1;fill-rule:nonzero;stroke:none"
           transform="matrix(1,0,0,-1,366.84516,115.9647)">
          <tspan
             id="tspan3430"
             y="0"
             x="0" />
        </text>
        <path
           inkscape:connector-curvature="0"
           id="path3432"
           style="fill:#ffffff;fill-opacity:1;fill-rule:nonzero;stroke:none"
           d="m 502.027,665.446 c 1.426,2.633 0.442,5.926 -2.195,7.347 -2.633,1.426 -5.926,0.442 -7.348,-2.191 -1.101,-2.043 -0.761,-4.477 0.672,-6.129 l -22.008,-37.715 c -14.277,7.641 -25.632,13.196 -25.925,12.649 -0.293,-0.539 10.25,-6.813 24.164,-14.414 l -32.664,-61.395 -32.664,61.395 c 13.91,7.601 24.457,13.875 24.164,14.414 -0.297,0.547 -11.649,-5.008 -25.926,-12.649 l -22.012,37.715 c 1.438,1.652 1.777,4.086 0.672,6.129 -1.422,2.633 -4.711,3.617 -7.348,2.191 -2.636,-1.421 -3.617,-4.714 -2.195,-7.347 1.164,-2.153 3.57,-3.199 5.848,-2.738 l 19.176,-39.114 c -14.227,-7.761 -25.106,-14.219 -24.809,-14.765 0.289,-0.543 11.316,4.843 25.297,12.312 l 35.75,-65.152 -39.465,-74.18 c 0,0 -6.195,-10.832 -10.574,-25.891 0,0 7.863,8.223 15.863,23.032 l 38.223,69.66 38.222,-69.66 c 8,-14.809 15.864,-23.032 15.864,-23.032 -4.379,15.059 -10.575,25.891 -10.575,25.891 l -39.464,74.18 35.75,65.152 c 13.98,-7.469 25.007,-12.855 25.296,-12.312 0.297,0.546 -10.582,7.004 -24.812,14.765 l 19.18,39.114 c 2.277,-0.461 4.679,0.585 5.843,2.738 z" />
      </g>
      <flowRoot
         xml:space="preserve"
         id="flowRoot3523"
         style="fill:black;stroke:none;stroke-opacity:1;stroke-width:1px;stroke-linejoin:miter;stroke-linecap:butt;fill-opacity:1;font-family:sans-serif;font-style:normal;font-weight:normal;font-size:40px;line-height:125%;letter-spacing:0px;word-spacing:0px"><flowRegion
           id="flowRegion3525"><rect
             id="rect3527"
             width="251.51515"
             height="118.18182"
             x="-110.60606"
             y="828.11975" /></flowRegion><flowPara
           id="flowPara3529" /></flowRoot>      <flowRoot
         xml:space="preserve"
         id="flowRoot4331"
         style="font-style:normal;font-weight:normal;font-size:40px;line-height:125%;font-family:sans-serif;letter-spacing:0px;word-spacing:0px;fill:#000000;fill-opacity:1;stroke:none;stroke-width:1px;stroke-linecap:butt;stroke-linejoin:miter;stroke-opacity:1"
         transform="matrix(0.8,0,0,-0.8,-0.63428343,846.20448)"><flowRegion
           id="flowRegion4333"><rect
             id="rect4335"
             width="169.69698"
             height="42.424244"
             x="554.54547"
             y="859.93799" /></flowRegion><flowPara
           id="flowPara4337">Da</flowPara></flowRoot>      <flowRoot
         xml:space="preserve"
         id="flowRoot4339"
         style="fill:#8b0000;stroke:none;stroke-opacity:1;stroke-width:1px;stroke-linejoin:miter;stroke-linecap:butt;fill-opacity:1;font-family:Xenippa;font-style:normal;font-weight:500;font-size:40px;line-height:125%;letter-spacing:0px;word-spacing:0px;-inkscape-font-specification:'Xenippa Medium';font-stretch:normal;font-variant:normal;"><flowRegion
           id="flowRegion4341"><rect
             id="rect4343"
             width="321.276"
             height="137.1106"
             x="399.93594"
             y="763.73651"
             style="fill:#8b0000;fill-opacity:1;-inkscape-font-specification:'Xenippa Medium';font-family:Xenippa;font-weight:500;font-style:normal;font-stretch:normal;font-variant:normal;" /></flowRegion><flowPara
           id="flowPara4345" /></flowRoot>      <text
         xml:space="preserve"
         style="font-style:normal;font-weight:normal;font-size:32px;line-height:125%;font-family:sans-serif;letter-spacing:0px;word-spacing:0px;fill:#000000;fill-opacity:1;stroke:none;stroke-width:1px;stroke-linecap:butt;stroke-linejoin:miter;stroke-opacity:1"
         x="301.89609"
         y="-231.009"
         id="text4351"
         sodipodi:linespacing="125%"
         transform="scale(1,-1)"><tspan
           sodipodi:role="line"
           x="301.89609"
           y="-231.009"
           style="font-style:normal;font-variant:normal;font-weight:500;font-stretch:normal;font-size:52px;font-family:Xenippa;-inkscape-font-specification:'Xenippa Medium';text-align:center;text-anchor:middle;fill:#8b0000;fill-opacity:1"
           id="tspan4375">Král svolává své věrné!</tspan></text>
      <text
         xml:space="preserve"
         style="font-style:normal;font-weight:normal;font-size:32px;line-height:125%;font-family:sans-serif;letter-spacing:0px;word-spacing:0px;fill:#000000;fill-opacity:1;stroke:none;stroke-width:1px;stroke-linecap:butt;stroke-linejoin:miter;stroke-opacity:1"
         x="301.29764"
         y="-139.75824"
         id="text4379"
         sodipodi:linespacing="125%"
         transform="scale(1,-1)"><tspan
           sodipodi:role="line"
           x="301.29764"
           y="-139.75824"
           id="tspan4385"
           style="font-style:normal;font-variant:normal;font-weight:500;font-stretch:normal;font-size:46px;font-family:Xenippa;-inkscape-font-specification:'Xenippa Medium';text-align:center;text-anchor:middle;fill:#8b0000;fill-opacity:1">Odpovíš na Jeho volání?</tspan></text>
    </g>
    <flowRoot
       xml:space="preserve"
       id="flowRoot3479"
       style="fill:black;stroke:none;stroke-opacity:1;stroke-width:1px;stroke-linejoin:miter;stroke-linecap:butt;fill-opacity:1;font-family:sans-serif;font-style:normal;font-weight:normal;font-size:40px;line-height:125%;letter-spacing:0px;word-spacing:0px"><flowRegion
         id="flowRegion3481"><rect
           id="rect3483"
           width="534.48279"
           height="244.82759"
           x="112.06896"
           y="686.84497" /></flowRegion><flowPara
         id="flowPara3485" /></flowRoot>    <flowRoot
       xml:space="preserve"
       id="flowRoot3503"
       style="fill:black;stroke:none;stroke-opacity:1;stroke-width:1px;stroke-linejoin:miter;stroke-linecap:butt;fill-opacity:1;font-family:sans-serif;font-style:normal;font-weight:normal;font-size:40px;line-height:125%;letter-spacing:0px;word-spacing:0px"><flowRegion
         id="flowRegion3505"><rect
           id="rect3507"
           width="418.18182"
           height="77.272728"
           x="119.69697"
           y="685.69556" /></flowRegion><flowPara
         id="flowPara3509" /></flowRoot>    <text
       xml:space="preserve"
       style="font-style:normal;font-weight:normal;font-size:40px;line-height:125%;font-family:sans-serif;letter-spacing:0px;word-spacing:0px;fill:#000000;fill-opacity:1;stroke:none;stroke-width:1px;stroke-linecap:butt;stroke-linejoin:miter;stroke-opacity:1"
       x="162.12122"
       y="735.69556"
       id="text3511"
       sodipodi:linespacing="125%"><tspan
         sodipodi:role="line"
         id="tspan3513"
         x="162.12122"
         y="735.69556" /></text>
    <flowRoot
       xml:space="preserve"
       id="flowRoot3515"
       style="font-style:normal;font-weight:normal;font-size:40px;line-height:125%;font-family:sans-serif;letter-spacing:0px;word-spacing:0px;fill:#000000;fill-opacity:1;stroke:none;stroke-width:1px;stroke-linecap:butt;stroke-linejoin:miter;stroke-opacity:1"><flowRegion
         id="flowRegion3517"><rect
           id="rect3519"
           width="363.63635"
           height="87.878784"
           x="25.757576"
           y="670.54401" /></flowRegion><flowPara
         id="flowPara3521" /></flowRoot>  </g>
</svg>
