<?xml version="1.0" encoding="UTF-8" standalone="no"?>
<!-- Created with Inkscape (http://www.inkscape.org/) -->

<svg
   xmlns:osb="http://www.openswatchbook.org/uri/2009/osb"
   xmlns:dc="http://purl.org/dc/elements/1.1/"
   xmlns:cc="http://creativecommons.org/ns#"
   xmlns:rdf="http://www.w3.org/1999/02/22-rdf-syntax-ns#"
   xmlns:svg="http://www.w3.org/2000/svg"
   xmlns="http://www.w3.org/2000/svg"
   xmlns:sodipodi="http://sodipodi.sourceforge.net/DTD/sodipodi-0.dtd"
   xmlns:inkscape="http://www.inkscape.org/namespaces/inkscape"
   width="480.09448"
   height="480"
   viewBox="0 0 480.09449 480.00001"
   id="svg2"
   version="1.1"
   inkscape:version="0.91 r13725"
   sodipodi:docname="seal02.svg"
   inkscape:export-filename="/home/thejoeejoee/projects/rytirskytabor.cz/02.png"
   inkscape:export-xdpi="150"
   inkscape:export-ydpi="150">
  <defs
     id="defs4">
    <marker
       inkscape:stockid="Arrow1Lend"
       orient="auto"
       refY="0.0"
       refX="0.0"
       id="Arrow1Lend"
       style="overflow:visible;"
       inkscape:isstock="true">
      <path
         id="path10500"
         d="M 0.0,0.0 L 5.0,-5.0 L -12.5,0.0 L 5.0,5.0 L 0.0,0.0 z "
         style="fill-rule:evenodd;stroke:#000000;stroke-width:1pt;stroke-opacity:1;fill:#000000;fill-opacity:1"
         transform="scale(0.8) rotate(180) translate(12.5,0)" />
    </marker>
    <linearGradient
       id="linearGradient10158"
       osb:paint="solid">
      <stop
         style="stop-color:#ffffff;stop-opacity:1;"
         offset="0"
         id="stop10160" />
    </linearGradient>
    <marker
       inkscape:stockid="Arrow1Lend"
       orient="auto"
       refY="0"
       refX="0"
       id="Arrow1Lend-7"
       style="overflow:visible"
       inkscape:isstock="true">
      <path
         inkscape:connector-curvature="0"
         id="path10500-8"
         d="M 0,0 5,-5 -12.5,0 5,5 0,0 Z"
         style="fill:#000000;fill-opacity:1;fill-rule:evenodd;stroke:#000000;stroke-width:1pt;stroke-opacity:1"
         transform="matrix(-0.8,0,0,-0.8,-10,0)" />
    </marker>
    <marker
       inkscape:stockid="Arrow1Lend"
       orient="auto"
       refY="0"
       refX="0"
       id="Arrow1Lend-5"
       style="overflow:visible"
       inkscape:isstock="true">
      <path
         inkscape:connector-curvature="0"
         id="path10500-0"
         d="M 0,0 5,-5 -12.5,0 5,5 0,0 Z"
         style="fill:#000000;fill-opacity:1;fill-rule:evenodd;stroke:#000000;stroke-width:1pt;stroke-opacity:1"
         transform="matrix(-0.8,0,0,-0.8,-10,0)" />
    </marker>
    <marker
       inkscape:stockid="Arrow1Lend"
       orient="auto"
       refY="0"
       refX="0"
       id="Arrow1Lend-6"
       style="overflow:visible"
       inkscape:isstock="true">
      <path
         inkscape:connector-curvature="0"
         id="path10500-1"
         d="M 0,0 5,-5 -12.5,0 5,5 0,0 Z"
         style="fill:#000000;fill-opacity:1;fill-rule:evenodd;stroke:#000000;stroke-width:1pt;stroke-opacity:1"
         transform="matrix(-0.8,0,0,-0.8,-10,0)" />
    </marker>
    <marker
       inkscape:stockid="Arrow1Lend"
       orient="auto"
       refY="0"
       refX="0"
       id="Arrow1Lend-63"
       style="overflow:visible"
       inkscape:isstock="true">
      <path
         inkscape:connector-curvature="0"
         id="path10500-2"
         d="M 0,0 5,-5 -12.5,0 5,5 0,0 Z"
         style="fill:#000000;fill-opacity:1;fill-rule:evenodd;stroke:#000000;stroke-width:1pt;stroke-opacity:1"
         transform="matrix(-0.8,0,0,-0.8,-10,0)" />
    </marker>
    <marker
       inkscape:stockid="Arrow1Lend"
       orient="auto"
       refY="0"
       refX="0"
       id="Arrow1Lend-1"
       style="overflow:visible"
       inkscape:isstock="true">
      <path
         inkscape:connector-curvature="0"
         id="path10500-5"
         d="M 0,0 5,-5 -12.5,0 5,5 0,0 Z"
         style="fill:#000000;fill-opacity:1;fill-rule:evenodd;stroke:#000000;stroke-width:1pt;stroke-opacity:1"
         transform="matrix(-0.8,0,0,-0.8,-10,0)" />
    </marker>
    <marker
       inkscape:stockid="Arrow1Lend"
       orient="auto"
       refY="0"
       refX="0"
       id="Arrow1Lend-4"
       style="overflow:visible"
       inkscape:isstock="true">
      <path
         inkscape:connector-curvature="0"
         id="path10500-7"
         d="M 0,0 5,-5 -12.5,0 5,5 0,0 Z"
         style="fill:#000000;fill-opacity:1;fill-rule:evenodd;stroke:#000000;stroke-width:1pt;stroke-opacity:1"
         transform="matrix(-0.8,0,0,-0.8,-10,0)" />
    </marker>
    <marker
       inkscape:stockid="Arrow1Lend"
       orient="auto"
       refY="0"
       refX="0"
       id="Arrow1Lend-7-5"
       style="overflow:visible"
       inkscape:isstock="true">
      <path
         inkscape:connector-curvature="0"
         id="path10500-8-6"
         d="M 0,0 5,-5 -12.5,0 5,5 0,0 Z"
         style="fill:#000000;fill-opacity:1;fill-rule:evenodd;stroke:#000000;stroke-width:1pt;stroke-opacity:1"
         transform="matrix(-0.8,0,0,-0.8,-10,0)" />
    </marker>
    <marker
       inkscape:stockid="Arrow1Lend"
       orient="auto"
       refY="0"
       refX="0"
       id="Arrow1Lend-7-3"
       style="overflow:visible"
       inkscape:isstock="true">
      <path
         inkscape:connector-curvature="0"
         id="path10500-8-7"
         d="M 0,0 5,-5 -12.5,0 5,5 0,0 Z"
         style="fill:#000000;fill-opacity:1;fill-rule:evenodd;stroke:#000000;stroke-width:1pt;stroke-opacity:1"
         transform="matrix(-0.8,0,0,-0.8,-10,0)" />
    </marker>
    <marker
       inkscape:stockid="Arrow1Lend"
       orient="auto"
       refY="0"
       refX="0"
       id="Arrow1Lend-7-52"
       style="overflow:visible"
       inkscape:isstock="true">
      <path
         inkscape:connector-curvature="0"
         id="path10500-8-5"
         d="M 0,0 5,-5 -12.5,0 5,5 0,0 Z"
         style="fill:#000000;fill-opacity:1;fill-rule:evenodd;stroke:#000000;stroke-width:1pt;stroke-opacity:1"
         transform="matrix(-0.8,0,0,-0.8,-10,0)" />
    </marker>
    <marker
       inkscape:stockid="Arrow1Lend"
       orient="auto"
       refY="0"
       refX="0"
       id="Arrow1Lend-7-4"
       style="overflow:visible"
       inkscape:isstock="true">
      <path
         inkscape:connector-curvature="0"
         id="path10500-8-4"
         d="M 0,0 5,-5 -12.5,0 5,5 0,0 Z"
         style="fill:#000000;fill-opacity:1;fill-rule:evenodd;stroke:#000000;stroke-width:1pt;stroke-opacity:1"
         transform="matrix(-0.8,0,0,-0.8,-10,0)" />
    </marker>
    <marker
       inkscape:stockid="Arrow1Lend"
       orient="auto"
       refY="0"
       refX="0"
       id="Arrow1Lend-7-0"
       style="overflow:visible"
       inkscape:isstock="true">
      <path
         inkscape:connector-curvature="0"
         id="path10500-8-78"
         d="M 0,0 5,-5 -12.5,0 5,5 0,0 Z"
         style="fill:#000000;fill-opacity:1;fill-rule:evenodd;stroke:#000000;stroke-width:1pt;stroke-opacity:1"
         transform="matrix(-0.8,0,0,-0.8,-10,0)" />
    </marker>
    <marker
       inkscape:stockid="Arrow1Lend"
       orient="auto"
       refY="0"
       refX="0"
       id="Arrow1Lend-7-8"
       style="overflow:visible"
       inkscape:isstock="true">
      <path
         inkscape:connector-curvature="0"
         id="path10500-8-8"
         d="M 0,0 5,-5 -12.5,0 5,5 0,0 Z"
         style="fill:#000000;fill-opacity:1;fill-rule:evenodd;stroke:#000000;stroke-width:1pt;stroke-opacity:1"
         transform="matrix(-0.8,0,0,-0.8,-10,0)" />
    </marker>
    <marker
       inkscape:stockid="Arrow1Lend"
       orient="auto"
       refY="0"
       refX="0"
       id="Arrow1Lend-7-1"
       style="overflow:visible"
       inkscape:isstock="true">
      <path
         inkscape:connector-curvature="0"
         id="path10500-8-49"
         d="M 0,0 5,-5 -12.5,0 5,5 0,0 Z"
         style="fill:#000000;fill-opacity:1;fill-rule:evenodd;stroke:#000000;stroke-width:1pt;stroke-opacity:1"
         transform="matrix(-0.8,0,0,-0.8,-10,0)" />
    </marker>
    <path
       style="fill:none;fill-rule:evenodd;stroke:#000000;stroke-width:1px;stroke-linecap:butt;stroke-linejoin:miter;stroke-opacity:1"
       d="m 84.530819,-243.32633 c 94.711141,-48.48732 206.089801,44.95179 299.285711,0"
       id="path14575"
       inkscape:connector-curvature="0"
       sodipodi:nodetypes="cc" />
    <circle
       style="display:inline;fill:none;fill-opacity:1;fill-rule:nonzero;stroke:#000000;stroke-width:5.0483613;stroke-linecap:butt;stroke-miterlimit:4;stroke-dasharray:none;stroke-dashoffset:0;stroke-opacity:1"
       id="path8134-3-3-6"
       cx="-697.88599"
       cy="-1839.6458"
       r="177.48793"
       transform="matrix(-0.97501629,-0.22213338,0.22213338,-0.97501629,0,0)" />
    <circle
       style="display:inline;fill:none;fill-opacity:1;fill-rule:nonzero;stroke:#000000;stroke-width:6.0177846;stroke-linecap:butt;stroke-miterlimit:4;stroke-dasharray:none;stroke-dashoffset:0;stroke-opacity:1"
       id="circle8339-5"
       cx="-567.15802"
       cy="2102.4265"
       r="211.57047"
       transform="matrix(-0.97501629,0.22213338,0.22213338,0.97501629,0,0)" />
  </defs>
  <sodipodi:namedview
     id="base"
     pagecolor="#ffffff"
     bordercolor="#666666"
     borderopacity="1.0"
     inkscape:pageopacity="0.0"
     inkscape:pageshadow="2"
     inkscape:zoom="1.979899"
     inkscape:cx="226.74307"
     inkscape:cy="214.02775"
     inkscape:document-units="px"
     inkscape:current-layer="g8226"
     showgrid="false"
     units="px"
     inkscape:window-width="2560"
     inkscape:window-height="1377"
     inkscape:window-x="0"
     inkscape:window-y="30"
     inkscape:window-maximized="1" />
  <metadata
     id="metadata7">
    <rdf:RDF>
      <cc:Work
         rdf:about="">
        <dc:format>image/svg+xml</dc:format>
        <dc:type
           rdf:resource="http://purl.org/dc/dcmitype/StillImage" />
        <dc:title />
      </cc:Work>
    </rdf:RDF>
  </metadata>
  <g
     inkscape:groupmode="layer"
     id="layer3"
     inkscape:label="stineni"
     style="display:inline" />
  <g
     inkscape:label="vrsek"
     inkscape:groupmode="layer"
     id="layer1"
     transform="translate(0,-572.36216)"
     style="display:inline">
    <circle
       style="fill:none;fill-opacity:1;fill-rule:nonzero;stroke:#000000;stroke-width:5.08634472;stroke-linecap:butt;stroke-miterlimit:4;stroke-dasharray:none;stroke-dashoffset:0;stroke-opacity:1"
       id="path8134"
       cx="240.04724"
       cy="812.36218"
       r="237.2836" />
    <circle
       style="fill:none;fill-opacity:1;fill-rule:nonzero;stroke:#000000;stroke-width:4.60766077;stroke-linecap:butt;stroke-miterlimit:4;stroke-dasharray:none;stroke-dashoffset:0;stroke-opacity:1"
       id="path8134-3"
       cx="240.04724"
       cy="812.36218"
       r="161.99399" />
    <g
       transform="matrix(1.0295113,0,0,1.0295113,-771.96006,345.50802)"
       id="layer1-3"
       inkscape:label="Vrstva 1">
      <g
         id="g8232"
         transform="matrix(1.1667243,0,0,1.1667243,-163.88962,-107.63201)">
        <g
           transform="matrix(0.74532782,0,0,0.74532782,598.72726,2.4777262)"
           id="g8226">
          <path
             style="fill:#000000;fill-opacity:1;stroke:none"
             d="M 239.80469 124.93945 L 239.80469 125.37891 C 224.90653 138.75094 220.86573 156.68772 222.25 171.33398 C 221.22307 171.10696 220.16552 170.99023 219.07031 170.99023 C 210.94872 170.99023 206.04106 176.18418 202.11719 183.29492 C 196.84158 192.85523 209.36764 221.28377 209.95703 213.18359 C 210.33139 208.03871 222.21069 193.21725 228.39648 197.06055 C 228.70033 197.82174 228.92969 198.35352 228.92969 198.35352 C 228.4786 266.08941 151.24416 249.47231 162.15039 197.89258 C 168.1501 197.89258 173.01367 193.03093 173.01367 187.03125 C 173.01367 181.03154 168.1501 176.16992 162.15039 176.16992 C 157.16643 176.16992 152.97456 179.52777 151.69531 184.10352 C 145.80759 173.26047 129.67195 159.48657 129.65625 163.6875 L 146.49414 284.37109 L 240.0332 284.38477 L 240.0625 284.38477 L 333.60156 284.37109 L 350.4375 163.6875 C 350.4218 159.48657 334.28616 173.26047 328.39844 184.10352 C 327.11919 179.52777 322.92732 176.16992 317.94336 176.16992 C 311.94365 176.16992 307.08203 181.03154 307.08203 187.03125 C 307.08203 193.03093 311.94365 197.89258 317.94336 197.89258 C 328.84959 249.47231 251.61515 266.08941 251.16406 198.35352 C 251.16406 198.35352 251.39342 197.82174 251.69727 197.06055 C 257.88306 193.21725 269.76236 208.03871 270.13672 213.18359 C 270.72611 221.28377 283.25413 192.85523 277.97852 183.29492 C 274.05464 176.18418 269.14698 170.99023 261.02539 170.99023 C 259.93018 170.99023 258.87068 171.10696 257.84375 171.33398 C 259.22802 156.68772 255.18917 138.75094 240.29102 125.37891 L 240.29102 124.93945 C 240.20788 125.01235 240.12936 125.08698 240.04688 125.16016 C 239.96475 125.08731 239.88746 125.01203 239.80469 124.93945 z "
             transform="matrix(1.1170003,0,0,1.1170003,247.43962,373.8448)"
             id="path3033-2-2" />
        </g>
        <rect
           y="529.36865"
           x="907.24609"
           height="18.551958"
           width="151.58768"
           id="rect8230"
           style="fill:#000000;fill-opacity:1;fill-rule:nonzero;stroke:#000000;stroke-width:4.30518341;stroke-linecap:butt;stroke-miterlimit:4;stroke-dasharray:none;stroke-dashoffset:0;stroke-opacity:1" />
      </g>
    </g>
    <g
       transform="matrix(0.94334559,0.18081874,-0.18081874,0.94334559,335.31192,-1063.7466)"
       inkscape:transform-center-x="-6.0686528"
       inkscape:transform-center-y="-91.321788"
       style="font-style:normal;font-weight:normal;font-size:50px;line-height:125%;font-family:sans-serif;text-align:start;letter-spacing:5px;word-spacing:0px;text-anchor:start;display:inline;fill:#000000;fill-opacity:1;stroke:none;stroke-width:1px;stroke-linecap:butt;stroke-linejoin:miter;stroke-opacity:1"
       id="text14542">
      <path
         d="m 74.374579,1832.4502 q 3.849832,-5.5162 7.012797,-5.6065 l 0.681656,0.6208 q 0.580542,2.8099 -0.549008,3.7763 -1.148096,0.8983 -2.904704,2.6581 -1.731765,1.7164 -2.682148,3.4769 -0.993774,1.7356 0.0028,3.9195 6.714362,2.4616 15.968451,1.192 0.468176,-3.5345 -1.10475,-6.2212 l 0.342218,-1.3021 q 2.305313,2.0113 3.462183,5.3241 1.156871,3.3127 -0.757534,8.2662 -4.007673,1.5656 -7.232227,1.1597 -3.224555,-0.4059 -6.968756,-2.3192 l -1.735631,-0.9938 q -3.514304,-2.4155 -3.952425,-4.971 l -0.260389,-7.2935 0.677443,-1.6863 z"
         style="font-style:normal;font-variant:normal;font-weight:500;font-stretch:normal;font-size:50px;font-family:Xenippa;-inkscape-font-specification:'Xenippa Medium';text-align:start;letter-spacing:5px;text-anchor:start"
         id="path8511"
         inkscape:connector-curvature="0" />
      <path
         d="m 89.068512,1810.1952 q 2.679596,-2.9904 6.919654,-2.5609 4.240054,0.4294 6.650274,2.0491 2.7103,2.2196 4.59097,7.1294 1.87065,4.8397 0.74144,10.6799 -3.6098,1.4804 -8.789906,0.7211 -5.220106,-0.7893 -7.910354,-2.6189 -2.010245,-1.8197 -2.790982,-7.2796 -0.820741,-5.4899 0.588904,-8.1201 z m 0.950492,3.6499 q 0.04038,2.78 1.08065,4.8098 1.070268,1.9899 5.360407,3.0193 4.320129,0.9894 9.659919,-0.6313 -0.47065,-4.7899 -6.130869,-6.4092 -5.660219,-1.6192 -9.970107,-0.7886 z"
         style="font-style:normal;font-variant:normal;font-weight:500;font-stretch:normal;font-size:50px;font-family:Xenippa;-inkscape-font-specification:'Xenippa Medium';text-align:start;letter-spacing:5px;text-anchor:start"
         id="path8513"
         inkscape:connector-curvature="0" />
      <path
         d="m 106.59052,1789.6628 q 2.15613,0.1834 5.85755,3.7655 -0.55492,-3.5372 0.48985,-9.9334 8.17791,-3.546 12.396,4.5279 4.25356,8.0386 6.90767,7.2335 0.46274,-1.0239 0.25771,-3.358 -0.20503,-2.334 -0.30841,-3.2182 -0.13862,-0.9197 1.37982,-0.314 1.96655,4.39 1.57022,6.8283 -0.36087,2.4031 -1.92123,3.954 -2.5531,2.4671 -6.22294,0.1225 -3.66984,-2.3446 -9.47601,-11.3779 -1.98225,0.7717 -3.92733,0.9426 -0.0486,4.3486 1.03893,7.145 7.29711,7.0579 8.31779,8.5813 0.98542,1.4879 0.66045,3.7144 -2.65777,2.0071 -5.09416,0.9744 -0.69979,-2.4063 -4.64838,-6.0953 0.12851,4.2431 0.2955,7.4609 -1.12599,-1.7712 -1.50812,-3.9997 l -0.69139,-5.164 q -1.79634,-2.2329 -4.40918,-3.3722 l -1.17049,1.2338 q -1.47351,-3.7521 0.20615,-9.6514 z"
         style="font-style:normal;font-variant:normal;font-weight:500;font-stretch:normal;font-size:50px;font-family:Xenippa;-inkscape-font-specification:'Xenippa Medium';text-align:start;letter-spacing:5px;text-anchor:start"
         id="path8515"
         inkscape:connector-curvature="0" />
      <path
         d="m 132.27192,1766.7479 5.95222,-3.1629 q 2.44858,-0.1717 3.93588,1.7752 0.51548,1.7455 -1.214,2.9409 -8.2171,0.3628 -7.0289,2.4123 1.87525,1.7135 4.93036,3.4065 3.09485,1.6627 7.47444,3.8539 4.34923,2.1516 4.76987,6.7381 0.42064,4.5864 -2.68945,10.2342 l -1.79957,1.186 -0.66112,-0.1242 q -0.38026,-1.1567 0.16935,-2.3316 1.18808,-2.4806 1.93466,-5.1273 0.77694,-2.607 -4.46243,-4.7707 -5.19964,-2.194 -10.15098,-5.7103 -4.51494,-7.3103 -1.16033,-11.3201 z"
         style="font-style:normal;font-variant:normal;font-weight:500;font-stretch:normal;font-size:50px;font-family:Xenippa;-inkscape-font-specification:'Xenippa Medium';text-align:start;letter-spacing:5px;text-anchor:start"
         id="path8517"
         inkscape:connector-curvature="0" />
      <path
         d="m 151.25464,1753.7767 q 2.6975,-1.4373 4.61657,-1.5684 l 0.29245,1.2307 -1.93429,1.4347 q 0.0835,3.3606 3.29816,8.5448 3.1883,5.1417 7.33671,5.5698 0.94246,-1.2316 1.7207,-5.4795 l 1.65057,0.8592 q -0.85117,6.8817 -3.42527,10.89 -6.6828,-0.1509 -9.67812,-4.4121 -2.95283,-4.2876 -5.42302,-10.1687 l -1.93522,0.1998 3.48076,-7.1003 z m -3.21261,-13.2455 q 0.74298,2.7162 2.16828,2.8326 -1.86879,2.3943 -2.90626,6.5087 l -1.35961,3.7847 -0.13193,-3.154 q -0.22713,-3.2126 2.22952,-9.972 z"
         style="font-style:normal;font-variant:normal;font-weight:500;font-stretch:normal;font-size:50px;font-family:Xenippa;-inkscape-font-specification:'Xenippa Medium';text-align:start;letter-spacing:5px;text-anchor:start"
         id="path8519"
         inkscape:connector-curvature="0" />
      <path
         d="m 167.75322,1732.9253 q 8.80942,-3.5013 11.27603,-0.9817 -0.44367,3.0607 -2.4815,7.185 -2.01506,4.0574 -5.01082,7.5944 3.62134,7.4685 9.53043,13.8106 1.902,-0.2119 4.29653,-7.8 l 0.83925,1.7046 q -1.88588,8.508 -4.60768,11.1299 l -1.0759,0.4182 q -4.98963,0.5061 -13.71891,-16.3184 -1.34516,-3.0717 -1.90977,-5.8033 -0.58669,-2.7763 0.0544,-5.2098 0.68591,-2.4555 2.80797,-5.7295 z m -0.0668,3.5997 q -0.72941,2.254 2.47712,8.0876 5.91838,-6.0906 5.05705,-7.8401 -0.81648,-1.7715 -7.53417,-0.2475 z"
         style="font-style:normal;font-variant:normal;font-weight:500;font-stretch:normal;font-size:50px;font-family:Xenippa;-inkscape-font-specification:'Xenippa Medium';text-align:start;letter-spacing:5px;text-anchor:start"
         id="path8521"
         inkscape:connector-curvature="0" />
      <path
         d="m 191.54345,1734.0013 q 2.92519,-0.8864 4.8332,-0.6425 l 0.048,1.264 -2.17599,1.0321 q -0.57035,3.3128 1.57692,9.0223 2.12967,5.6628 6.11608,6.888 1.16359,-1.0252 2.75154,-5.0413 l 1.45241,1.1632 q -2.17071,6.5856 -5.47387,10.0181 -6.52642,-1.4451 -8.63768,-6.2067 -2.06446,-4.7792 -3.34614,-11.028 l -1.9372,-0.1795 4.79272,-6.2897 z m -0.58057,-13.6172 q 0.20164,2.8088 1.57724,3.1996 -2.29797,1.986 -4.11432,5.8208 l -2.06836,3.4489 0.48276,-3.1196 q 0.40076,-3.1956 4.12268,-9.3497 z"
         style="font-style:normal;font-variant:normal;font-weight:500;font-stretch:normal;font-size:50px;font-family:Xenippa;-inkscape-font-specification:'Xenippa Medium';text-align:start;letter-spacing:5px;text-anchor:start"
         id="path8523"
         inkscape:connector-curvature="0" />
      <path
         d="m 223.8901,1724.4442 q 2.51062,-0.043 4.13033,0.6967 -1.94976,2.9935 -1.02973,8.2754 0.96862,5.2701 5.44327,10.3593 1.22067,0.5788 4.44432,-5.8618 l 0.23991,2.0512 q -1.1016,3.0966 -3.10875,5.641 -1.97034,2.484 -2.78465,2.7328 l -0.6803,0.1649 q -4.39388,-1.1473 -7.5682,-8.3009 -2.27962,3.3307 -3.33707,7.034 -1.02064,3.6429 -3.28393,4.7059 l -0.89378,-0.5037 q -0.73901,-3.4736 -2.38812,-5.1833 -1.60051,-1.7214 -2.71797,-4.8461 -1.07026,-4.6282 -1.57066,-9.24 0.75552,-2.1896 2.48725,-3.5354 1.78033,-1.3575 4.47799,-2.1143 0.22516,2.415 -1.12664,3.2056 -1.36357,0.7421 0.19697,6.3318 1.59737,5.5293 4.45685,7.563 l 2.31207,-4.4704 q 0.83795,-1.8494 -0.0115,-5.142 -0.80086,-3.3043 -0.50328,-5.8974 0.34618,-2.6048 2.81562,-3.6663 z"
         style="font-style:normal;font-variant:normal;font-weight:500;font-stretch:normal;font-size:50px;font-family:Xenippa;-inkscape-font-specification:'Xenippa Medium';text-align:start;letter-spacing:5px;text-anchor:start"
         id="path8525"
         inkscape:connector-curvature="0" />
      <path
         d="m 257.13314,1719.8794 q 2.48189,1.2491 4.53382,6.8831 3.02809,-4.4956 6.94422,-7.5934 2.40988,1.7044 4.18596,4.5 1.82289,2.7426 2.05761,6.5354 0.36443,5.8887 -1.92127,10.2382 -2.2358,4.3464 -6.4338,9.3653 l -0.53562,-1.3695 q 1.37978,-1.989 2.61082,-5.5719 1.23104,-3.5829 0.86042,-9.5715 -0.3737,-6.0384 -3.80589,-8.8818 -1.5264,2.0482 -3.34913,4.1648 0.5738,5.2245 0.045,8.0125 -0.48199,2.735 -1.69661,4.9643 -1.16471,2.2262 -3.23697,4.3583 -1.56411,-2.6084 -0.79863,-4.8099 0.76239,-2.2514 0.51272,-7.0952 -0.20286,-4.8968 -2.72035,-9.1495 l -3.61101,3.9807 q 0.51611,2.6732 0.50488,5.7298 0.0356,3.0035 -0.86415,5.4638 -0.90284,2.4103 -2.80735,5.6341 -2.40419,-0.803 -2.65225,-3.1922 1.08898,-5.8785 0.6166,-8.6547 -0.42248,-2.7792 -2.0607,-6.5852 -2.30326,2.4469 -2.95966,4.7919 l -1.29085,-0.6214 q 3.43595,-8.4284 7.65102,-10.7431 2.47782,2.8023 3.2615,6.561 3.6393,-4.333 6.95966,-7.3439 z"
         style="font-style:normal;font-variant:normal;font-weight:500;font-stretch:normal;font-size:50px;font-family:Xenippa;-inkscape-font-specification:'Xenippa Medium';text-align:start;letter-spacing:5px;text-anchor:start"
         id="path8527"
         inkscape:connector-curvature="0" />
      <path
         d="m 324.07907,1725.6123 q 7.27572,3.7545 14.10253,2.9135 -4.01891,1.3392 -7.96034,4.2289 -3.88208,2.8512 -9.06729,-3.9843 -3.4737,2.3762 -4.90767,5.4952 -1.43397,3.1191 -1.19845,6.7998 0.29486,3.6422 2.34474,3.6203 l 3.83409,-0.714 -0.93885,1.2821 q -6.06143,2.2829 -8.4465,2.4375 -2.33618,0.1651 -6.2084,1.5357 -0.73033,-1.1277 1.93735,-1.8866 2.72704,-0.7974 1.93337,-3.0634 -0.79366,-2.2661 -0.0934,-6.2579 0.7596,-4.0303 3.69028,-10.5618 l -7.30071,3.2961 1.08523,-1.9665 q 3.94851,-2.6836 9.40228,-4.9942 2.56741,1.6227 2.54431,4.839 3.14558,-2.0372 5.24744,-3.0194 z"
         style="font-style:normal;font-variant:normal;font-weight:500;font-stretch:normal;font-size:50px;font-family:Xenippa;-inkscape-font-specification:'Xenippa Medium';text-align:start;letter-spacing:5px;text-anchor:start"
         id="path8529"
         inkscape:connector-curvature="0" />
      <path
         d="m 346.08886,1731.9189 q 6.27888,4.025 7.00778,8.0339 -1.94069,3.7728 -5.6134,4.1419 -3.62546,0.3854 -8.11234,0.049 0.7344,4.9102 3.06606,7.04 2.33166,2.1297 4.21798,1.7244 1.88632,-0.4053 5.52808,-2.2137 l 0.11634,0.8868 q -3.15097,4.5179 -12.93884,4.5166 -7.1003,-4.0977 -5.89044,-14.4726 l 0.78135,-1.9518 q 1.28649,-3.2585 4.06139,-5.3139 2.7749,-2.0555 7.77604,-2.441 z m -4.39407,2.6062 q -1.36838,0.7433 -2.23132,7.0584 6.46052,1.9715 7.05462,-1.5795 0.5941,-3.551 -4.8233,-5.4789 z"
         style="font-style:normal;font-variant:normal;font-weight:500;font-stretch:normal;font-size:50px;font-family:Xenippa;-inkscape-font-specification:'Xenippa Medium';text-align:start;letter-spacing:5px;text-anchor:start"
         id="path8531"
         inkscape:connector-curvature="0" />
      <path
         d="m 372.81801,1744.9462 c -2.20529,0.4667 -4.09574,1.7974 -5.67134,3.992 -1.67828,2.9998 -2.22384,5.8929 -1.63668,8.6793 2.14452,-1.0182 3.89409,-1.9907 5.24871,-2.9177 2.79292,-4.642 3.47935,-7.8932 2.05931,-9.7536 z m 5.07173,-2.0006 c 1.06051,1.0114 1.60731,2.3072 1.6404,3.8873 0.0778,1.5651 0.98196,2.6664 2.71251,3.3038 1.73055,0.6374 3.90731,0.7894 6.53028,0.456 -0.92148,1.3286 -2.06008,2.1956 -3.4158,2.6009 -1.34086,0.3754 -2.60796,0.3788 -3.8013,0.01 -1.14865,-0.3852 -2.05908,-0.9125 -2.7313,-1.5819 -2.91383,3.8372 -3.95004,4.8432 -3.98839,7.9142 -0.0235,3.0411 -0.59723,6.7393 -1.72111,11.0945 -0.83133,1.6713 -2.09573,2.9783 -3.79319,3.921 -1.68245,0.9873 -3.97727,1.4095 -6.88447,1.2665 -2.87734,-0.1282 -5.40784,-1.9268 -7.59149,-5.3956 -2.69626,0.9298 -4.60317,1.5077 -5.72074,1.7337 -1.13241,0.2558 -2.19099,0.176 -3.17573,-0.2394 -0.9255,-0.6093 -1.47161,-1.5697 -1.63831,-2.8811 -0.21139,-1.2965 0.106,-2.7953 0.95218,-4.4965 0.72804,-1.1643 1.93375,-2.0165 3.61713,-2.5566 1.6387,-0.5252 3.41271,-0.4992 5.32202,0.078 1.92432,0.622 3.79033,1.8853 5.59804,3.7897 1.69684,-1.2408 3.07335,-2.399 4.12953,-3.4745 1.05618,-1.0756 2.29659,-0.6584 4.60099,-3.6446 l 0.55856,-0.2248 c -2.15456,3.3586 -3.34225,3.2097 -4.44281,4.4493 -1.1154,1.2694 -2.52152,2.5245 -4.21836,3.7653 0.9266,1.131 2.19069,3.2676 3.79227,6.4097 1.93901,0.5177 3.15315,0.135 3.64242,-1.148 0.48928,-1.283 0.49964,-3.4744 0.0311,-6.5741 -0.46855,-3.0998 -0.29645,-3.8655 1.39605,-7.1933 -4.6464,2.2308 -8.44554,3.2822 -11.39743,3.1542 1.02634,-1.0904 1.46953,-3.0292 1.32957,-5.8166 -0.1101,-2.7725 0.24286,-5.0913 1.05888,-6.9563 5.01738,-3.0515 8.82989,-4.8408 11.43755,-5.368 2.6225,-0.557 4.6795,-0.6507 6.17098,-0.2811 z m -23.627,26.6262 c -1.90236,-4.4086 -4.02198,-5.7608 -6.35886,-4.0565 -1.38401,1.1358 -2.14916,2.3746 -2.29544,3.7166 -0.14628,1.342 0.54085,2.0188 2.0614,2.0306 1.52056,0.012 3.71819,-0.5516 6.5929,-1.6907 z"
         style="font-style:normal;font-variant:normal;font-weight:500;font-stretch:normal;font-size:50px;font-family:Xenippa;-inkscape-font-specification:'Xenippa Medium';text-align:start;letter-spacing:5px;text-anchor:start"
         id="path8533"
         inkscape:connector-curvature="0"
         sodipodi:nodetypes="cccccccsccccccccccccccccsccccccscccccccccscc" />
      <path
         d="m 397.35405,1756.8938 q 2.44438,1.8351 3.37569,3.5182 l -0.99103,0.786 -2.11885,-1.1447 q -3.00899,1.4986 -6.34424,6.6061 -3.3079,5.0656 -1.93909,9.005 1.51479,0.3322 5.69256,-0.7615 l -0.0794,1.8591 q -6.59472,2.143 -11.31592,1.5083 -2.69314,-6.1179 -0.10117,-10.6359 2.63384,-4.4906 6.91572,-9.2187 l -1.00051,-1.6685 7.90623,0.1466 z m 10.63904,-8.5191 q -2.14609,1.8233 -1.64795,3.1637 -2.96038,-0.6791 -7.12705,0.1233 l -4.00436,0.3709 2.80139,-1.455 q 2.8142,-1.5662 9.97797,-2.2029 z"
         style="font-style:normal;font-variant:normal;font-weight:500;font-stretch:normal;font-size:50px;font-family:Xenippa;-inkscape-font-specification:'Xenippa Medium';text-align:start;letter-spacing:5px;text-anchor:start"
         id="path8535"
         inkscape:connector-curvature="0" />
      <path
         d="m 415.11076,1769.6536 4.49455,5.0231 q 0.75229,2.3364 -0.78242,4.2462 -1.57158,0.9179 -3.14586,-0.4755 -2.31741,-7.8919 -4.02333,-6.248 -1.21527,2.2306 -2.12851,5.6019 -0.87427,3.4027 -1.9546,8.1793 -1.049,4.7375 -5.40177,6.2428 -4.35277,1.5053 -10.58044,-0.1639 l -1.58194,-1.4637 -0.0376,-0.6716 q 1.03217,-0.6459 2.30444,-0.3932 2.69276,0.5604 5.44123,0.6523 2.71714,0.131 3.56503,-5.4738 0.88686,-5.5735 3.11699,-11.2221 6.01842,-6.1321 10.71419,-3.8338 z"
         style="font-style:normal;font-variant:normal;font-weight:500;font-stretch:normal;font-size:50px;font-family:Xenippa;-inkscape-font-specification:'Xenippa Medium';text-align:start;letter-spacing:5px;text-anchor:start"
         id="path8537"
         inkscape:connector-curvature="0" />
      <path
         d="m 423.58695,1793.8715 q 0.55254,3.3256 -0.16938,7.0704 -3.00728,0.5185 -6.6107,-0.2029 -0.79961,-3.4326 0.0634,-7.1062 3.07687,-0.2353 6.71663,0.2387 z"
         style="font-style:normal;font-variant:normal;font-weight:500;font-stretch:normal;font-size:50px;font-family:Xenippa;-inkscape-font-specification:'Xenippa Medium';text-align:start;letter-spacing:5px;text-anchor:start"
         id="path8539"
         inkscape:connector-curvature="0" />
      <path
         d="m 76.207305,1860.0908 q 0.55254,3.3256 -0.16938,7.0704 -3.00728,0.5185 -6.6107,-0.2029 -0.79961,-3.4326 0.0634,-7.1062 3.07687,-0.2353 6.71663,0.2387 z"
         style="font-style:normal;font-variant:normal;font-weight:500;font-stretch:normal;font-size:50px;line-height:125%;font-family:Xenippa;-inkscape-font-specification:'Xenippa Medium';text-align:start;letter-spacing:5px;word-spacing:0px;text-anchor:start;display:inline;fill:#000000;fill-opacity:1;stroke:none;stroke-width:1px;stroke-linecap:butt;stroke-linejoin:miter;stroke-opacity:1"
         id="path8539-9"
         inkscape:connector-curvature="0" />
      <path
         d="m 75.55414,2002.7647 q 0.55254,3.3256 -0.16938,7.0704 -3.00728,0.5185 -6.6107,-0.2029 -0.79961,-3.4326 0.0634,-7.1062 3.07687,-0.2353 6.71663,0.2387 z"
         style="font-style:normal;font-variant:normal;font-weight:500;font-stretch:normal;font-size:50px;line-height:125%;font-family:Xenippa;-inkscape-font-specification:'Xenippa Medium';text-align:start;letter-spacing:5px;word-spacing:0px;text-anchor:start;display:inline;fill:#000000;fill-opacity:1;stroke:none;stroke-width:1px;stroke-linecap:butt;stroke-linejoin:miter;stroke-opacity:1"
         id="path8539-3"
         inkscape:connector-curvature="0" />
      <path
         d="m 473.76029,1923.1644 q 0.55254,3.3256 -0.16938,7.0704 -3.00728,0.5185 -6.6107,-0.2029 -0.79961,-3.4326 0.0634,-7.1062 3.07687,-0.2353 6.71663,0.2387 z"
         style="font-style:normal;font-variant:normal;font-weight:500;font-stretch:normal;font-size:50px;line-height:125%;font-family:Xenippa;-inkscape-font-specification:'Xenippa Medium';text-align:start;letter-spacing:5px;word-spacing:0px;text-anchor:start;display:inline;fill:#000000;fill-opacity:1;stroke:none;stroke-width:1px;stroke-linecap:butt;stroke-linejoin:miter;stroke-opacity:1"
         id="path8539-6"
         inkscape:connector-curvature="0" />
    </g>
    <text
       xml:space="preserve"
       style="font-style:normal;font-weight:normal;font-size:50px;line-height:125%;font-family:sans-serif;letter-spacing:0px;word-spacing:0px;fill:#000000;fill-opacity:1;stroke:none;stroke-width:1px;stroke-linecap:butt;stroke-linejoin:miter;stroke-opacity:1"
       x="32.142857"
       y="763.07648"
       id="text14634"
       sodipodi:linespacing="125%"><tspan
         sodipodi:role="line"
         id="tspan14636"
         x="32.142857"
         y="763.07648" /></text>
    <circle
       style="display:inline;fill:none;fill-opacity:1;fill-rule:nonzero;stroke:#000000;stroke-width:5.80941916;stroke-linecap:butt;stroke-miterlimit:4;stroke-dasharray:none;stroke-dashoffset:0;stroke-opacity:1"
       id="path8134-3-3"
       cx="-697.88599"
       cy="-1839.6458"
       r="204.24484"
       transform="matrix(-0.97501629,-0.22213338,0.22213338,-0.97501629,0,0)" />
    <g
       transform="matrix(0.91913573,0.30458994,-0.30458994,0.91913573,-112.97893,-1259.3703)"
       inkscape:transform-center-x="14.016082"
       inkscape:transform-center-y="156.22091"
       style="font-style:normal;font-weight:normal;font-size:50px;line-height:125%;font-family:sans-serif;text-align:start;letter-spacing:5px;word-spacing:0px;text-anchor:start;display:inline;fill:#000000;fill-opacity:1;stroke:none;stroke-width:1px;stroke-linecap:butt;stroke-linejoin:miter;stroke-opacity:1"
       id="text14542-7">
      <path
         d="m 861.12224,2022.5768 c 0.43799,1.6713 -0.17662,3.7682 -1.84384,6.2907 -1.63939,2.5058 -4.19293,4.9743 -7.66063,7.4056 l -2.53898,1.3594 c -11.24833,5.4506 -13.38684,5.6869 -19.15976,6.4338 -1.14882,-0.3322 -2.12851,-1.1078 -2.93907,-2.3269 l 3.60217,-0.634 c 1.61596,-0.2149 3.87427,-1.1585 6.77493,-2.8307 2.90066,-1.6721 0.14779,-0.7061 4.4856,-2.827 4.36564,-2.1376 6.34697,-3.6352 5.944,-4.4928 -5.09453,-0.079 -8.89109,-0.5234 -11.38968,-1.3323 0.82993,-3.1563 2.78906,-6.0445 5.87739,-8.6646 l 2.83872,-1.9953 c 1.97709,-0.8121 4.5604,-0.87 7.74991,-0.1739 3.21735,0.6793 5.97043,1.942 8.25924,3.788 z m -3.97325,-1.0206 c -3.00609,-0.9585 -5.46414,-0.9761 -7.37413,-0.053 -1.89322,0.9512 -3.88415,3.2514 -5.97278,6.9007 l 2.34209,0.5807 c 2.39186,0.3799 4.32812,0.067 5.80877,-0.9393 3.2782,-2.4309 5.01022,-4.5941 5.19605,-6.4895 z"
         style="font-style:normal;font-variant:normal;font-weight:500;font-stretch:normal;font-size:48.75px;font-family:Xenippa;-inkscape-font-specification:'Xenippa Medium';text-align:start;letter-spacing:8.04000187px;text-anchor:start"
         id="path8435"
         inkscape:connector-curvature="0"
         sodipodi:nodetypes="cccccccccccccccccccccc" />
      <path
         d="m 879.52047,2047.909 q 1.11175,2.1812 1.15727,3.9166 -3.45688,-0.427 -7.69038,2.6395 -4.20238,3.1039 -6.74581,9.202 0.0154,1.317 7.03725,1.3848 l -1.69429,1.088 q -3.18424,0.3602 -6.27224,-0.3093 -3.01936,-0.663 -3.58582,-1.2699 l -0.4356,-0.5254 q -0.87531,-4.3403 4.03311,-10.1827 -3.89344,-0.5716 -7.59027,0.087 -3.62818,0.6649 -5.52806,-0.8629 l 0.0587,-0.9985 q 2.72685,-2.134 3.51885,-4.3104 0.82311,-2.1389 3.08229,-4.4551 3.59645,-2.9183 7.42257,-5.3304 2.24151,-0.2752 4.1616,0.666 1.95121,0.9787 3.76864,3.0181 -2.01924,1.2308 -3.29042,0.3849 -1.23365,-0.877 -5.46267,2.8823 -4.16037,3.7658 -4.71822,7.1412 l 4.90578,0.1123 q 1.9788,-0.057 4.49972,-2.2107 2.55204,-2.1157 4.95105,-2.9647 2.43013,-0.8115 4.41693,0.8975 z"
         style="font-style:normal;font-variant:normal;font-weight:500;font-stretch:normal;font-size:48.75px;font-family:Xenippa;-inkscape-font-specification:'Xenippa Medium';text-align:start;letter-spacing:8.04000187px;text-anchor:start"
         id="path8437"
         inkscape:connector-curvature="0" />
      <path
         d="m 895.68298,2064.016 q 2.55835,2.9197 3.04275,8.1052 l -3.44542,3.0044 q -6.80059,6.9357 -4.63034,10.2931 l 3.08519,0.1944 0.18728,0.8175 q -4.63754,1.5566 -9.25818,0.5221 -1.71673,-3.2811 -0.81608,-4.9584 0.96947,-1.6813 4.1539,-6.1549 -8.64593,4.3875 -12.31138,3.1574 -1.25306,-4.7593 3.28741,-12.5261 0.80852,-0.912 2.29281,-2.0717 1.4843,-1.1598 3.43115,-1.5186 1.94685,-0.3588 10.98091,1.1356 z m -3.97831,1.0335 q -4.38522,-0.5652 -7.90547,4.0667 -3.48791,4.5955 -0.39218,6.6886 5.27835,-0.6627 9.65752,-4.7937 0.0899,-2.5263 -1.35987,-5.9616 z"
         style="font-style:normal;font-variant:normal;font-weight:500;font-stretch:normal;font-size:48.75px;font-family:Xenippa;-inkscape-font-specification:'Xenippa Medium';text-align:start;letter-spacing:8.04000187px;text-anchor:start"
         id="path8439"
         inkscape:connector-curvature="0" />
      <path
         d="m 922.15639,2071.6032 q 7.22025,5.7703 6.27755,9.0763 -2.80664,1.1025 -7.28401,1.3685 -4.40968,0.2529 -8.8523,-0.5761 -4.57656,6.6742 -7.09419,14.7422 1.09812,1.5086 8.68149,-0.1282 l -1.03841,1.5341 q -8.11684,2.5119 -11.65208,1.4729 l -0.87388,-0.7092 q -2.83846,-3.9817 7.19528,-19.501 1.95198,-2.6229 3.99281,-4.4203 2.06814,-1.8379 4.4388,-2.4702 2.41102,-0.605 6.20894,-0.389 z m -3.08114,1.682 q -2.26134,0.4708 -5.65353,6.0041 8.01699,2.0711 9.08272,0.4966 1.1061,-1.5471 -3.42919,-6.5007 z"
         style="font-style:normal;font-variant:normal;font-weight:500;font-stretch:normal;font-size:48.75px;font-family:Xenippa;-inkscape-font-specification:'Xenippa Medium';text-align:start;letter-spacing:8.04000187px;text-anchor:start"
         id="path8441"
         inkscape:connector-curvature="0" />
      <path
         d="m 932.46505,2089.4391 q 2.53461,1.5675 3.58662,3.1201 l -0.89337,0.8503 -2.15793,-0.9258 q -2.79038,1.7193 -5.58092,6.9715 -2.76766,5.2092 -1.09284,8.9144 1.50008,0.1898 5.46092,-1.2388 l 0.086,1.8122 q -6.21573,2.6595 -10.85591,2.4575 -3.15195,-5.7045 -1.03144,-10.3191 2.16357,-4.5916 5.90662,-9.5586 l -1.11794,-1.5324 7.69017,-0.5513 z m 9.5835,-9.2059 q -1.92397,1.9588 -1.32265,3.2167 -2.93424,-0.3997 -6.90986,0.745 l -3.85587,0.7116 2.59261,-1.6587 q 2.5953,-1.7678 9.49577,-3.0146 z"
         style="font-style:normal;font-variant:normal;font-weight:500;font-stretch:normal;font-size:48.75px;font-family:Xenippa;-inkscape-font-specification:'Xenippa Medium';text-align:start;letter-spacing:8.04000187px;text-anchor:start"
         id="path8443"
         inkscape:connector-curvature="0" />
      <path
         d="m 950.17401,2097.5654 5.61749,3.4107 q 1.36453,1.9661 0.47463,4.1829 -1.20561,1.3021 -3.0694,0.4488 -4.40038,-6.7043 -5.52539,-4.687 -0.50089,2.4255 -0.39646,5.8294 0.14968,3.4221 0.49686,8.1842 0.36534,4.7169 -3.26803,7.3558 -3.63337,2.6389 -9.91617,2.8484 l -1.89087,-0.9166 -0.22556,-0.6159 q 0.77964,-0.8952 2.03811,-1.0204 2.67083,-0.2411 5.26074,-0.935 2.57176,-0.6486 1.77282,-6.1174 -0.75371,-5.4506 -0.27569,-11.3524 3.87464,-7.4274 8.90692,-6.6155 z"
         style="font-style:normal;font-variant:normal;font-weight:500;font-stretch:normal;font-size:48.75px;font-family:Xenippa;-inkscape-font-specification:'Xenippa Medium';text-align:start;letter-spacing:8.04000187px;text-anchor:start"
         id="path8445"
         inkscape:connector-curvature="0" />
      <path
         d="m 998.22182,2110.0965 q 7.33418,3.1517 13.91598,1.8648 -3.8167,1.5785 -7.4515,4.6597 -3.5797,3.0398 -9.09238,-3.252 -3.21519,2.5496 -4.39554,5.6817 -1.18034,3.1321 -0.69841,6.6956 0.53701,3.5221 2.52918,3.36 l 3.67989,-0.9578 -0.82503,1.3113 q -5.73835,2.6368 -8.04739,2.9511 -2.26077,0.321 -5.93264,1.92 -0.78778,-1.0465 1.75461,-1.9679 2.59747,-0.9628 1.66988,-3.1122 -0.92759,-2.1494 -0.5208,-6.0799 0.46187,-3.9719 2.86343,-10.5257 l -6.87404,3.7073 0.92037,-1.9871 q 3.65584,-2.8813 8.8013,-5.5033 2.6085,1.4019 2.807,4.5316 2.91935,-2.1975 4.89609,-3.2972 z"
         style="font-style:normal;font-variant:normal;font-weight:500;font-stretch:normal;font-size:48.75px;font-family:Xenippa;-inkscape-font-specification:'Xenippa Medium';text-align:start;letter-spacing:8.04000187px;text-anchor:start"
         id="path8447"
         inkscape:connector-curvature="0" />
      <path
         d="m 1017.4904,2111.2425 q 7.0557,1.7596 8.9795,5.2354 -0.6159,4.0905 -3.8935,5.5771 -3.2288,1.4869 -7.4784,2.576 2.21,4.3069 5.0282,5.5469 2.8183,1.2401 4.4343,0.2773 1.6161,-0.9628 4.4161,-3.7693 l 0.3841,0.7829 q -1.5015,5.1563 -10.5435,8.2082 -7.8371,-1.5705 -9.9557,-11.5318 l 0.1129,-2.0467 q 0.1721,-3.4113 2.0942,-6.1756 1.9222,-2.7643 6.4218,-4.6804 z m -3.2461,3.7781 q -1.0322,1.1135 0.1405,7.2162 6.5829,-0.194 6.0241,-3.6596 -0.5589,-3.4655 -6.1646,-3.5566 z"
         style="font-style:normal;font-variant:normal;font-weight:500;font-stretch:normal;font-size:48.75px;font-family:Xenippa;-inkscape-font-specification:'Xenippa Medium';text-align:start;letter-spacing:8.04000187px;text-anchor:start"
         id="path8449"
         inkscape:connector-curvature="0" />
      <path
         d="m 1037.3142,2112.4553 q 4.1743,-0.4169 8.7014,3.5952 2.0561,-4.8038 6.5111,-6.7835 l 2.7432,-0.8137 5.0621,-1.1272 -1.1514,2.763 q -3.1781,0.8724 -6.2816,1.9316 -4.7213,2.5568 -4.6843,8.6519 0.9849,4.737 5.2873,7.4512 l 3.3201,-4.1876 1.2757,-0.025 -1.4857,3.2017 q -3.2573,5.0154 -7.2527,6.3919 -4.1157,-2.7887 -5.2728,-6.6169 -2.1347,2.4039 -5.2116,10.9369 l -1.1476,1.3358 q -2.4285,2.0501 -5.293,5.2415 0.701,-2.4561 2.7704,-5.3432 7.1529,-13.3147 6.8576,-16.2264 -1.0801,-3.9862 -2.7018,-4.7016 -1.6217,-0.7154 -2.6584,-0.3785 -0.9949,0.2821 -3.1869,4.8091 l -1.7952,1.2758 q 2.8811,-8.1621 5.5941,-11.3821 z"
         style="font-style:normal;font-variant:normal;font-weight:500;font-stretch:normal;font-size:48.75px;font-family:Xenippa;-inkscape-font-specification:'Xenippa Medium';text-align:start;letter-spacing:8.04000187px;text-anchor:start"
         id="path8451"
         inkscape:connector-curvature="0" />
      <path
         d="m 1075.9034,2120.433 q 3.1618,-0.2827 4.3843,2.2599 1.8751,7.0182 0.5391,11.4461 -1.3228,4.4749 -4.3154,6.0774 1.912,-9.7561 -0.1716,-13.0184 -2.6952,0.8603 -3.4913,-2.8659 -0.077,-2.6119 3.0549,-3.8991 z"
         style="font-style:normal;font-variant:normal;font-weight:500;font-stretch:normal;font-size:48.75px;font-family:Xenippa;-inkscape-font-specification:'Xenippa Medium';text-align:start;letter-spacing:8.04000187px;text-anchor:start"
         id="path8453"
         inkscape:connector-curvature="0" />
      <path
         d="m 1113.492,2071.2289 q 0.4169,1.6146 -0.176,3.9183 -0.5507,2.2795 -0.7265,5.4116 -0.1759,3.1322 1.0631,6.579 4.0031,-1.4445 12.1671,-7.006 l 0.2536,2.2131 q -4.3787,4.9152 -10.4682,8.1129 0.4713,2.201 4.4674,6.5433 4.0384,4.318 7.5334,4.3428 2.1351,-3.2407 3.6113,-8.5192 1.5169,4.9162 -4.2834,14.1243 -7.0807,-0.11 -10.5931,-3.9986 -3.4702,-3.9128 -5.6822,-9.9478 -5.9082,2.9256 -7.2144,3.784 -1.3062,0.8584 -2.5999,-1.2098 3.9008,-3.6878 8.6842,-6.4201 -0.5134,-3.749 0.4912,-8.4774 1.0045,-4.7283 3.4724,-9.4504 z"
         style="font-style:normal;font-variant:normal;font-weight:500;font-stretch:normal;font-size:48.75px;font-family:Xenippa;-inkscape-font-specification:'Xenippa Medium';text-align:start;letter-spacing:8.04000187px;text-anchor:start"
         id="path8455"
         inkscape:connector-curvature="0" />
      <path
         d="m 1134.8161,2071.9578 q 3.3417,-1.9757 8.5275,-1.495 l 2.317,3.9406 q 5.5618,7.9636 9.262,6.4501 l 0.7603,-2.9964 0.8381,-0.033 q 0.6741,4.8451 -1.1952,9.1956 -3.5415,1.0818 -5.0238,-0.1129 -1.4736,-1.263 -5.2828,-5.2182 2.7169,9.307 0.8316,12.6826 -4.9089,0.3533 -11.7045,-5.5423 -0.7471,-0.9629 -1.6131,-2.6357 -0.866,-1.6728 -0.8593,-3.6524 0.01,-1.9796 3.1422,-10.5828 z m 0.2817,4.1006 q -1.3647,4.2057 2.5382,8.5202 3.873,4.2759 6.5014,1.6196 0.3226,-5.31 -2.9294,-10.3763 -2.4664,-0.5544 -6.1102,0.2365 z"
         style="font-style:normal;font-variant:normal;font-weight:500;font-stretch:normal;font-size:48.75px;font-family:Xenippa;-inkscape-font-specification:'Xenippa Medium';text-align:start;letter-spacing:8.04000187px;text-anchor:start"
         id="path8457"
         inkscape:connector-curvature="0" />
      <path
         d="m 1147.1256,2047.3499 q 6.998,-6.0379 10.0747,-4.5041 0.5684,2.9613 0.01,7.4114 -0.5612,4.3811 -2.1919,8.596 5.7204,5.7243 13.1889,9.6806 1.6845,-0.8024 1.4681,-8.5574 l 1.3173,1.3025 q 0.9787,8.4401 -0.6917,11.7244 l -0.8577,0.7288 q -4.4352,2.059 -17.8481,-10.6539 -2.2198,-2.4004 -3.612,-4.7366 -1.4268,-2.3705 -1.613,-4.8169 -0.152,-2.4811 0.7577,-6.1748 z m 1.0876,3.3376 q 0.048,2.3094 4.8639,6.6599 3.508,-7.5003 2.156,-8.837 -1.3177,-1.3714 -7.0199,2.1771 z"
         style="font-style:normal;font-variant:normal;font-weight:500;font-stretch:normal;font-size:48.75px;font-family:Xenippa;-inkscape-font-specification:'Xenippa Medium';text-align:start;letter-spacing:8.04000187px;text-anchor:start"
         id="path8459"
         inkscape:connector-curvature="0" />
      <path
         d="m 1166.5425,2040.4951 q 2.0055,-2.2043 3.7246,-2.9539 l 0.6721,1.034 -1.3056,1.9517 q 1.1787,3.0583 5.8304,6.7642 4.6136,3.6756 8.5631,2.7084 0.4615,-1.4399 -0.2169,-5.5955 l 1.7973,0.2476 q 1.4751,6.5979 0.426,11.1224 -6.1856,2.053 -10.3333,-0.8775 -4.1173,-2.9685 -8.314,-7.5586 l -1.7114,0.8181 0.8677,-7.6609 z m -7.2933,-11.1085 q 1.5729,2.2504 2.9198,1.8898 -0.9308,2.8113 -0.5342,6.9294 l -0.01,3.9209 -1.1554,-2.8527 q -1.262,-2.8753 -1.2229,-9.8874 z"
         style="font-style:normal;font-variant:normal;font-weight:500;font-stretch:normal;font-size:48.75px;font-family:Xenippa;-inkscape-font-specification:'Xenippa Medium';text-align:start;letter-spacing:8.04000187px;text-anchor:start"
         id="path8461"
         inkscape:connector-curvature="0" />
      <path
         d="m 1177.7797,2024.5726 4.3834,-4.8964 q 2.1831,-0.9807 4.199,0.3008 1.0589,1.424 -0.1218,3.0997 -7.3979,3.0957 -5.6212,4.5717 2.2924,0.9374 5.6577,1.4592 3.3915,0.4807 8.1365,1.013 4.7039,0.5062 6.6314,4.5621 1.9275,4.0558 0.9809,10.2704 l -1.248,1.6906 -0.6468,0.1088 q -0.737,-0.9307 -0.6292,-2.1908 0.2529,-2.6697 0.046,-5.343 -0.1658,-2.6471 -5.6884,-2.865 -5.4964,-0.259 -11.2102,-1.8116 -6.5906,-5.1715 -4.8693,-9.9695 z"
         style="font-style:normal;font-variant:normal;font-weight:500;font-stretch:normal;font-size:48.75px;font-family:Xenippa;-inkscape-font-specification:'Xenippa Medium';text-align:start;letter-spacing:8.04000187px;text-anchor:start"
         id="path8463"
         inkscape:connector-curvature="0" />
      <path
         d="m 1200.9997,1985.4843 q 1.1233,3.0995 4.6214,4.9364 4.6853,1.8224 8.6019,0.4068 -1.9095,-2.8995 -3.527,-4.6735 -7.2897,-3.1037 -9.6963,-0.6697 z m -2.6175,-4.6266 q 1.2499,-1.7412 3.5318,-2.1096 2.251,-0.43 2.8233,-3.0658 0.5722,-2.6358 -0.4427,-6.3672 2.1113,1.0652 2.9733,2.9466 0.8157,1.8659 0.5216,3.6694 -0.325,1.7418 -1.1582,2.8512 6.1486,3.442 10.6043,2.8747 4.4094,-0.5827 10.9453,0.1618 2.5893,0.8651 4.2989,3.1325 1.7713,2.2365 2.1537,6.4762 0.3979,4.1935 -4.1833,8.0597 1.8936,3.7166 2.4475,5.2895 0.6001,1.5882 0.1982,3.0987 -0.6947,1.4641 -2.5604,1.9715 -1.835,0.5691 -4.4705,-0.3114 -1.8339,-0.8183 -2.9577,-3.147 -1.093,-2.2669 -0.6439,-5.1494 0.5108,-2.9133 2.9024,-5.9177 -2.1414,-2.206 -3.9133,-3.5176 -1.7719,-1.3116 -6.5644,-4.0436 l -0.2926,-0.509 q 5.3015,2.4395 7.32,3.7821 2.0648,1.358 4.2061,3.564 1.4503,-1.5714 5.6763,-4.5284 0.3566,-2.9134 -1.6009,-3.3618 -1.9575,-0.4484 -6.352,0.8589 -4.3945,1.3073 -9.5577,-0.4691 4.1734,6.2772 4.5866,10.5786 -1.7874,-1.2654 -5.7961,-0.4973 -3.9932,0.7217 -6.8601,-0.082 -5.4372,-6.6481 -6.7296,-10.3181 -1.3387,-3.6853 -1.1059,-5.9205 z m 31.3275,19.3073 q -5.9994,3.6495 -3.057,6.6885 1.9258,1.7742 3.8991,1.7139 1.9733,-0.06 1.6819,-2.265 -0.2914,-2.2047 -2.524,-6.1374 z"
         style="font-style:normal;font-variant:normal;font-weight:500;font-stretch:normal;font-size:48.75px;font-family:Xenippa;-inkscape-font-specification:'Xenippa Medium';text-align:start;letter-spacing:8.04000187px;text-anchor:start"
         id="path8465"
         inkscape:connector-curvature="0" />
      <path
         d="m 1205.1725,1953.093 q 3.4433,-7.2018 2.4213,-13.83 1.4243,3.877 4.3572,7.6324 2.8937,3.6988 -3.614,8.9547 2.4186,3.3148 5.5008,4.6198 3.0822,1.305 6.6622,0.9664 3.5407,-0.3953 3.4587,-2.3924 l -0.8095,-3.7153 1.2772,0.8769 q 2.4045,5.8395 2.626,8.1593 0.2301,2.2718 1.6806,6.0049 -1.0773,0.7451 -1.896,-1.8322 -0.8579,-2.634 -3.0428,-1.7933 -2.1849,0.8406 -6.0959,0.2765 -3.9502,-0.6208 -10.4024,-3.2832 l 3.4287,7.0172 -1.9486,-0.9994 q -2.7324,-3.7684 -5.1459,-9.0149 1.5054,-2.5502 4.6405,-2.623 -2.0786,-3.0051 -3.0981,-5.0244 z"
         style="font-style:normal;font-variant:normal;font-weight:500;font-stretch:normal;font-size:48.75px;font-family:Xenippa;-inkscape-font-specification:'Xenippa Medium';text-align:start;letter-spacing:8.04000187px;text-anchor:start"
         id="path8467"
         inkscape:connector-curvature="0" />
      <path
         d="m 1207.0916,1933.8853 q 2.0413,-6.9794 5.5916,-8.7621 4.0624,0.7795 5.4163,4.1141 1.3561,3.2859 2.2739,7.5758 4.392,-2.0354 5.7442,-4.8016 1.3521,-2.7662 0.4549,-4.4196 -0.8972,-1.6534 -3.589,-4.5638 l 0.7977,-0.3524 q 5.0919,1.7072 7.7784,10.8645 -1.8837,7.7677 -11.922,9.4849 l -2.0405,-0.195 q -3.4016,-0.3088 -6.0866,-2.3404 -2.6849,-2.0315 -4.4189,-6.6044 z m 3.6448,3.3951 q 1.0712,1.0761 7.2161,0.1492 0.07,-6.5854 -3.4149,-6.166 -3.4852,0.4193 -3.8012,6.0168 z"
         style="font-style:normal;font-variant:normal;font-weight:500;font-stretch:normal;font-size:48.75px;font-family:Xenippa;-inkscape-font-specification:'Xenippa Medium';text-align:start;letter-spacing:8.04000187px;text-anchor:start"
         id="path8469"
         inkscape:connector-curvature="0" />
      <path
         d="m 1209.0987,1914.1356 q -0.2507,-4.1875 3.938,-8.5517 -4.7183,-2.2453 -6.5196,-6.7754 l -0.704,-2.7733 -0.9253,-5.1029 2.715,1.2602 q 0.7456,3.2102 1.6806,6.3534 2.3674,4.819 8.4591,5.0241 4.7723,-0.7959 7.6553,-4.9872 l -4.0524,-3.4838 0.026,-1.2756 3.1401,1.6116 q 4.8821,3.454 6.0988,7.5009 -2.9499,4.0017 -6.8211,5.0059 2.3173,2.2284 10.7213,5.6418 l 1.2892,1.1998 q 1.9521,2.508 5.0271,5.4969 -2.4263,-0.798 -5.2289,-2.9803 -13.0201,-7.6762 -15.9412,-7.4967 -4.026,0.9209 -4.8052,2.5129 -0.7793,1.5921 -0.4838,2.6413 0.2424,1.0054 4.6788,3.3754 l 1.2034,1.8445 q -8.0412,-3.203 -11.151,-6.0418 z"
         style="font-style:normal;font-variant:normal;font-weight:500;font-stretch:normal;font-size:48.75px;font-family:Xenippa;-inkscape-font-specification:'Xenippa Medium';text-align:start;letter-spacing:8.04000187px;text-anchor:start"
         id="path8471"
         inkscape:connector-curvature="0" />
    </g>
    <circle
       style="display:inline;fill:none;fill-opacity:1;fill-rule:nonzero;stroke:#000000;stroke-width:6.0177846;stroke-linecap:butt;stroke-miterlimit:4;stroke-dasharray:none;stroke-dashoffset:0;stroke-opacity:1"
       id="circle8339"
       cx="-567.15802"
       cy="2102.4265"
       r="211.57047"
       transform="matrix(-0.97501629,0.22213338,0.22213338,0.97501629,0,0)" />
    <text
       y="-204.2155"
       x="-1435.8118"
       xml:space="preserve"
       style="font-style:normal;font-weight:normal;font-size:50.10943604px;line-height:125%;font-family:sans-serif;text-align:start;letter-spacing:5.01094341px;word-spacing:0px;text-anchor:start;display:inline;fill:#000000;fill-opacity:1;stroke:none;stroke-width:1px;stroke-linecap:butt;stroke-linejoin:miter;stroke-opacity:1"
       id="text14542-7-6"
       sodipodi:linespacing="125%"
       inkscape:transform-center-x="-37.899759"
       inkscape:transform-center-y="160.68851"
       transform="matrix(0.99998903,0.0046839,-0.0046839,0.99998903,0,0)"><tspan
         style="font-style:normal;font-variant:normal;font-weight:500;font-stretch:normal;font-family:Xenippa;-inkscape-font-specification:'Xenippa Medium'"
         id="tspan8387">QUALIS REX, TALIS GREX</tspan></text>
    <path
       style="display:inline;fill:#000000;fill-opacity:1;stroke:#000000;stroke-width:0.07060795;stroke-opacity:1"
       d="m 413.41395,774.10466 0.34339,-0.0645 -0.0645,-0.34341 c -0.0901,-0.47654 0.0379,-1.41278 0.26756,-1.96365 0.57697,-1.38371 1.67503,-2.28635 3.10704,-2.554 0.76423,-0.14233 1.25596,-0.12585 1.95019,0.0674 0.58755,0.16354 1.43942,0.69019 1.90339,1.17676 0.41295,0.43301 0.87077,1.25961 0.95984,1.73266 l 0.0653,0.34325 8.32679,-1.567 -0.77031,-4.09403 -0.77045,-4.094 -0.3434,0.0645 c -0.43951,0.0815 -1.37905,-0.0302 -1.87825,-0.22545 -0.5347,-0.20927 -1.20131,-0.65798 -1.61517,-1.08731 -1.06399,-1.10374 -1.41472,-2.96745 -0.82469,-4.38244 0.2295,-0.55041 0.68739,-1.21075 1.10946,-1.60004 0.3941,-0.36337 1.22835,-0.81099 1.6678,-0.89278 l 0.3434,-0.0645 -0.0653,-0.34326 c -0.0901,-0.47656 0.0379,-1.4128 0.26755,-1.96365 1.02521,-1.46806 2.27018,-2.24664 4.08804,-0.78698 0.41421,0.42972 0.8733,1.25545 0.96302,1.73206 l 0.0653,0.34325 0.34339,-0.0644 c 0.43951,-0.0815 1.37907,0.0302 1.87824,0.22549 0.53473,0.20923 1.20133,0.65795 1.61519,1.08729 1.06237,1.10202 1.41287,2.95717 0.82712,4.38199 -0.49407,1.20325 -1.69352,2.28494 -2.75968,2.48864 l -0.29472,0.0564 0.77031,4.09403 0.77032,4.09403 4.05931,-0.76394 4.05933,-0.76394 -0.0653,-0.34323 c -0.0901,-0.47657 0.0379,-1.41278 0.26755,-1.96365 0.57899,-1.38859 1.67276,-2.28498 3.12064,-2.55743 1.4479,-0.27226 2.79265,0.16499 3.83678,1.24814 0.41418,0.4297 0.8733,1.25547 0.96302,1.73206 l 0.0653,0.34325 0.34339,-0.0645 c 4.16997,-0.70204 5.09017,4.56894 1.00518,5.32026 l -0.32944,0.0628 0.0645,0.34341 c 0.0894,0.47301 -0.037,1.40954 -0.26438,1.96305 -0.27459,0.6688 -0.86461,1.43382 -1.41046,1.82878 -0.60849,0.44037 -0.97723,0.59726 -1.7419,0.74107 -1.4019,0.26344 -2.77833,-0.19163 -3.80827,-1.26004 -0.4025,-0.41749 -0.87266,-1.25189 -0.9565,-1.69735 l -0.0579,-0.3087 -4.05932,0.76393 -4.0593,0.76395 0.76394,4.05928 0.76393,4.05933 0.29498,-0.0553 c 1.06701,-0.19909 2.57786,0.37391 3.47552,1.31528 1.06119,1.11285 1.40878,2.95998 0.82468,4.38243 -0.50134,1.22101 -1.693,2.28508 -2.79438,2.49519 l -0.32944,0.0629 0.0653,0.34324 c 0.70426,4.19006 -4.64826,4.6741 -5.31853,1.01896 l -0.0645,-0.34337 -0.34341,0.0645 c -0.43951,0.0815 -1.37905,-0.0302 -1.87822,-0.22547 -0.53475,-0.20925 -1.20134,-0.65796 -1.61519,-1.08729 -1.064,-1.10373 -1.41473,-2.96744 -0.82469,-4.38245 0.22949,-0.55038 0.68736,-1.21074 1.10946,-1.60002 0.39407,-0.36338 2.10764,-0.97255 1.66781,-0.89281 l 0.34339,-0.0644 -0.76395,-4.0593 -0.76393,-4.05932 -8.3268,1.56699 0.0579,0.3087 c 0.0834,0.44191 -0.0502,1.3906 -0.2709,1.92836 -0.2746,0.66878 -0.86465,1.43379 -1.41047,1.82878 -0.61024,0.44169 -0.9853,0.6009 -1.74805,0.74227 -1.40305,0.26068 -2.77392,-0.19459 -3.8021,-1.26118 -0.48804,-0.86881 -0.75768,-1.45126 -1.02695,-2.07555 l -0.34338,0.0644 c -3.84526,0.74924 -4.79561,-4.52301 -1.02206,-5.31938 z m 20.24341,-1.31622 c 3.83743,18.82579 2.7778,17.55012 -0.51023,0.078 20.71403,-4.23286 21.6977,-3.55835 0.0779,0.51024 -3.58988,-24.55326 -4.22818,-25.25725 0.51025,-0.0779 -23.87617,3.35879 -23.62408,3.92088 -0.0779,-0.51023 z"
       id="path8400-1"
       inkscape:connector-curvature="0"
       sodipodi:nodetypes="ccssssssccccscsscscsccscscssccccccsssssccccsssssscccccssscccccssssssccccsssscccccccccc" />
    <path
       style="display:inline;fill:#000000;fill-opacity:1;stroke:#000000;stroke-width:0.06927653;stroke-opacity:1"
       d="m 25.883952,771.14865 0.33378,0.0781 0.07815,-0.33378 c 0.107838,-0.46346 0.593568,-1.25318 1.017886,-1.65672 1.065941,-1.01359 2.409105,-1.38896 3.800566,-1.06207 0.742382,0.17491 1.177261,0.38447 1.723914,0.83286 0.462656,0.3795 1.018756,1.18964 1.242532,1.81017 0.199199,0.55223 0.282782,1.47555 0.175386,1.93546 l -0.07731,0.334 8.095202,1.89121 0.929975,-3.98011 0.929833,-3.98015 -0.333778,-0.0781 c -0.426815,-0.10087 -1.225958,-0.57327 -1.596732,-0.94624 -0.397105,-0.39962 -0.817776,-1.06642 -1.019243,-1.61573 -0.517958,-1.41218 -0.09468,-3.22405 0.995385,-4.26054 0.424007,-0.40318 1.096558,-0.8146 1.629609,-0.99688 0.49768,-0.1701 1.423832,-0.2415 1.850705,-0.14093 l 0.333778,0.0781 0.0773,-0.334 c 0.107838,-0.46347 0.593575,-1.25319 1.017874,-1.65672 1.501718,-0.91178 2.92762,-1.11761 3.981333,0.91264 0.20163,0.54978 0.286706,1.47283 0.178476,1.93619 l -0.0773,0.334 0.333779,0.0781 c 0.426814,0.10087 1.225971,0.57329 1.596701,0.94631 0.397142,0.3996 0.817801,1.06639 1.019261,1.61571 0.517187,1.40999 0.09708,3.21409 -0.993019,4.26109 -0.920051,0.88444 -2.425149,1.38038 -3.462869,1.14097 l -0.286907,-0.0661 -0.929975,3.98012 -0.929962,3.98012 3.946425,0.92192 3.946434,0.92196 0.07729,-0.33399 c 0.107852,-0.46349 0.593568,-1.25316 1.017872,-1.65672 1.069691,-1.01715 2.406534,-1.38861 3.814137,-1.05975 1.407542,0.32905 2.441493,1.25414 2.949777,2.63997 0.20161,0.54975 0.286701,1.47284 0.178477,1.93619 l -0.0773,0.334 0.333778,0.0781 c 4.021238,1.02133 2.759687,6.1173 -1.204789,5.17386 l -0.320617,-0.0741 -0.07815,0.3338 c -0.107094,0.45999 -0.591501,1.2506 -1.014782,1.65743 -0.511368,0.4916 -1.343993,0.94464 -1.990401,1.083 -0.72063,0.15431 -1.113764,0.14909 -1.857128,-0.0246 -1.362761,-0.31875 -2.418086,-1.27238 -2.919472,-2.63935 -0.19596,-0.53418 -0.28754,-1.46939 -0.186371,-1.90246 l 0.07029,-0.30004 -3.946434,-0.92195 -3.946412,-0.92192 -0.921932,3.94639 -0.921951,3.94644 0.286681,0.0673 c 1.036654,0.24389 2.165939,1.35662 2.5989,2.55716 0.511834,1.41923 0.0923,3.21499 -0.995385,4.26054 -0.933612,0.89747 -2.424744,1.38069 -3.496618,1.13309 l -0.320615,-0.0741 -0.07729,0.33398 c -1.027292,4.04016 -6.023726,2.35478 -5.177772,-1.19174 l 0.07813,-0.33376 -0.333793,-0.0781 c -0.426815,-0.10087 -1.225958,-0.57327 -1.596699,-0.94624 -0.397151,-0.39964 -0.817809,-1.06642 -1.019261,-1.61573 -0.517978,-1.41217 -0.09469,-3.22404 0.995388,-4.26055 0.423984,-0.40317 1.096527,-0.81459 1.629604,-0.99687 0.497655,-0.1701 2.277109,-0.0382 1.85071,-0.14093 l 0.33378,0.0781 0.921925,-3.94642 0.92195,-3.94643 -8.095214,-1.89122 -0.07029,0.30004 c -0.10014,0.42972 -0.59578,1.22841 -1.006906,1.6237 -0.511363,0.49159 -1.344009,0.94462 -1.990403,1.08301 -0.722721,0.15479 -1.122448,0.14917 -1.863125,-0.026 -1.362703,-0.32169 -2.412961,-1.2733 -2.913485,-2.63794 -0.094,-0.97319 -0.105363,-1.60281 -0.09983,-2.26986 l -0.333765,-0.0781 c -3.74846,-0.85037 -2.513464,-5.95942 1.189284,-5.17976 z m 18.692904,6.83592 c -4.01128,18.41889 -4.45723,16.85411 -0.488903,-0.13206 20.270497,4.40416 20.886349,5.39922 -0.132175,0.48885 6.501871,-23.46214 6.207713,-24.34689 0.488872,0.13221 -22.762837,-6.44115 -22.759163,-5.83675 0.132176,-0.48886 z"
       id="path8400-1-0"
       inkscape:connector-curvature="0"
       sodipodi:nodetypes="ccssssssccccscsscscsccscscssccccccsssssccccsssssscccccssscccccssssssccccsssscccccccccc" />
  </g>
</svg>
