<?xml version="1.0" encoding="UTF-8" standalone="no"?>
<!-- Created with Inkscape (http://www.inkscape.org/) -->

<svg
   xmlns:dc="http://purl.org/dc/elements/1.1/"
   xmlns:cc="http://creativecommons.org/ns#"
   xmlns:rdf="http://www.w3.org/1999/02/22-rdf-syntax-ns#"
   xmlns:svg="http://www.w3.org/2000/svg"
   xmlns="http://www.w3.org/2000/svg"
   xmlns:sodipodi="http://sodipodi.sourceforge.net/DTD/sodipodi-0.dtd"
   xmlns:inkscape="http://www.inkscape.org/namespaces/inkscape"
   width="800mm"
   height="800mm"
   viewBox="0 0 2834.6457 2834.6457"
   id="svg2"
   version="1.1"
   inkscape:version="0.91 r13725"
   sodipodi:docname="seal03.svg"
   inkscape:export-filename="/home/thejoeejoee/projects/rytirskytabor.cz/03.png"
   inkscape:export-xdpi="25.610001"
   inkscape:export-ydpi="25.610001">
  <defs
     id="defs4" />
  <sodipodi:namedview
     id="base"
     pagecolor="#ffffff"
     bordercolor="#666666"
     borderopacity="1.0"
     inkscape:pageopacity="0.0"
     inkscape:pageshadow="2"
     inkscape:zoom="0.35355339"
     inkscape:cx="1185.4959"
     inkscape:cy="1371.1537"
     inkscape:document-units="px"
     inkscape:current-layer="layer1"
     showgrid="false"
     inkscape:window-width="2560"
     inkscape:window-height="1377"
     inkscape:window-x="0"
     inkscape:window-y="30"
     inkscape:window-maximized="1" />
  <metadata
     id="metadata7">
    <rdf:RDF>
      <cc:Work
         rdf:about="">
        <dc:format>image/svg+xml</dc:format>
        <dc:type
           rdf:resource="http://purl.org/dc/dcmitype/StillImage" />
        <dc:title />
      </cc:Work>
    </rdf:RDF>
  </metadata>
  <g
     inkscape:label="Vrstva 1"
     inkscape:groupmode="layer"
     id="layer1"
     transform="translate(0,1782.2835)">
    <path
       style="fill:#000000"
       d=""
       id="path8096"
       inkscape:connector-curvature="0" />
    <path
       style="fill:#000000"
       d=""
       id="path8094"
       inkscape:connector-curvature="0" />
    <path
       style="fill:#000000"
       d=""
       id="path8092"
       inkscape:connector-curvature="0" />
    <path
       style="fill:#000000"
       d="m 1481.809,684.77894 -4.9937,12.70829 -19.2652,-20.56137 -19.2644,-20.56135 -4.24,-16.89376 -4.2403,-16.89374 5.2785,-5.2784 5.2782,-5.27837 23.6667,7.26341 23.6673,7.26341 -0.4448,22.7618 c -0.2478,12.51894 -2.6941,28.48053 -5.4404,35.47008 z m -171.2346,-85.35771 -31.4657,30.32896 -3.7266,-3.72671 c -2.0499,-2.04984 -3.716,-15.40242 -3.7032,-29.67255 l 0,-25.94651 12.5913,-20.65096 c 6.9254,-11.35801 14.856,-20.65095 17.6237,-20.65095 2.7681,0 12.9277,8.99811 22.5777,19.99521 l 17.5451,19.99458 -31.4657,30.32893 z m 199.3612,5.34259 c -3.4948,-0.22878 -14.9323,-3.41219 -25.4165,-7.07598 -10.4844,-3.66381 -25.496,-12.51448 -33.3593,-19.66797 -7.8632,-7.15414 -14.2968,-15.14891 -14.2968,-17.76618 0,-2.61792 7.1484,-13.25473 15.8852,-23.63805 l 15.8855,-18.87878 0,-13.37928 0,-13.37991 -6.3542,0 c -3.4946,0 -6.3541,2.34468 -6.3541,5.2104 0,2.86572 -10.2307,17.16254 -22.7345,31.7707 l -22.735,26.5603 -19.2023,0 -19.2028,0 -21.6041,-21.60407 -21.6041,-21.60408 0,-22.14355 0,-22.14416 14.4506,-9.46888 14.4506,-9.46831 33.2054,-4.56671 33.2054,-4.56674 0,-5.75811 0,-5.75813 -13.1257,0 c -7.2196,0 -18.6569,-2.95976 -25.4164,-6.57716 l -12.2908,-6.57782 0,-15.86629 c 0,-8.72613 4.0468,-25.55126 8.9929,-37.38966 l 8.9936,-21.52401 11.6986,-6.26073 11.6981,-6.26073 25.3758,8.83097 25.3759,8.83035 42.3013,0.0953 42.3022,0.0953 29.7349,-33.07266 29.7354,-33.07266 14.5497,-28.88021 c 8.0024,-15.88407 16.559,-38.17313 19.0141,-49.53114 l 4.465,-20.65096 -9.8907,0 c -5.4405,0 -27.8273,6.67565 -49.7498,14.83437 -21.9218,8.15872 -57.6905,18.54901 -79.4852,23.08967 l -39.6263,8.25467 -9.6184,-7.98207 -9.6175,-7.98208 0,-46.46211 0,-46.46274 9.6168,-46.483078 c 5.29,-25.565242 15.8506,-62.2095747 23.4686,-81.430847 7.6179,-19.221272 24.7347,-52.103954 38.0377,-73.072617 13.3031,-20.968658 29.9064,-50.514138 36.8966,-65.656688 6.9896,-15.14319 12.7089,-32.65076 12.7089,-38.90577 0,-6.25565 -6.098,-25.15985 -13.5513,-42.00913 l -13.5516,-30.63521 -30.8296,-30.02904 -30.8305,-30.02967 -33.4562,-15.80783 c -18.4017,-8.69436 -50.6134,-21.54497 -71.5821,-28.55677 -20.9686,-7.0118 -55.0909,-15.85359 -75.8283,-19.64763 -20.7367,-3.79407 -42.8969,-6.8987 -49.2447,-6.8987 l -11.5409,0 0.2603,11.11975 0.2607,11.11975 18.9055,22.1213 18.9054,22.12067 -11.2208,4.43773 c -6.1717,2.44062 -21.6569,4.63852 -34.4108,4.88442 l -23.1888,0.4448 -33.0478,-22.23948 c -18.176,-12.23174 -35.6202,-22.2395 -38.7634,-22.2395 l -5.7157,0 0,15.88535 0,15.88535 12.7083,12.70828 12.7085,12.70828 11.1196,0.20333 11.1197,0.20333 -17.8284,15.68456 -17.8278,15.68456 -25.9402,0 -25.9401,0 -28.0168,-25.82451 -28.016,-25.82448 -10.6984,2.06064 -10.6978,2.06002 -17.06408,35.59399 -17.06469,35.59399 -17.27247,13.58704 -17.27309,13.58643 -10.26321,0.006 -10.26257,0.006 0,-27.01336 0,-27.0127 -19.06243,-1.80712 -19.06241,-1.80714 -18.54266,35.72044 -18.54329,35.71981 -15.16162,9.9347 -15.1616,9.93405 -19.20539,-0.54645 -19.20476,-0.54645 -14.44741,-9.4664 -14.4474,-9.46641 -10.9609,-23.09856 -10.96089,-23.09794 9.79555,-14.95002 9.79554,-14.95066 20.86636,-4.46315 c 11.47684,-2.4546 24.44055,-7.34221 28.80904,-10.86111 4.36846,-3.51894 7.94267,-8.90788 7.94267,-11.9744 l 0,-5.57321 -14.29681,0.0635 -14.29681,0.0636 -18.20017,9.49244 -18.20016,9.49182 -15.72904,0 -15.72904,0 -11.92672,-14.29683 -11.92736,-14.2968 -0.20968,-26.14793 -0.2097,-26.14602 12.87413,-16.36699 12.87412,-16.36636 11.57978,-3.67524 11.5798,-3.67587 18.43653,9.6151 c 10.13993,5.28791 23.27141,9.63222 29.18139,9.65383 l 10.74485,0.0635 3.92368,-6.34905 3.92369,-6.34905 -22.61121,-13.34115 -22.61121,-13.33989 0,-19.07005 0,-19.07067 21.60407,-21.60408 21.60408,-21.60407 12.98915,0 12.98975,0 16.42482,14.2968 16.42545,14.29683 2.59312,21.15801 2.59313,21.15865 9.79046,14.9424 9.7911,14.94303 17.6124,2.0562 17.61304,2.05557 44.479,-7.74633 c 24.46343,-4.26046 61.63508,-13.33798 82.60378,-20.17249 20.9688,-6.83388 48.1326,-16.8658 60.3644,-22.29223 12.2317,-5.42644 28.356,-14.94939 35.8323,-21.16121 l 13.5928,-11.29574 23.7809,-65.48831 23.781,-65.48831 10.2823,3.98086 c 5.6552,2.18901 17.8023,5.49824 26.9936,7.35427 l 16.7108,3.37343 -3.0259,11.57152 -3.0258,11.57217 25.4115,16.81623 25.4115,16.81686 29.3632,8.83671 29.3624,8.8367 8.6213,-3.30797 8.6212,-3.30861 6.4946,18.62909 6.494,18.62906 14.9138,14.06997 c 8.2032,7.73871 22.162,17.87166 31.0196,22.5178 8.8577,4.6455 26.1346,10.32865 38.3942,12.62885 l 22.2891,4.18103 8.2408,-32.15194 8.24,-32.15196 18.617,18.617 18.6163,18.61636 21.329,7.71265 21.3284,7.71266 7.938,35.54506 c 4.3659,19.54978 15.0752,56.99028 23.7989,83.20111 8.7236,26.21083 27.0991,70.30601 40.835,97.9891 13.7349,27.68308 37.732,69.34972 53.3263,92.59317 l 28.3535,42.25948 17.9892,13.29985 17.9892,13.300485 33.9102,10.070044 33.9107,10.070045 25.8519,-0.06359 c 14.2186,0 36.6525,-3.034745 49.8533,-6.700448 l 24.0022,-6.665489 21.9941,-19.311508 21.9942,-19.31087 12.5952,-40.77832 12.5952,-40.77833 -6.3008,-17.40209 c -3.4656,-9.57124 -9.5109,-23.6984 -13.4345,-31.39453 l -7.1344,-13.9931 -19.0994,-6.65786 c -10.5047,-3.65935 -28.6805,-6.65596 -40.3907,-6.65596 l -21.2914,0 -12.7083,12.70829 c -6.9897,6.98954 -12.7084,15.56764 -12.7084,19.06242 0,3.49477 -2.8185,6.35413 -6.2638,6.35413 l -6.2639,0 -16.8099,-25.40067 -16.8092,-25.40068 3.7978,-23.40357 3.7979,-23.40357 9.162,-9.16204 9.162,-9.16203 33.8041,-11.4438 33.8041,-11.44381 -17.3779,-4.36148 -17.378,-4.36212 -23.4486,4.39898 -23.4482,4.39896 -15.5334,12.21838 -15.5328,12.21837 -8.4648,-7.02513 -8.465,-7.02514 -3.9485,-21.04872 -3.949,-21.04874 4.3932,-13.84058 4.3927,-13.84059 21.4229,-8.95108 21.4236,-8.95169 26.8913,0 26.8915,0 -7.3022,-7.30156 -7.3017,-7.30218 -24.1507,-4.21024 -24.1514,-4.21091 -19.0625,6.03836 c -10.4843,3.32129 -25.1508,11.53593 -32.5929,18.2548 l -13.5305,12.21583 -13.4746,-17.13012 -13.4745,-17.13014 0,-17.85068 0,-17.85131 14.5065,-16.86516 14.5065,-16.86452 29.2189,-3.29336 29.2187,-3.29335 23.4189,7.72854 c 12.8804,4.25091 24.7081,6.43992 26.2839,4.8641 1.5758,-1.57584 -1.4576,-11.15343 -6.7404,-21.28447 l -9.6063,-18.41939 -0.064,-29.76849 -0.064,-29.76853 6.3288,-16.6453 6.3287,-16.64531 -26.9536,-38.22078 -26.9542,-38.22079 0,-42.9095 0,-42.90948 12.144,-22.58583 12.1447,-22.58573 48.2196,-47.10453 c 26.5216,-25.90705 61.6162,-58.00574 77.9895,-71.33019 l 29.7684,-24.22649 9.9449,-20.9574 9.9443,-20.9565 0,-19.9876 0,-19.9869 15.5823,11.4166 15.583,11.4157 7.8846,18.5776 7.8856,18.5776 -0.5974,20.9999 -0.5972,20.9996 -13.814,28.53593 -13.8138,28.53572 -32.8858,23.75825 c -18.0878,13.06661 -39.0984,30.21776 -46.6903,38.11396 -7.5919,7.89569 -15.7163,20.3822 -18.0541,27.74793 -2.3376,7.36573 -2.8968,14.74539 -1.2421,16.40004 1.6545,1.65458 15.4977,-8.3557 30.7622,-22.24519 15.2652,-13.8902 38.5557,-32.58279 51.7577,-41.53964 13.202,-8.95735 32.3546,-20.60446 42.562,-25.88291 l 18.5585,-9.59728 17.289,-22.66649 17.2882,-22.66641 7.9505,-42.30731 7.9502,-42.3064 -3.0461,-4.9289 -3.0481,-4.9289 5.1404,0.064 c 2.827,0 11.395,9.3172 19.039,20.6511 l 13.8991,20.6076 7.6421,30.7223 7.6426,30.72231 -7.4247,33.17945 -7.4255,33.17936 -19.6355,23.82104 -19.635,23.82041 -49.9517,29.02375 c -27.4728,15.96354 -53.1881,32.92404 -57.1443,37.69087 l -7.1933,8.66704 3.8709,10.08721 3.871,10.08656 16.759,-13.18294 c 9.2179,-7.25008 18.9824,-13.18293 21.6987,-13.18293 2.7164,0 24.9477,-11.53529 49.4029,-25.63514 l 44.4636,-25.63513 22.6228,-25.80798 22.6225,-25.8086 10.9444,-24.80599 c 6.0193,-13.64346 12.9066,-24.80647 15.3046,-24.80647 2.3987,0 7.9771,8.73187 12.3976,19.4036 4.4205,10.67181 8.8405,29.52451 9.8222,41.89535 l 1.7843,22.49245 -11.6014,27.06542 -11.6015,27.06552 -21.2774,24.2988 -21.2774,24.29886 -36.9914,23.9494 -36.9913,23.94874 -23.373,7.13952 c -12.855,3.92686 -29.0918,9.61509 -36.0812,12.64029 -6.9898,3.02521 -25.8392,11.04412 -41.8872,17.81892 l -29.1795,12.3175 -13.711,19.25622 -13.7115,19.25559 0,29.57598 0,29.57662 5.8654,-3.62504 c 3.226,-1.99393 7.6905,-11.93498 9.9213,-22.09207 l 4.0559,-18.46705 10.7823,-11.64204 c 5.9304,-6.4037 16.6956,-16.63959 23.9227,-22.74783 l 13.1397,-11.10513 29.3251,-5.47854 29.3242,-5.47854 32.971,5.21166 32.9711,5.21231 21.1326,14.47982 21.132,14.48044 11.3535,25.17701 11.3536,25.17702 -1.0085,26.04435 -1.0076,26.04497 -13.9671,23.67236 -13.967,23.67234 -12.8698,6.8879 c -7.0784,3.7877 -20.5974,9.10357 -30.0429,11.81234 l -17.1739,4.92573 2.9991,-31.21599 2.9998,-31.21535 -11.0156,-12.17198 -11.0155,-12.172 -17.2998,-3.79978 -17.2992,-3.79978 -16.9864,6.45836 -16.9865,6.45835 -13.1125,20.80917 -13.1131,20.80917 2.8983,34.94779 2.8974,34.94775 26.2305,45.34569 26.2299,45.34506 15.7526,46.31405 15.7525,46.31406 -0.095,35.42369 -0.095,35.42306 -9.7833,28.09739 c -5.3813,15.45389 -16.0213,36.89912 -23.6445,47.656044 -7.623,10.757557 -21.623,27.187459 -31.1104,36.510882 -9.4882,9.324072 -29.5449,25.320619 -44.5712,35.548876 l -27.3196,18.59729768 -31.3138,10.51864232 -31.3145,10.51801 -32.227,0.06349 -32.2276,0.06357 -41.3018,-13.9829326 -41.302,-13.9835544 -36.4645,-24.205471 c -20.0555,-13.313194 -37.9266,-24.206092 -39.7133,-24.206092 -1.7868,0 -3.2501,6.433563 -3.252,14.296814 0,7.863244 -5.7836,29.505452 -12.8488,48.0938488 -7.0651,18.5890482 -17.6277,41.0954152 -23.4721,50.0153592 l -10.6261,16.217664 11.6497,8.518365 11.6497,8.518358 29.299,-3.4503 c 16.1147,-1.897981 60.2854,-9.280231 98.1574,-16.405758 l 68.8574,-12.955458 25.391,3.405827 c 13.9645,1.8732 26.6639,4.679185 28.2206,6.23532 1.5562,1.556767 0,10.269559 -3.4553,19.361696 l -6.285,16.530931 -26.881,16.96937 c -14.7843,9.33295 -37.0556,19.74359 -49.4912,23.13542 -12.4358,3.39121 -26.1848,9.0788 -30.5533,12.63775 -4.3684,3.5596 -7.9426,9.30374 -7.9426,12.76484 l 0,6.29313 44.4789,-2.51307 c 24.4635,-1.38264 44.4791,-1.37948 44.4791,0 0,1.38585 -6.1731,13.50257 -13.7174,26.92632 l -13.718,24.40752 -22.8183,8.95871 c -12.5506,4.927 -37.8306,12.48969 -56.1782,16.80479 l -33.3593,7.84672 0,12.07414 0,12.07477 41.3018,0 41.3021,0 0,8.51011 0,8.5101 -21.5254,19.5879 -21.5252,19.58727 -24.5421,6.81482 c -13.4982,3.74767 -31.6908,6.92156 -40.4278,7.05181 l -15.8852,0.23512 -11.9935,9.08008 -11.9941,9.08068 8.2464,19.90817 8.2464,19.90879 -0.934,23.842 -0.9341,23.84264 -10.4316,24.80522 -10.4316,24.80467 -7.1263,-12.03412 c -3.9196,-6.61909 -13.0703,-19.20411 -20.3344,-27.96709 l -13.207,-15.93293 -17.1994,4.31637 -17.1988,4.31701 -5.3998,14.20207 c -2.97,7.81114 -7.1636,32.14559 -9.3196,54.07626 l -3.9204,39.87479 -9.8141,14.97798 -9.8134,14.97733 -14.0011,3.75403 c -7.7,2.0651 -16.8603,3.56723 -20.3551,3.33911 z m -208.0981,-195.43741 -30.1822,2.31669 0,-9.75168 c 0,-5.36353 4.4625,-16.12299 9.917,-23.91063 l 9.9169,-14.15829 18.3608,-9.495 c 10.0987,-5.22182 23.5828,-9.49499 29.965,-9.49499 l 11.6031,0 -2.4012,25.1732 -2.4004,25.1732 -7.2985,5.91571 -7.2983,5.9157 -30.1822,2.31609 z m -463.68003,-115.32703 -4.93781,0 -0.70339,-17.47388 c -0.38761,-9.61062 -0.0953,-24.6223 0.64685,-33.35923 0.7428,-8.73694 4.019,-20.88924 7.2812,-27.0051 3.26158,-6.11587 8.73124,-11.11974 12.15484,-11.11974 l 6.22389,0 12.59136,20.65095 c 6.92474,11.35802 12.60152,22.95687 12.61487,25.77493 0,2.81807 -9.19189,13.54067 -20.45524,23.82803 -11.26272,10.28735 -22.70018,18.70404 -25.41657,18.70404 z m 114.32687,-38.12484 -19.27464,0 -21.40138,-22.6919 -21.40138,-22.69189 0,-18.17731 0,-18.1773 17.47388,-12.21391 c 9.61063,-6.71824 25.2361,-14.0903 34.72347,-16.38288 l 17.24958,-4.16831 -3.63266,-9.46639 -3.63266,-9.46705 -14.42962,0 c -7.93632,0 -24.69472,4.28905 -37.24098,9.53122 -12.54625,5.24216 -25.68915,9.5312 -29.20617,9.5312 l -6.3948,0 -9.69451,-18.74662 -9.69452,-18.74661 0,-19.694028 0,-19.693385 9.69452,-18.746619 9.69451,-18.747253 18.04195,0 18.04257,0 16.15604,12.708279 16.15604,12.708272 16.4712,0 c 9.05972,0 16.47183,-1.75565 16.47183,-3.902068 0,-2.146435 -11.88796,-14.451863 -26.4186,-27.346319 l -26.41797,-23.444242 4.19372,-16.71075 4.19438,-16.710747 17.67339,-12.584382 17.67278,-12.584374 22.636,-4.246467 22.63599,-4.246476 10.499,10.498946 c 5.7745,5.774641 11.6585,16.732996 13.0755,24.352245 1.4169,7.618616 4.9949,25.0156132 7.9522,38.6598607 l 5.3762,24.8078313 16.9643,12.588825 16.9642,12.588828 106.9415,7.543003 c 58.8178,4.148596 108.03,6.723304 109.3606,5.721889 1.3311,-1.001397 -1.0389,-14.075686 -5.2658,-29.053663 -4.2267,-14.978617 -16.1871,-60.116525 -26.5786,-100.306458 l -18.8934,-73.072608 2.0231,-45.66531 2.0232,-45.6653 15.3681,-16.35873 15.368,-16.35874 24.8245,-6.68455 24.8236,-6.68455 31.3989,6.73412 c 17.2687,3.70318 42.0264,12.1847 55.0162,18.84702 12.9904,6.66294 45.8165,31.09398 72.9475,54.29231 l 49.329,42.17814 -7.4292,14.03693 c -4.0858,7.72091 -14.7309,24.04471 -23.6552,36.276429 -8.9245,12.231713 -16.8723,23.245983 -17.6614,24.476143 -0.7892,1.23016 -7.9744,-2.344038 -15.9674,-7.942678 l -14.5331,-10.179329 -17.3499,0 c -9.5421,0 -24.4394,3.230443 -33.1044,7.178906 l -15.7546,7.178276 -7.6974,18.582684 -7.6968,18.582677 4.2288,65.415243 4.2292,65.415237 -7.2755,34.318072 c -4.0017,18.87434 -12.5163,44.68041 -18.9225,57.34677 l -11.6466,23.02866 -19.8287,16.6847 -19.828,16.68408 -8.6589,0 -8.6581,0 1.2035,-26.76936 1.2028,-26.77 -11.05,-2.27605 -11.0497,-2.27669 -6.7736,14.86615 -6.7728,14.86551 -20.3021,13.7656 c -11.1655,7.57097 -28.6349,15.80974 -38.82,18.30882 l -18.5184,4.54258 5.4054,-12.07096 c 2.9736,-6.63881 5.5885,-23.44552 5.8108,-37.34837 l 0.4068,-25.27741 -9.5313,-1.82999 -9.5312,-1.82935 -12.7083,19.12596 c -6.9895,10.51864 -20.735,25.06772 -30.5449,32.33114 l -17.8361,13.20518 -22.5249,3.65554 -22.5242,3.65488 10.1788,-19.68322 10.1787,-19.68322 0,-16.20114 0,-16.20116 -18.4041,0 -18.4042,0 -18.1321,22.20074 c -9.9729,12.2101 -26.27696,32.22565 -36.232,44.47897 l -18.09977,22.27825 -19.27464,0 z m -178.04047,-137.59955 -36.5363,3.24445 0,-8.14411 c 0,-4.47904 7.14652,-15.85485 15.8809,-25.279316 l 15.88026,-17.135844 22.52416,-9.411116 22.52353,-9.411124 5.02231,3.104007 5.02168,3.103367 1.01539,25.905819 1.01475,25.905847 -7.90519,2.43679 c -4.34751,1.34009 -24.34652,3.89637 -44.44149,5.68123 z m 128.67134,-167.976767 -9.5312,5.561782 -31.13402,-17.891987 -31.13402,-17.891989 21.60281,-13.16959 c 11.8816,-7.243729 25.11919,-13.181029 29.41712,-13.193729 4.2973,0 19.30897,4.57561 33.35925,10.197111 14.04962,5.62151 25.5449,11.596949 25.5449,13.278253 0,1.681934 -6.43356,8.567917 -14.29682,15.302677 -7.86323,6.735389 -18.58585,14.748589 -23.82802,17.807472 z M 705.6476,-125.37388 c -2.47812,0 -6.24105,-4.52286 -8.36205,-10.05033 -2.12164,-5.52811 -3.85697,-20.013 -3.85697,-32.1888 l 0,-22.1372 6.57781,-12.29082 c 3.61742,-6.75951 8.6213,-12.29016 11.11974,-12.29016 2.49782,0 12.35372,9.79045 21.90146,21.75657 l 17.35887,21.75594 -20.11658,22.72241 c -11.06446,12.49732 -22.1448,22.72239 -24.62228,22.72239 z m -112.29673,-149.60821 -14.2968,4.31953 0,-7.19986 c 0,-3.95991 3.20247,-13.44601 7.11662,-21.07924 3.91416,-7.63323 15.91269,-23.17227 26.66325,-34.5303 l 19.54597,-20.65096 10.14947,0 10.14883,0 6.90377,25.86453 6.90314,25.86391 -15.53524,5.9068 c -8.54504,3.24823 -19.06687,5.90617 -23.38259,5.90617 -4.31573,0 -10.56311,2.53848 -13.88316,5.64057 -3.32005,3.10145 -12.46999,7.58366 -20.33326,9.95885 z m 139.79109,-207.02425 c -2.62108,-0.43844 -17.63273,-5.13415 -33.35923,-10.42968 -15.72649,-5.29491 -29.76725,-10.63556 -31.202,-11.86762 -1.43477,-1.23208 2.60456,-8.00114 8.97713,-15.0428 l 11.5855,-12.80169 24.40116,-7.31108 24.40053,-7.31044 16.35747,7.45341 16.3581,7.45277 -16.37652,19.46274 c -9.007,10.70417 -16.37653,22.10223 -16.37653,25.32887 0,3.22664 -2.14453,5.50586 -4.76561,5.06552 z m 736.39144,0.33677 c -5.7371,-0.25417 -18.3971,-5.56878 -28.1335,-11.80663 -9.7366,-6.23849 -21.7979,-16.75205 -26.8032,-23.36354 l -9.1003,-12.02203 -0.2034,-19.1679 -0.2032,-19.16853 -37.2296,0 -37.2302,0 -23.1341,-12.45857 c -12.7241,-6.85229 -23.1348,-14.49951 -23.1348,-16.99287 0,-2.49401 2.8593,-6.30141 6.3542,-8.46181 3.4948,-2.15979 6.3541,-7.77874 6.3541,-12.48653 l 0,-8.56029 -31.6508,-4.35322 -31.651,-4.35259 -16.132,-12.68986 c -8.8729,-6.97938 -20.4641,-21.06651 -25.7591,-31.30494 l -9.6258,-18.61571 8.1645,-2.50291 c 4.491,-1.37694 17.8843,-5.61452 29.7641,-9.41746 11.8796,-3.80233 31.1804,-6.91394 42.8903,-6.91394 11.7107,0 21.2915,-1.54915 21.2915,-3.44268 0,-1.89353 -5.4512,-9.29357 -12.1136,-16.44516 -6.6622,-7.15094 -13.4535,-18.12581 -15.091,-24.38782 l -2.9776,-11.38534 48.4503,-7.73935 c 26.648,-4.25664 57.5648,-10.48179 68.7043,-13.83296 11.14,-3.35181 27.7771,-12.01127 36.9721,-19.24415 l 16.7184,-13.15057 26.5691,3.53042 26.5693,3.53032 46.7702,-5.24468 46.7709,-5.24467 9.697,-9.69777 9.6972,-9.69704 -3.948,-10.28671 -3.9471,-10.2867 -19.4043,14.34576 -19.4042,14.34639 -98.0971,1.62532 -98.0966,1.62539 -15.809,-14.12016 -15.8091,-14.12014 -1.8142,-19.06243 -1.8135,-19.0624 52.2743,-3.17715 52.275,-3.17697 12.855,-11.05745 12.8557,-11.05754 0,-15.49325 0,-15.49395 -10.5174,-10.51746 c -5.7842,-5.7841 -17.5699,-13.19883 -26.1904,-16.47629 l -15.6733,-5.9588 -37.286,1.47284 -37.2868,1.47234 -6.5059,-6.5067 -6.5067,-6.50669 -0.7523,-33.3846 -0.7517,-33.3847 7.5042,-7.5118 7.5043,-7.5119 55.675,-2.1756 55.6744,-2.1757 17.4553,22.8851 17.4561,22.8856 24.7953,12.6499 24.795,12.6491 18.8878,0 18.8869,0 4.237,-13.3474 4.2362,-13.3482 -6.891,-6.8904 -6.8904,-6.8911 -39.8081,-2.82 -39.808,-2.8205 -4.6684,-7.123 c -2.5677,-3.918 -4.7122,-17.4026 -4.7656,-29.9667 l -0.095,-22.8432 11.6198,-10.5162 11.6205,-10.516 50.7892,0 50.7893,0 30.7374,10.4735 30.7371,10.473 31.5666,-8.0902 c 17.3621,-4.4498 38.6777,-8.0907 47.3676,-8.0907 l 15.8002,0 5.5338,8.7368 c 3.0435,4.8058 5.5783,16.2413 5.6316,25.4121 0.064,9.1716 -4.0755,28.5016 -9.1745,42.956 l -9.2726,26.2801 18.8036,27.8616 c 10.3415,15.32377 18.8031,30.11864 18.8031,32.87641 0,2.75829 6.1185,17.65427 13.5968,33.10245 l 13.5966,28.08727 -6.1559,4.10088 c -3.3861,2.25584 -14.3192,10.64447 -24.2951,18.64241 l -18.1398,14.5409 10.7303,29.93816 10.7302,29.93746 -0.064,19.9717 0,19.97111 -10.051,3.85695 c -5.5274,2.12101 -18.7001,3.85632 -29.2728,3.85632 l -19.2225,0 4.7216,11.11976 c 2.5972,6.11586 9.0229,25.88295 14.2804,43.9268 l 9.5579,32.80643 -3.8697,10.08401 -3.869,10.08341 -25.6448,0 -25.6439,0 1.6165,46.06751 1.6171,46.06751 -25.4166,-0.71484 c -13.9791,-0.39396 -32.1755,-2.95658 -40.437,-5.69587 l -15.02,-4.981 4.5838,15.22706 c 2.5213,8.3754 12.8112,31.66841 22.8667,51.76337 l 18.2822,36.53631 -24.3669,0 -24.3663,0 -24.7816,-18.13217 c -13.6297,-9.9722 -30.2281,-24.26901 -36.886,-31.7707 -6.6571,-7.50107 -15.6216,-13.63854 -19.92,-13.63854 l -7.8157,0 -9.9747,15.22389 c -5.4862,8.37285 -11.8435,22.66966 -14.1279,31.77071 l -4.153,16.54681 -10.431,-0.46385 z m -470.38171,-25.19416 c -2.14579,-0.13344 -6.76081,-3.70701 -10.25559,-7.94269 -3.49478,-4.23565 -9.70595,-14.84962 -13.80246,-23.58656 -4.09652,-8.73695 -9.04892,-23.32479 -11.00473,-32.41819 l -3.55642,-16.53283 8.87165,-34.1999 8.87102,-34.19988 -3.00679,-4.866 c -1.65461,-2.67573 -5.94237,-4.86599 -9.5293,-4.86599 -3.58627,0 -15.38145,10.00776 -26.21019,22.23947 l -19.68958,22.23949 -7.6383,0 -7.63767,0 -10.30451,-21.71399 -10.30388,-21.71401 3.79024,-23.84963 c 2.0848,-13.11749 7.70439,-29.82251 12.4878,-37.12342 l 8.69691,-13.27318 -4.4962,-6.69726 -4.49554,-6.69726 -35.99557,-0.6837 -35.99621,-0.68308 -16.71457,-10.95136 -16.71456,-10.952 1.95518,-10.15201 1.95515,-10.15137 33.51746,-12.04874 33.51747,-12.04869 -2.33578,-7.06198 -2.33644,-7.06199 -55.63495,-4.27634 -55.63494,-4.27634 -11.80027,-10.67941 -11.80027,-10.67876 -4.03742,-18.38195 -4.03742,-18.38122 7.24689,-21.95795 7.2469,-21.95804 12.86777,-4.08443 12.86841,-4.08382 21.68668,4.06851 21.6873,4.06859 0,-5.44423 c 0,-2.99406 -5.71873,-11.58239 -12.70827,-19.08458 l -12.70827,-13.64062 0,-18.66963 0,-18.6703 22.4606,-19.7207 22.46062,-19.7208 14.07569,0.1398 14.0757,0.1397 13.55337,10.9788 c 7.45403,6.0384 16.74697,17.224 20.65096,24.8574 3.90334,7.6332 7.09758,20.0238 7.09758,27.53435 l 0,13.65563 7.94268,-2.61976 7.94266,-2.62041 1.90751,-36.09661 1.90753,-36.0965 15.5384,-10.1814 15.53842,-10.181 20.67891,4.09 c 11.37328,2.2493 26.39764,8.4116 33.3872,13.6937 l 12.70825,9.6044 -0.01,33.086 0,33.08538 -17.57679,43.23089 -17.57683,43.23057 8.66769,33.19337 8.66832,33.19331 15.97871,25.24253 c 8.7891,13.88314 26.6703,38.10893 39.7376,53.83542 13.0667,15.72649 39.4402,45.01845 58.6075,65.09309 19.1665,20.07463 43.494,43.26535 54.0597,51.53462 l 19.2111,15.03453 -12.2274,27.89276 c -6.725,15.34082 -15.985,41.47412 -20.5778,58.0743 l -8.3506,30.18217 -15.668,0 -15.6674,0 -17.1562,-10.13422 -17.1562,-10.13421 -15.3434,-22.392 -15.3427,-22.39135 -2.5467,8.69819 c -1.4011,4.78338 -9.7663,19.42015 -18.5904,32.52556 -8.8232,13.10543 -17.7985,23.71938 -19.94429,23.58657 z m -370.71198,-336.52796 -11.89241,0 5.08141,-8.68294 c 2.79455,-4.77643 15.08917,-21.66193 27.32089,-37.52437 12.23173,-15.86181 27.29293,-32.02492 33.46981,-35.91796 l 11.2303,-7.07798 6.506,17.11167 6.506,17.11239 -3.8436,17.49864 -3.843,17.49928 -29.32181,9.99068 c -16.12682,5.49503 -34.67328,9.99059 -41.21359,9.99059 z m 568.68089,-51.57022 c -16.67,-0.40672 -36.0273,-2.16867 -43.0169,-3.91855 -6.9895,-1.74998 -20.6146,-8.79232 -30.2781,-15.64975 l -17.5698,-12.46683 -9.4353,-18.24592 -9.4352,-18.24591 0,-18.60222 0,-18.60171 10.1405,-24.604 c 5.5771,-13.5324 16.083,-31.038 23.3471,-38.9013 l 13.2064,-14.2968 7.9955,0 7.9953,0 4.8641,14.2968 c 2.6758,7.8633 4.2426,16.6079 3.4828,19.4316 -0.76,2.8243 3.1147,14.6108 8.6105,26.193 l 9.9924,21.05768 25.857,11.65983 25.8568,11.65983 78.7717,-1.4735 78.7724,-1.47289 12.5842,6.73465 12.5845,6.73473 0,12.26108 0,12.26161 -11.2317,6.01104 -11.2314,6.01028 -41.1902,0 -41.1901,0.064 -39.587,16.42026 -39.5875,16.42044 -30.308,-0.73706 z m -430.07422,-151.76229 -7.43053,0 -27.93153,-28.4602 c -15.3624,-15.6534 -26.65434,-29.7381 -25.09251,-31.2999 1.56186,-1.5618 15.36178,-4.092 30.66699,-5.622 l 27.82669,-2.7833 21.77373,6.6828 21.77438,6.6827 6.19465,11.5746 6.19465,11.5747 -14.81405,5.6323 c -8.14726,3.0976 -18.62016,10.2192 -23.27267,15.8256 -4.65314,5.6063 -11.80346,10.1927 -15.8898,10.1927 z m 221.84972,-40.3081 c -10.48432,0.5464 -24.06631,-0.3814 -30.18217,-2.0544 l -11.11973,-3.048 0.28593,-20.1853 0.28593,-20.1851 7.65611,-17.8786 7.65611,-17.8786 21.24951,18.9798 21.24951,18.9803 0.99,21.1384 0.9899,21.1377 -19.06237,0.9938 z"
       id="path8129"
       inkscape:connector-curvature="0" />
    <circle
       style="fill:none;fill-opacity:1;fill-rule:nonzero;stroke:#000000;stroke-width:38.665;stroke-linecap:butt;stroke-linejoin:round;stroke-miterlimit:4;stroke-dasharray:none;stroke-dashoffset:0;stroke-opacity:1"
       id="path8131"
       cx="1417.3229"
       cy="-364.96072"
       r="1386.5006" />
    <circle
       style="fill:none;fill-opacity:1;fill-rule:nonzero;stroke:#000000;stroke-width:33.36603165;stroke-linecap:butt;stroke-linejoin:round;stroke-miterlimit:4;stroke-dasharray:none;stroke-dashoffset:0;stroke-opacity:1"
       id="path8131-3"
       cx="1417.3229"
       cy="-364.96066"
       r="1151.3118" />
    <path
       style="fill:none;fill-opacity:1;fill-rule:nonzero;stroke:#000000;stroke-width:120.71399689;stroke-linecap:butt;stroke-linejoin:miter;stroke-miterlimit:3.9000001;stroke-dasharray:60.35699844, 60.35699844;stroke-dashoffset:0;stroke-opacity:1"
       d="M 2684.1387,-364.96066 A 1266.8158,1266.8158 0 0 1 1417.3229,901.85513 1266.8158,1266.8158 0 0 1 150.50708,-364.96066 1266.8158,1266.8158 0 0 1 1417.3229,-1631.7765 1266.8158,1266.8158 0 0 1 2684.1387,-364.96066 Z"
       id="path8131-3-6" />
  </g>
</svg>
