<?xml version="1.0" encoding="UTF-8" standalone="no"?>
<!-- Created with Inkscape (http://www.inkscape.org/) -->

<svg
   xmlns:dc="http://purl.org/dc/elements/1.1/"
   xmlns:cc="http://creativecommons.org/ns#"
   xmlns:rdf="http://www.w3.org/1999/02/22-rdf-syntax-ns#"
   xmlns:svg="http://www.w3.org/2000/svg"
   xmlns="http://www.w3.org/2000/svg"
   xmlns:sodipodi="http://sodipodi.sourceforge.net/DTD/sodipodi-0.dtd"
   xmlns:inkscape="http://www.inkscape.org/namespaces/inkscape"
   id="svg18366"
   version="1.1"
   inkscape:version="0.91 r13725"
   width="535"
   height="537.5"
   viewBox="0 0 535 537.5"
   sodipodi:docname="seal04.svg"
   inkscape:export-filename="/home/thejoeejoee/projects/rytirskytabor.cz/01.png"
   inkscape:export-xdpi="25"
   inkscape:export-ydpi="25">
  <metadata
     id="metadata18372">
    <rdf:RDF>
      <cc:Work
         rdf:about="">
        <dc:format>image/svg+xml</dc:format>
        <dc:type
           rdf:resource="http://purl.org/dc/dcmitype/StillImage" />
        <dc:title></dc:title>
      </cc:Work>
    </rdf:RDF>
  </metadata>
  <defs
     id="defs18370" />
  <sodipodi:namedview
     pagecolor="#ffffff"
     bordercolor="#666666"
     borderopacity="1"
     objecttolerance="10"
     gridtolerance="10"
     guidetolerance="10"
     inkscape:pageopacity="0"
     inkscape:pageshadow="2"
     inkscape:window-width="2560"
     inkscape:window-height="1377"
     id="namedview18368"
     showgrid="false"
     inkscape:zoom="1.7562791"
     inkscape:cx="230.99882"
     inkscape:cy="264.41426"
     inkscape:window-x="0"
     inkscape:window-y="30"
     inkscape:window-maximized="1"
     inkscape:current-layer="svg18366" />
  <path
     sodipodi:type="inkscape:offset"
     inkscape:radius="0"
     inkscape:original="M 262.93945 2.046875 C 243.93192 1.731139 225.06812 4.887433 206.27344 7.859375 C 202.12397 7.891379 198.68088 11.241873 194.38867 11.666016 C 165.48495 19.726842 138.87126 33.5773 113.78711 49.787109 C 109.18205 52.188469 106.17311 56.924499 101.52344 59.533203 C 97.778305 63.114148 91.692612 65.841926 91.138672 71.332031 C 89.897749 74.379189 86.5064 71.687821 85.232422 73.6875 C 73.074803 86.053079 59.574031 98.35696 51.183594 113.63867 C 51.763024 117.33327 47.782792 119.7009 45.859375 121.87891 C 44.958146 125.97779 41.092715 128.02836 40.230469 132.01953 C 37.575713 135.99619 35.165173 140.07595 33.164062 144.33008 C 25.313399 152.60386 22.512635 164.31753 17.953125 174.52539 C 2.2006832 216.80584 -0.9000923 262.77809 4.3378906 307.23242 C 7.8230733 335.10029 17.607169 361.93251 29.070312 387.39844 C 33.786598 385.78412 33.806491 392.94733 35.277344 395.56445 C 36.912849 401.00914 41.692394 404.66197 43.927734 409.62891 C 43.022095 412.224 44.905108 416.11974 47.949219 415.7207 C 51.051755 417.34667 49.666527 421.85202 52.923828 423.08203 C 61.823192 434.28233 70.262265 446.10012 81.34375 455.24805 C 81.141761 459.50633 86.94008 462.01834 89.369141 465.41797 C 98.224304 474.93013 108.81292 482.32575 119.8457 489.05469 C 136.25556 500.36169 154.08119 509.51364 172.48438 516.74414 C 173.91183 519.33927 178.09778 518.11751 180.58789 519.64844 C 195.24564 525.66067 211.18279 528.05318 226.69922 530.69727 C 244.12727 533.35152 261.4168 536.69065 279.04492 535.03125 C 331.30287 531.23712 379.9411 507.81272 423.38477 479.78906 C 431.96022 474.40352 440.04557 467.74527 448.91602 463.12695 C 450.54605 465.04293 449.76282 461.16064 452.59766 460.08984 C 454.92323 458.57924 455.69843 454.84321 458.78906 453.98438 C 460.94616 449.6723 465.82408 447.14347 468.40039 442.9668 C 473.58416 436.34307 480.59645 429.39038 484.25586 422.57031 C 482.45622 418.48952 487.87964 415.35627 490.06641 413.18359 C 492.1838 408.00217 496.32242 403.70987 498.40039 398.36719 C 500.68926 392.69652 505.36244 388.57976 507.00977 382.73828 C 512.50782 373.28519 515.25403 362.81174 518.68555 352.67383 C 523.40451 349.2319 523.35946 342.16312 525.28125 336.84766 C 527.49759 328.24749 529.13289 319.39081 528.67383 310.54492 C 531.96567 307.82066 529.6129 302.17247 531.06641 298.10938 C 534.48277 281.64177 532.63546 264.52158 532.5918 247.85352 C 532.5878 241.52312 531.8614 235.24416 530.04102 229.19531 C 529.98282 219.32995 525.91465 209.98892 524.91797 200.21094 C 513.25617 155.92016 490.63543 113.99048 457.0293 82.404297 C 453.79877 79.041322 449.98635 75.847028 448.49219 71.566406 C 442.43222 66.768523 436.37491 61.815354 430.56055 56.625 C 426.57035 55.119576 425.18251 50.51408 420.93945 49.462891 C 410.43371 43.204456 400.7269 35.685387 389.43945 30.794922 C 384.07068 26.585967 376.5904 26.157302 371.7207 21.189453 C 360.06141 16.343583 347.3317 13.981678 335.43555 10.140625 C 333.87789 7.2080839 328.898 9.1307003 326.00977 7.7539062 C 305.20249 3.5593202 284.07373 1.895617 262.93945 2.046875 z M 267.26562 14.244141 C 294.90492 13.965162 322.58505 17.293786 349.44531 23.726562 C 362.14802 28.756525 374.89556 33.934842 386.99609 40.207031 C 393.7017 43.159923 399.6287 47.713115 406.55664 50.355469 C 419.23183 57.047668 429.29556 67.713415 441.28711 75.501953 C 450.12212 83.487276 459.82806 90.612832 467.79297 99.515625 C 469.11616 101.42472 469.36842 103.21979 471.80078 103.66797 C 479.13602 109.90279 485.63957 117.7209 489.46484 126.59961 C 489.51154 129.62355 493.05528 130.81276 493.79297 133.76953 C 500.3079 145.46831 506.73187 157.40506 511.16992 170 C 516.83708 177.28934 516.5697 187.30325 519.70117 195.74414 C 520.82077 201.22186 522.31882 206.54175 524.35938 211.67383 C 525.16606 218.17103 524.55676 224.94365 527.52539 230.98828 C 528.80671 239.23077 529.23128 247.44796 530.48242 255.74805 C 530.59473 272.54684 527.36988 289.08506 526.51758 305.81641 C 525.19758 312.38475 526.20583 320.1566 522.25781 325.86328 C 517.93599 328.36108 517.98707 321.53457 518.48242 318.98633 C 518.93941 316.66025 517.41941 312.49337 514.71289 315.37891 C 508.41532 318.68253 500.61987 317.08944 493.74414 317.27148 C 486.57875 317.20678 479.98928 313.78704 472.72266 314.82422 C 466.82566 315.26073 461.52004 311.54295 455.84766 311.66016 C 450.16012 318.257 453.3801 329.23789 447.11719 335.72461 C 446.09363 341.70215 440.72328 347.31824 441.86719 353.28711 C 445.24756 354.57009 444.53784 359.96109 448.98438 359.94922 C 452.58853 361.8144 457.8449 363.17305 461.26562 360.91992 C 459.7244 354.06382 450.37351 350.28553 452.30664 342.29492 C 453.62929 336.72433 453.60032 330.13944 457.10938 325.43945 C 461.51178 323.482 466.61104 326.47716 471.29688 325.94727 C 483.14641 327.41547 495.71301 325.52655 507.13086 329.45898 C 513.02768 332.03341 507.24654 340.8438 513.76953 342.62109 C 518.28027 344.97438 513.01259 350.19811 512.31836 353.5332 C 507.33909 362.36565 506.7473 372.71831 501.55469 381.46484 C 497.73588 388.32297 495.74204 396.40726 491.05078 402.71484 C 485.94324 404.23296 488.38364 397.3809 486.79883 394.99414 C 481.57698 393.56441 479.19219 402.23615 475.20898 402.3418 C 469.52506 398.98823 463.14304 397.63091 456.8457 396.35156 C 453.07862 393.35285 447.08794 395.94729 443.43945 392.46875 C 433.67774 392.23966 424.52747 387.8002 414.94336 387.05273 C 409.27448 388.95174 412.37605 396.73665 413.44531 400.99805 C 416.93942 411.2335 421.72405 421.12735 424.59961 431.52734 C 424.36903 436.85784 429.90993 442.48252 426.89648 447.5332 C 424.33428 448.75974 419.34299 451.04759 420.86914 454.54688 C 425.10496 458.03201 429.40117 453.72092 432.6582 451.16992 C 438.51863 448.52588 442.40358 442.34576 445.74609 437.03711 C 448.36616 432.88406 442.72293 429.5595 439.70508 432.89844 C 437.63334 435.6559 433.69092 433.75974 434.23438 430.46289 C 431.68379 420.82045 424.45679 412.44482 423.74219 402.38477 C 425.17718 397.3918 431.48367 400.89143 434.44531 402.22266 C 443.85165 405.35202 453.11965 409.46135 463.14062 409.9082 C 466.39081 409.924 468.16836 414.7194 464.82031 415.95117 C 464.11321 422.4261 472.35687 419.13474 473.70508 415.37109 C 476.12682 411.38029 479.61912 405.68486 484.81445 405.91406 C 488.73987 408.73744 483.8012 413.40137 481.90039 416.0918 C 466.9866 435.33746 449.1438 452.2781 429.93359 467.18164 C 417.04756 475.46765 405.3882 486.0859 390.41797 490.58203 C 385.6247 492.81858 379.14435 494.82218 376.08008 496.51172 C 369.94258 501.05574 373.47031 490.7386 370.67969 498.74219 C 353.69681 504.99709 337.39315 513.93525 319.34766 516.70312 C 316.61317 518.06088 311.4881 515.5951 314.80859 512.67383 C 320.53154 508.77103 329.30126 509.79466 333.32031 503.76562 C 334.00835 494.11095 328.92874 485.06736 328.45508 475.41016 C 328.39048 471.07862 325.76425 465.51975 327.66797 461.89453 C 331.62353 460.68971 334.21056 466.61802 337.41992 468.45898 C 348.69337 478.84701 363.06007 484.89336 375.29297 494.01562 C 381.40517 487.35721 392.42707 486.03937 397.27539 478.02344 C 396.24853 473.01082 389.97508 475.04188 387.8418 478.08008 C 385.83871 480.55579 380.25508 482.58692 379.45117 478.05859 C 378.9732 473.6869 375.09754 470.35079 375.37891 465.70898 C 371.38948 457.72091 367.70956 449.10472 367.27344 440.00977 C 367.98429 435.30675 375.44752 434.87545 375.96289 430.54297 C 369.59058 428.97204 362.46276 432.47162 357.4375 436.33594 C 356.16926 441.67317 361.00572 446.46739 361.03906 451.90625 C 364.32791 460.65678 368.73341 469.0302 370.13086 478.41602 C 365.23802 474.09449 360.03778 470.37664 354.05664 467.94336 C 348.42444 463.99653 342.78812 459.963 336.53125 457.19922 C 335.38332 454.16815 333.40094 451.26811 329.74609 450.66602 C 326.65773 449.34488 321.98426 450.07444 322.75586 454.42188 C 321.42551 465.37376 322.22515 476.47868 324.375 487.16016 C 324.4395 491.3839 319.05417 490.25226 318.32812 486.95312 C 316.327 480.83715 310.85604 477.4714 306.64844 473.09961 C 305.09946 470.67542 303.5479 468.54679 301.17773 467.06445 C 298.45633 461.97166 305.9597 458.55695 305.3125 453.9668 C 302.91129 450.62344 298.09885 452.65127 295.70312 455.00586 C 290.00858 458.12834 282.65552 456.42568 277.32031 459.92188 C 273.82514 463.74811 280.17816 464.89629 282.86914 464.0625 C 291.4816 462.67796 296.5234 471.54698 299.31445 478.23633 C 304.09815 487.24192 312.31006 493.90445 316.46094 503.36914 C 320.86455 508.54765 310.09568 506.38211 308.75391 510.71094 C 309.56551 513.02046 314.27992 516.61482 309.95508 518.35547 C 291.02811 520.51326 272.13252 524.15975 252.96094 523.26172 C 224.1626 522.73455 194.82429 517.52488 169.18164 504.16602 C 161.9661 500.9374 153.95509 498.1311 148.16602 492.66016 C 147.61756 487.673 154.14177 490.09736 156.29883 492.01953 C 161.80026 496.30472 165.30774 488.13637 167.82227 484.34961 C 174.51833 472.71625 180.97747 460.93073 188.60742 449.86719 C 187.22891 465.40163 186.54455 481.03636 187.80664 496.55078 C 187.24783 499.1505 184.80533 501.90817 188.0293 503.94141 C 193.94124 508.73528 202.40286 513.30143 210.11914 510.91406 C 213.43507 508.18362 209.46256 504.13235 206.14062 504.49609 C 202.27882 501.47231 206.03616 495.85189 207.41797 492.35742 C 209.63127 486.88984 215.25654 484.05554 216.97266 478.32617 C 218.91513 476.11768 220.63481 474.28451 221.91406 471.50781 C 227.74076 464.46129 233.24542 455.92617 242.32812 452.99805 C 242.69513 449.49609 236.63256 448.36269 233.97852 448.08008 C 227.99575 446.25256 224.93457 449.56143 223.16797 455.01953 C 217.05356 466.07703 209.91084 476.68146 202.22852 486.64648 C 198.06628 488.65574 197.71183 482.36343 197.9707 479.74219 C 197.46401 467.36684 199.35274 454.74562 197.25781 442.51953 C 194.47249 438.01626 190.22009 444.04624 187.63477 445.75781 C 183.22493 449.58524 178.98849 453.80339 176.9082 459.25195 C 175.3102 462.98838 169.03732 463.49862 168.74414 458.74023 C 168.3776 452.90892 172.67222 447.95207 172.54492 442.04102 C 172.6726 438.64541 173.46485 432.12026 178.4707 433.74414 C 181.48915 435.45015 185.08591 431.42965 181.81055 429.16211 C 177.83293 426.07846 172.04238 427.32644 167.99023 423.92969 C 164.47701 421.58005 160.51378 421.13123 156.50977 421.28711 C 152.61653 419.44734 151.71357 414.24416 147.42383 412.64844 C 140.13624 409.57725 133.97096 403.79159 126.64062 401.23047 C 122.93605 405.44899 126.9255 410.76366 131.5293 411.70703 C 135.55636 412.99791 134.27053 417.87947 131.48633 419.79492 C 127.0001 425.0529 119.96509 428.85803 118.43945 435.95703 C 115.35537 441.05186 110.9712 447.65388 104.42773 447.82617 C 102.13156 446.01764 98.642717 445.77608 97.371094 449.03125 C 95.249172 452.89494 100.01439 453.00942 101.66211 455.14258 C 105.16523 456.73842 108.71452 459.66835 111.58984 462.64453 C 113.7549 464.90375 121.454 467.16206 121.35938 462.35742 C 119.8637 459.71086 117.43445 456.60394 119.97266 453.63867 C 126.69444 444.20075 135.68383 436.46333 140.79883 425.99414 C 142.68883 421.64141 147.47267 422.45946 151.07031 423.7168 C 156.75133 424.31217 163.57483 427.5103 165.24609 433.33398 C 163.44243 442.24325 160.86793 450.97599 158.04688 459.62305 C 155.75636 466.47832 157.05722 474.6554 153.20508 480.86523 C 148.90162 485.05118 142.85313 477.64188 138.72461 481.24023 C 138.79251 484.10022 136.89394 487.43168 133.52148 486.4082 C 120.61462 482.51521 112.34132 470.79646 100.98438 464.17578 C 87.573578 453.25263 74.499221 441.26735 64.978516 426.7207 C 63.188444 424.41116 64.026944 420.76457 67.070312 420.47852 C 69.624544 416.12646 64.157601 410.91563 68.470703 407.01562 C 77.355737 398.09172 88.75791 392.12287 98.90625 384.77539 C 102.16463 382.17625 106.66214 382.56196 110.0918 381.00391 C 111.58497 376.36557 105.13608 373.32129 102.98438 369.69336 C 98.310575 364.72591 93.469483 359.63109 90.712891 353.4043 C 86.821097 349.98392 84.269802 345.3405 82.5 340.68164 C 79.029388 343.34931 74.597598 344.88924 70.267578 343.11523 C 67.827299 342.09655 62.44684 341.1367 63.982422 345.51562 C 66.963104 348.75725 64.055362 355.03634 69.783203 355.88086 C 74.285064 358.04616 79.108997 354.63948 83.476562 356.06641 C 88.322851 360.04453 90.432751 366.63656 95.128906 370.90625 C 98.456202 372.96511 95.328547 376.74476 92.330078 376.72266 C 88.336824 378.45033 85.864279 382.40612 81.455078 383.375 C 73.571729 387.3249 67.234965 393.60603 60.089844 398.52539 C 56.806504 400.39463 52.749557 395.64496 50.005859 397.97461 C 50.201936 400.5866 51.431753 406.54473 46.753906 404.69531 C 41.29079 397.57221 39.742929 388.0274 35.246094 380.43945 C 28.464834 367.78802 23.732287 354.24402 20.070312 340.4043 C 17.263693 333.03592 15.454058 325.36131 13.703125 317.68945 C 17.9455 321.01677 20.609706 327.53026 25.871094 329.10938 C 26.973298 326.26218 26.594444 321.50827 30.789062 321.08008 C 43.558594 319.98755 55.512598 316.57017 67.873047 313.65234 C 72.102461 312.36561 77.088069 313.86355 78.138672 318.49805 C 81.529619 321.36428 84.18068 315.88965 83.048828 312.93164 C 81.384652 305.95414 79.298858 299.02 77.515625 292.09375 C 76.585027 287.69674 70.782321 288.58135 70.763672 292.74609 C 70.035722 296.41487 72.800226 303.06325 68.138672 304.74023 C 51.609947 306.46374 35.525634 311.74369 19.015625 313.01367 C 14.50838 316.0483 11.913187 309.82244 11.138672 306.36914 C 7.553597 293.72866 8.3336316 280.28503 7.2050781 267.2832 C 6.7079763 248.0593 9.805123 228.8933 13.306641 210.07227 C 18.41878 191.69861 25.146774 173.86008 33.083984 156.58398 C 35.691908 147.30089 41.468872 139.15432 45.46875 130.4043 C 60.040386 107.44999 79.717175 88.068018 100.37891 70.587891 C 107.67082 64.099024 116.39136 59.799294 125.07227 55.582031 C 146.05546 41.648986 169.41279 30.774999 193.66211 24.742188 C 205.58738 22.703674 216.75952 17.791707 228.88086 16.638672 C 241.53112 14.249256 254.44458 14.331597 267.26562 14.244141 z M 258.56445 20.332031 L 258.39844 20.34375 C 252.91772 22.353261 252.40909 30.667098 256.8457 34.146484 C 259.8271 37.574791 256.43487 42.501957 252.17773 41.818359 C 245.78637 42.393153 240.24232 37.92491 234.20898 37.685547 C 232.08265 43.362459 235.91259 50.545522 232.19141 55.746094 C 231.01543 60.498533 236.10863 61.521683 239.48828 59.847656 C 243.58669 59.935066 249.14257 55.31796 252.61133 59.041016 C 253.92967 65.282298 249.1412 71.249061 248.66797 77.480469 C 247.38013 82.319426 253.86742 83.32466 257.18945 81.962891 C 263.57 80.510949 270.80648 83.997936 276.58398 80.628906 C 279.18236 72.925269 267.91659 68.671262 269.56055 61.257812 C 273.40914 56.408653 280.95728 59.010113 286.25195 58.232422 C 291.82073 59.53529 291.31968 51.832643 292.33203 47.992188 C 292.40463 44.561684 293.17263 37.549325 288.64648 36.873047 C 284.95891 39.315492 280.32246 39.222119 276.49805 40.912109 C 272.76674 43.515875 271.40212 37.736673 272.85742 35.150391 C 272.78752 30.713007 279.08551 26.637401 275.85742 22.517578 C 270.61408 19.804259 264.17044 22.783275 258.69922 20.333984 L 258.56445 20.332031 z M 342.09961 31.830078 C 337.05735 32.511735 332.98574 36.162856 328.14648 37.626953 C 321.74972 44.448359 324.10801 55.037656 328.50391 62.296875 C 330.18637 66.782804 330.83856 71.571054 332.0918 76.125 C 330.84197 86.122044 316.06692 90.193169 309.32617 82.814453 C 304.00026 77.751484 310.19821 70.284977 309.67578 64.939453 C 300.64989 65.937646 295.70623 77.894622 302.13867 84.630859 C 312.1295 95.369447 333.37214 93.40954 338.70703 78.777344 C 341.37345 70.769977 340.3339 61.692258 338.14258 53.732422 C 335.8033 49.691514 331.17425 42.135586 337.17188 38.990234 C 346.83355 35.554742 358.19814 44.24922 357.44531 54.505859 C 357.56765 57.713499 361.70784 59.031921 362.11914 55.099609 C 365.30263 43.854516 352.98702 31.761441 342.09961 31.830078 z M 163.70508 42.828125 C 156.2532 44.49384 149.11321 49.153611 144.54102 55.232422 C 144.10322 57.161306 147.80948 57.486787 147.98828 59.736328 C 153.37596 69.500897 159.51579 79.237263 162.84375 89.896484 C 161.31217 94.629678 156.10721 89.466131 153.30469 88.455078 C 147.84146 84.863969 141.84857 82.513032 135.64648 80.777344 C 131.47036 78.036369 123.23051 77.787038 123.78906 71.011719 C 124.4252 65.314049 117.77214 68.834469 115.67969 70.796875 C 111.75376 74.077032 106.78659 78.013256 105.04883 82.462891 C 111.81248 85.769095 110.82477 95.243203 115.82617 100.16406 C 121.06437 111.59418 125.7246 123.37201 131.54492 134.57422 C 129.51516 137.08453 122.14451 142.17912 126.67773 145.42383 C 129.12126 145.36833 135.4421 144.0456 133.45117 148.72656 C 127.22528 155.9526 121.28416 163.44965 115.75391 171.24023 C 112.94551 173.47345 110.07099 180.06644 107.21875 184.01953 C 104.8803 188.85233 100.44489 192.56639 98.396484 197.37695 C 97.207897 209.81543 90.850901 221.01288 89.607422 233.47852 C 88.167055 237.04382 88.901715 243.09086 84.777344 244.7793 C 79.452415 243.23882 83.651239 235.85677 83.699219 232.38672 C 84.284183 227.45448 87.087882 222.27803 86.111328 217.4375 C 83.201773 216.83239 81.194513 218.91183 82.009766 221.79492 C 82.379855 227.63042 76.324645 230.72047 71.199219 229.49414 C 59.495102 227.28987 47.640618 226.96423 35.90625 225.16797 C 31.017085 224.81918 26.290659 220.38305 28.587891 215.24219 C 31.577076 208.38484 41.082686 212.10559 46.199219 208.08984 C 49.538602 206.8486 52.045224 201.16959 47.087891 200.25195 C 41.631791 199.42242 35.973329 199.61609 30.511719 198.97461 C 22.223798 202.01077 24.342332 213.08476 22.613281 219.86523 C 21.647686 231.2858 19.273588 242.49404 17.417969 253.75 C 17.610043 256.89959 15.659134 263.30063 21.017578 262.29297 C 27.95494 262.48312 35.329278 262.7085 41.896484 260.42578 C 44.175234 254.79003 37.457184 249.79165 32.21875 251.50781 C 25.898653 251.32177 25.932554 243.36053 26.777344 238.84766 C 25.648157 232.39212 29.317763 232.00107 34.630859 233.69336 C 45.459037 236.0928 56.176969 237.10728 67.210938 237.4043 C 70.720112 238.12632 76.439947 237.42135 78.050781 239.78906 C 78.441841 243.08582 75.850493 248.10175 78.380859 250.78906 C 80.753258 249.20135 85.816941 247.70494 85.851562 252.22656 C 84.67356 260.40167 83.083202 268.36198 84.330078 276.68359 C 84.7192 288.89146 88.224566 300.5509 91.341797 312.23828 C 94.215942 330.17745 99.347588 348.15568 108.42773 363.9707 C 118.42173 377.88204 130.39046 390.7637 145.7793 398.79883 C 168.37152 413.99816 192.31297 427.4339 218.91211 434.10352 C 225.24566 437.03224 232.4264 436.12307 238.87109 438.16797 C 245.59184 440.81119 253.57089 438.70517 260.51758 441.24609 C 284.09473 441.19679 307.51191 436.89201 330.5957 432.4043 C 336.46585 431.70758 341.53366 429.09924 346.69141 426.63867 C 354.593 424.43285 361.25791 419.24206 368.1875 415.18555 C 393.1353 395.81325 416.72924 373.44158 430.35352 344.47461 C 437.66585 330.47096 441.42606 315.04065 448.10938 300.73828 C 450.55403 295.35654 448.85926 288.49418 449.83984 282.58398 C 451.16237 256.97364 446.70013 231.29564 439.21094 206.76367 C 433.4823 191.54416 427.76786 176.05959 416.72461 163.85156 C 409.06036 155.34737 402.39081 145.66693 393.32422 138.69336 C 386.80765 136.71445 386.10063 128.67034 380.58984 125.29492 C 376.28609 120.00489 368.29107 120.4406 363.86328 115.74609 C 363.02831 111.72274 369.03453 112.66687 370.25977 109.39844 C 376.13405 103.72579 380.9561 97.056649 384.95312 90.042969 C 391.72197 82.906511 396.28811 74.198955 401.55273 66.048828 C 403.20588 63.485115 410.22554 63.810482 407.04688 59.542969 C 403.65217 55.231451 395.73756 52.85128 391.14258 56.123047 C 393.3599 63.345708 386.72263 69.159581 382.64844 74.248047 C 376.59126 79.456964 374.4998 87.450159 369.71094 93.746094 C 366.76056 97.129866 366.89269 102.6531 363.38867 105.32617 C 361.03288 104.84998 358.80587 102.04492 355.45312 103.06055 C 352.48584 103.03165 357.6082 106.34473 354.88867 107.80859 C 350.48893 109.85139 347.02473 103.7269 342.83203 103.09766 C 331.05316 97.739807 317.65689 99.294784 305.58789 95.056641 C 281.59982 92.641294 257.193 92.653013 233.11719 94.939453 C 216.23237 99.511245 198.72059 102.55554 183.16797 111.08594 C 176.17305 114.70123 168.48477 117.28442 161.52734 120.67578 C 155.8351 124.6273 152.308 131.78265 145.89062 134.54688 C 142.16336 134.89918 143.98155 129.1314 140.14258 129.62695 C 135.25434 128.01618 137.13977 121.4402 134.39844 118.06445 C 131.1971 108.80423 125.3916 100.76746 121.75977 91.714844 C 120.0107 87.840495 124.63385 84.353625 127.9043 87.050781 C 138.87535 93.581167 150.59964 98.978744 162.35156 103.93164 C 166.00194 105.51281 174.608 106.84261 173.48828 100.28516 C 172.38279 94.065506 169.26883 88.330473 167.45312 82.339844 C 166.20356 79.621561 160.61005 75.130041 164.99805 72.751953 C 170.625 73.806871 173.70233 80.214228 179.28516 81.652344 C 182.5131 83.848653 186.28696 88.890097 182.93555 92.402344 C 182.59093 95.626824 185.99396 98.814026 188.34766 95.466797 C 190.51541 92.282707 193.46324 89.837796 197.02734 88.673828 C 201.16016 84.094365 208.93998 85.388828 212.88086 80.96875 C 214.15495 75.918714 208.15582 76.502349 205.43164 78.25 C 201.41702 79.426076 197.14321 83.799645 193.51172 83.089844 C 183.96608 73.037405 172.6157 64.497023 164.24609 53.40625 C 161.46715 49.876418 166.99894 46.214385 165.25781 42.998047 C 164.77099 42.79685 164.22201 42.801728 163.70508 42.828125 z M 432.37891 91.357422 C 428.24747 92.053683 423.99286 93.047547 420.03711 94.1875 C 412.72437 99.739401 405.56369 106.23777 400.79883 114.13672 C 397.91428 124.37422 401.3967 136.342 409.80273 142.96094 C 412.96666 147.17547 415.48446 154.30749 422.20508 152.29297 C 430.16194 149.27284 436.8447 143.46394 444.8457 140.32227 C 448.62346 139.11751 450.63274 146.93757 454.98438 146.52539 C 457.05595 138.51075 451.75083 130.22918 446.68555 124.32812 C 444.63868 121.42825 436.5779 119.25883 437.12305 124.54492 C 439.60225 127.81159 442.18222 135.11922 436.18945 136.11914 C 430.10017 139.02855 423.50457 146.9231 416.07617 143.16992 C 410.97607 139.92236 412.94778 132.83754 410.94336 128.36133 C 406.24539 123.81697 411.56416 117.39221 415.04492 113.92383 C 423.06404 106.6544 433.26603 98.941761 444.70312 99.962891 C 454.54771 100.65801 462.76926 110.04421 460.9707 119.91602 C 460.67089 124.10086 465.67108 119.55839 467.46094 119.49609 C 470.46238 117.71825 469.82589 112.29343 468.47461 109.40625 C 466.91879 107.62036 467.36343 105.42903 465.14844 104.34961 C 459.35526 96.503394 448.69525 94.276781 439.73047 92.015625 C 437.30682 91.582395 434.84564 91.276625 432.37891 91.357422 z M 267.66016 97.177734 C 287.2895 97.549691 307.62929 97.855254 326.16992 105.01758 C 331.98788 107.66418 338.75856 107.12801 344.51758 110.23633 C 355.24698 114.17709 364.09925 121.47247 372.89062 128.49219 C 387.83508 142.48478 403.26142 156.29137 415.18555 173.04688 C 428.09415 188.48982 431.9767 208.99083 438.12305 227.63672 C 442.29828 242.73007 443.16463 258.522 443.81836 274.11523 C 443.76966 292.36733 440.50464 311.04864 432.42578 327.50195 C 430.24402 330.85711 426.83618 326.85194 428.59961 324.12305 C 431.84162 313.11296 428.17688 301.8337 428.53711 290.73242 C 429.24841 283.66426 433.93295 276.16345 430.3418 269.42773 C 423.71236 266.76171 416.67386 271.51617 410.52734 273.83594 C 406.51486 276.71058 400.97393 279.69482 396.41797 275.99414 C 386.95809 268.41265 377.4315 259.46277 365.32031 256.69531 C 362.07917 255.29435 366.13652 250.56235 361.85352 250.35742 C 349.95927 247.62538 337.74623 246.34638 325.87109 243.50586 C 320.13749 242.10798 313.51082 243.60106 308.20312 241.04297 C 304.98582 238.24247 308.06178 232.50077 312.24023 234.08203 C 331.66056 235.79372 350.55581 242.7506 370.18164 241.78516 C 372.71422 242.13358 374.74108 239.91037 371.875 238.17773 C 364.51966 232.99133 354.61612 235.01247 346.1875 232.82227 C 336.70689 229.88536 326.7341 229.80325 316.95117 228.39648 C 313.07194 228.34748 306.48646 225.05105 310.16406 220.55078 C 313.39881 216.5392 309.54146 211.13147 309.94531 206.5 C 309.99661 203.03674 307.75274 200.92854 304.89844 200.00391 C 301.71031 196.75852 300.80578 191.5974 299.46094 187.83008 C 292.97276 182.06227 295.82946 171.9799 298.125 164.89648 C 299.09433 160.54933 301.27654 154.88401 297.07031 151.5625 C 295.10926 147.79493 298.57067 143.68785 297.70898 139.60938 C 298.46732 133.72189 294.14218 129.02244 292.54688 123.63086 C 290.21058 118.61721 286.2351 113.52986 279.96875 114.41211 C 275.23983 112.94707 270.12531 114.02035 267.52539 118.51758 C 262.00455 126.27969 257.77406 135.74436 259.0625 145.41602 C 258.91916 148.49184 254.3783 148.62243 256.03906 152.2168 C 257.25283 158.99575 256.18554 165.77239 255.03125 172.41992 C 254.67581 175.36158 256.49245 177.26378 259.125 177.70898 C 261.26582 179.43282 260.59299 182.34529 262.36328 184.23242 C 263.02319 188.5126 262.48805 193.7238 267.61328 195.54883 C 273.39159 198.50976 263.1625 199.96566 260.95703 202.49023 C 258.29708 204.72832 261.15954 213.27696 255.23438 211.25195 C 252.27853 208.70827 253.51695 203.67766 249.18945 201.91992 C 246.74159 200.6069 243.86199 200.30931 241.53906 198.60352 C 238.85287 198.66912 234.24316 196.74784 236.94727 193.5293 C 242.62972 187.04011 245.82621 178.66427 247.80469 170.43555 C 251.45802 165.73362 250.79379 157.87431 245.54883 154.61523 C 242.88685 150.70749 249.98553 150.34347 249.05664 146.44727 C 249.2664 137.16215 247.05381 124.33724 236.41992 121.71094 C 229.43023 119.3277 218.81741 119.64295 215.92969 127.7832 C 209.95985 134.62963 208.97823 144.23005 207.69727 152.875 C 205.89102 154.92775 204.88131 158.08433 207.52344 160.20508 C 213.5204 164.35581 207.59214 172.08366 208.58789 177.73633 C 209.03287 180.97278 214.05311 178.5158 215.4082 181.56055 C 217.56602 183.50988 216.48071 186.44347 214.76953 188.0957 C 213.02266 192.34798 217.66784 194.58262 217.87891 198.17969 C 215.9729 203.07806 210.2561 205.45746 208.12695 210.32812 C 204.07376 212.39171 201.41042 206.45423 197.48242 205.97852 C 193.64259 203.49409 199.26453 200.24146 197.60547 197.01758 C 196.51135 190.67631 195.30977 183.18268 190.58984 178.58984 C 185.40018 182.10166 185.97194 190.1592 186.24219 195.73633 C 186.68811 196.31127 190.6396 191.35803 191.97852 195.33789 C 192.07702 199.97303 189.85913 205.24872 186.30859 208.26562 C 185.11866 210.82524 183.73373 215.67749 179.66016 214.39648 C 174.62512 212.16434 169.10544 208.96516 166.32227 204.0625 C 165.14985 199.86191 171.26347 198.8868 171.03125 194.87891 C 174.38813 191.10621 175.79828 197.83809 177.9043 199.04297 C 182.10145 198.27353 179.23249 195.81974 178.88477 193.42773 C 178.98508 191.51937 180.42208 190.4345 178.66992 188.70703 C 178.02298 185.53137 176.71576 178.4831 172.16406 181.98633 C 171.32741 184.73032 168.93534 188.74871 165.5625 186.39844 C 161.58765 183.09615 155.80215 183.26407 152.51367 178.83008 C 149.57162 176.32154 147.88495 172.76119 147.46094 169.09375 C 143.12307 163.39317 133.49189 168.6736 129.83398 162.41602 C 128.99461 158.9524 133.67788 158.38631 133.92578 155.23047 C 135.77303 152.04594 139.03297 149.28135 142.07617 147.87109 C 146.82144 138.81212 156.65835 133.77646 164.60938 127.87109 C 176.45173 119.8564 189.40544 113.63623 202.68164 108.50586 C 223.16544 99.958984 245.5686 97.084021 267.66016 97.177734 z M 81.554688 109.74023 C 74.075217 111.58303 66.220152 116.84132 63.371094 124.17383 C 64.003586 126.89566 60.734931 128.21322 60.707031 130.32812 C 62.325666 134.56963 66.637948 132.96072 69.914062 132.82227 C 77.229871 136.01209 81.339807 143.8405 87.625 148.57812 C 91.649095 152.2811 96.015571 155.58569 100.19531 159.10742 L 53.404297 159.10742 C 52.525196 156.06765 53.819954 150.61381 51.265625 148.56641 C 45.149833 154.59433 43.034826 163.74686 42.587891 172.01953 C 43.555626 176.88956 48.688066 172.28064 50.507812 170.32422 C 55.6423 166.14269 62.47307 170.45852 68.328125 169.5625 C 83.86517 170.20465 99.521964 169.97718 115.12109 170.11914 C 107.4017 154.90216 95.114961 142.77782 84.539062 129.5332 C 82.828298 126.43238 79.137059 122.43324 79.945312 119.65234 C 83.8004 118.15296 90.14211 110.4375 81.554688 109.74023 z M 280.7207 117.99023 C 284.59595 118.48307 282.72424 122.71639 281.07617 124.60156 C 279.78547 127.28049 279.38857 130.44458 282.13672 131.97266 C 283.5008 135.47298 280.56771 138.96425 281.39258 142.58789 C 280.72865 146.91311 275.957 149.21817 272.10352 147.0918 C 266.79592 147.39654 261.653 142.81372 263.18945 137.26758 C 265.39916 128.95907 271.40426 120.27072 280.0918 118.00195 C 280.3009 118.01095 280.5118 117.95493 280.7207 117.99023 z M 225.23438 126.81445 C 232.03499 127.48998 232.94628 137.81509 227.75391 140.79883 C 229.72236 141.61355 232.90893 142.18225 232.11719 145.30664 C 232.3065 150.44717 225.20777 149.38871 221.86719 149.5332 C 218.37858 149.25608 210.61528 149.38469 212.05664 143.87305 C 214.28066 137.67786 217.21421 130.49222 223.1582 127.09375 C 223.82901 126.88249 224.53075 126.77633 225.23438 126.81445 z M 290.84375 156.08594 L 291.92578 162.07031 C 292.76355 171.67088 290.03505 182.60819 282.44531 188.9668 C 277.95324 191.10258 271.2183 192.45 267.25 188.81055 C 265.21285 186.1769 270.41187 184.60022 267.49805 182.43164 C 265.63042 180.15622 267.3521 176.88691 265.73242 174.89648 C 263.86444 172.92527 259.86128 175.89964 259.50391 171.97852 C 259.48101 167.11537 260.40318 159.73322 265.91602 158.22461 C 268.97947 157.9855 269.6105 161.25447 268.67969 163.44922 C 268.74319 168.65862 277.57045 166.64027 275.16016 161.9082 C 274.53535 157.63615 281.38606 156.94819 281.43359 161.33789 C 281.92558 168.69694 278.56847 177.48004 279.06836 183.66602 C 284.48912 175.13567 285.85121 164.78995 290.84375 156.08594 z M 499.56641 162.24023 C 495.05624 164.37219 500.40586 171.30902 495.99609 174.10352 C 490.12747 178.19249 482.22563 177.30805 476.14453 181.18945 C 467.67506 185.17084 458.67448 188.82938 449.40625 189.25 C 444.63164 187.08518 447.93468 177.9038 441.74609 177.4707 C 437.35532 180.27973 441.14716 186.74962 442.03906 190.50781 C 445.31922 196.74994 446.56145 204.07991 450.55664 209.85352 C 454.51269 212.35353 455.84393 205.03965 453.75977 202.6543 C 453.14646 197.15713 461.08528 197.2209 464.5625 195.67773 C 472.85445 193.6196 480.92061 190.82207 488.61914 187.30859 C 493.58585 187.42054 497.94791 184.10178 502.76172 184.14453 C 505.39482 185.75573 504.87775 189.86572 507.73047 191.71289 C 509.61976 193.13318 513.4526 187.58121 510.89844 185.21094 C 506.80072 178.28345 505.38377 170.05016 501.60352 163.13867 C 501.05571 162.62794 500.34385 162.18898 499.56641 162.24023 z M 146.46289 182.39062 C 151.0047 184.1019 153.71682 189.08068 158.57227 190.57812 C 162.04036 191.4718 165.19279 195.52531 161.75391 198.38281 C 158.82698 201.44703 153.3249 201.87692 150.83203 198.04688 C 146.73339 194.15201 138.42485 193.79024 136.95508 187.5918 C 137.44637 183.07049 143.35524 185.83965 145.12695 182.62695 C 145.5282 182.41956 146.01534 182.3562 146.46289 182.39062 z M 111.35156 189.24805 C 118.82056 190.0946 123.36839 199.25671 131.38281 197.55664 C 137.41503 198.4154 142.09216 203.00382 147.82812 204.69922 C 150.50227 206.80084 147.61783 211.25629 149.46484 213.01172 C 151.75931 209.16 158.56682 212.86553 155.90234 216.87695 C 152.50278 221.44435 158.45674 227.71358 163.06445 224.23242 C 168.5333 224.01677 174.05407 227.15367 177.86914 230.88867 C 180.373 235.95412 173.31582 238.81318 170.09961 241.10742 C 165.44517 244.1094 162.94142 237.21909 159.05273 236.17383 C 153.61766 232.75671 145.06955 229.08703 145.13477 221.52148 C 145.63027 219.60193 147.37202 216.39029 144.28516 219.09961 C 138.88315 224.32395 133.06538 229.15823 126.98828 233.49023 C 125.44072 236.24511 121.44227 236.46488 120.54492 239.96875 C 117.92943 245.4418 113.78377 253.31298 118.42188 258.69531 C 121.48156 260.267 127.3518 254.95126 128.36133 260.51758 C 131.78663 264.40623 138.50325 264.80012 143.52148 264.27344 C 149.07069 261.37222 155.99824 265.13014 159.64453 269.51367 C 162.92529 272.95344 166.99712 268.60186 170.74219 268.93555 C 173.78844 269.424 180.47823 266.93345 179.94336 270.84961 C 178.78406 285.77765 177.07942 300.65403 175.35742 315.52539 C 168.83257 315.95979 161.36409 313.15697 155.23047 315.96289 C 152.4684 317.83039 148.59167 316.17013 146.71094 319.14062 C 141.12195 320.39783 136.01898 323.99476 133.00977 328.7832 C 129.18575 332.62788 123.61452 332.71905 119.07031 334.66992 C 114.69268 337.74828 110.50983 343.18843 104.91016 343.29492 C 100.57776 338.53109 100.6399 331.11458 98.671875 325.19141 C 96.051128 313.12461 93.455662 300.84323 93.587891 288.49414 C 87.838412 274.22478 90.026136 258.27145 91.740234 243.38867 C 93.074393 232.95456 97.008916 223.13364 99.347656 212.96094 C 102.01491 206.15887 105.36785 199.55371 106.49805 192.32227 C 107.30887 190.40579 109.25387 189.11459 111.35156 189.24805 z M 231.27344 202.25781 C 237.00422 201.93985 239.35389 208.57136 244.90039 209.13477 C 249.49149 210.87683 260.86024 213.83829 249.69922 214.19922 C 246.15224 215.14368 239.75623 214.81008 237.65234 216.31641 C 240.55649 218.9987 240.19884 223.283 241.86133 226.55859 C 244.48026 226.15219 253.27776 227.13872 248.89258 231.27148 C 245.13755 233.01659 240.77133 232.74166 236.93555 232.91797 C 233.39329 237.37462 232.61742 244.00709 231.63281 249.09375 C 234.64905 246.2403 238.98528 249.62957 237.99805 253.33398 C 236.90443 256.23992 238.09545 258.75507 238.30469 261.35938 C 236.22836 264.78789 228.94446 267.32597 227.30469 262.21289 C 225.45092 256.21361 220.84518 250.73598 220.24414 244.49609 C 217.05466 242.4167 218.21025 237.67379 215.89844 234.79492 C 214.76217 229.35514 212.79784 224.26477 212.5957 218.7207 C 213.72491 209.93615 222.57549 202.58159 231.27344 202.25781 z M 287.61328 205.43555 C 290.81154 205.66789 294.95163 209.83344 291.11328 212.29297 C 288.23596 213.59187 292.84517 216.79875 290.35156 219.06641 C 282.93355 228.38464 274.44581 236.89413 267.61523 246.81641 C 267.04294 238.55106 265.71744 228.75718 272.50586 222.44922 C 277.79399 217.72093 280.6801 210.97707 285.46875 205.94336 C 286.108 205.55731 286.86603 205.34879 287.61328 205.43555 z M 194.70703 209.73828 C 202.15822 210.65928 202.8551 220.09008 203.9043 225.94922 C 205.01902 230.85049 201.21325 235.03195 196.47266 235.58594 C 191.09417 237.22273 186.44666 244.11471 180.32031 241.61523 C 177.23157 237.4571 185.6289 236.4256 184.11914 231.88281 C 183.83892 224.03394 184.87569 213.02397 193.41016 209.875 C 193.83511 209.7839 194.27231 209.72837 194.70703 209.73828 z M 226.70117 211.11523 C 223.34968 217.39314 225.09714 225.54111 224.69922 232.41211 C 224.71462 233.96358 224.76132 238.90445 226.0625 235.07227 C 226.59326 227.26355 228.20645 219.13809 227.6543 211.35742 C 227.35474 211.2266 227.03261 211.10898 226.70117 211.11523 z M 516.19336 229.49023 C 511.31939 229.45363 513.30671 236.03098 508.94531 236.58789 C 494.89749 238.7152 480.23571 237.87933 466.50977 241.61133 C 464.10059 241.98354 463.01845 236.11738 461.12695 239.67773 C 455.983 250.24758 462.12483 262.07011 458.67188 273.05859 C 458.73327 279.29031 467.36554 278.95689 470.49805 283.22656 C 473.46302 286.06621 479.6593 284.18391 481.90234 281.20508 C 480.36859 274.88331 475.09605 269.16201 468.7207 267.80469 C 465.17897 263.71865 467.70354 257.40869 466.87305 252.54883 C 483.18296 250.42714 499.50113 248.33745 515.87305 246.74414 C 516.62481 249.32938 514.4078 254.61359 516.91016 255.72656 C 520.73299 256.66646 522.59894 252.76793 521.33008 249.60742 C 519.60329 243.31827 520.76337 236.12893 517.99414 230.28125 C 517.44485 229.94338 516.88634 229.42269 516.19336 229.49023 z M 300.20508 229.83398 C 305.1985 230.3594 301.87072 236.64176 298.80078 237.76758 C 295.74354 239.18851 292.45644 239.91795 290.03906 242.35352 C 285.71758 243.95631 280.95042 244.72316 276.49805 245.54102 C 272.1711 242.94461 278.53679 239.47812 280.51758 237.61719 C 286.00178 232.43103 292.95255 230.77539 300.20508 229.83398 z M 133.62109 232.30859 L 134.3457 232.99805 L 134.9668 233.58789 C 140.74219 239.25707 146.90533 244.50577 153.12891 249.67188 C 150.66097 254.61228 144.26005 261.23514 138.33594 257.41992 C 135.05211 254.45614 138.03927 250.23942 140.00586 247.64258 C 139.49471 243.26618 133.3117 242.09494 131.07031 246.06055 C 128.18844 247.68351 128.26789 253.56841 123.8418 252.05273 C 118.75243 249.66075 122.70723 243.2397 125.25391 240.32031 C 127.72214 237.33406 130.81904 234.96137 133.62109 232.30859 z M 201.29492 238.02539 C 203.9411 237.88701 204.69282 241.53236 207.51953 239.98242 C 212.5471 241.34809 209.11931 247.51684 206.41797 249.61719 C 200.34552 254.45782 190.8908 256.78575 183.74219 253.11133 C 179.42525 249.99949 183.69779 245.03449 187.16602 243.48633 C 191.48702 240.97398 196.19918 238.33029 201.29492 238.02539 z M 307.95312 248.33008 C 319.16839 249.05387 330.46597 250.53301 341.42773 252.92773 C 345.27936 254.09635 343.3529 258.84102 340.08789 259.26367 C 329.46421 262.25876 319.11078 266.91707 307.78906 265.98242 C 298.99192 268.2187 300.27051 263.0046 302.96289 256.67383 C 304.22613 253.84777 302.21155 248.26079 306.95898 248.37695 C 307.28917 248.34585 307.62153 248.33558 307.95312 248.33008 z M 209.53516 252.58594 C 214.57694 253.70838 211.38906 261.16281 207.4082 261.78125 C 195.70033 265.81968 182.89035 264.60039 170.73242 263.97852 C 166.63116 264.9188 163.51628 258.83336 168.02734 257.2832 C 175.27084 255.97817 182.46832 259.1581 189.81055 257.27148 C 196.463 256.90544 203.10813 254.70208 209.53516 252.58594 z M 350.13672 261.91406 C 354.22649 261.97086 359.68643 261.86716 361.61523 266.0957 C 364.32013 268.11443 371.26606 268.51618 369.68555 273.25586 C 366.26949 276.91306 359.80739 270.11716 357.20898 274.43945 C 357.10744 279.40756 364.36656 277.45669 367.49414 279.11719 C 373.87917 281.98836 381.62459 286.19987 383.43359 293.48828 C 383.82969 296.98605 379.13465 297.90265 377.83008 294.72852 C 374.86777 289.06953 367.67332 284.14537 361.78516 284.93555 C 363.42128 287.28318 369.41149 288.25343 366.28125 292.14062 C 364.4686 294.54919 359.37958 290.70047 359.06836 294.07227 C 361.07539 298.06761 366.64108 297.14857 368.9375 301.14648 C 373.08002 304.24347 369.48941 309.76255 372.3457 313.2168 C 377.08341 311.58498 374.00594 302.88005 380.07617 302.72656 C 384.86 304.36035 382.21789 311.30482 382.84961 314.99414 C 381.90291 320.19658 385.11316 327.80782 378.1582 329.5293 C 370.67186 334.63142 360.61266 333.56108 353.34766 338.78125 C 349.72947 337.83934 346.96743 344.8266 343.67969 340.87109 C 341.87982 338.45492 345.45895 332.38379 340.85742 333.95117 C 336.15698 334.37819 337.54183 328.41582 336.77734 326.03516 C 333.41991 324.95387 335.46914 330.82771 333.77539 332.68555 C 333.39354 335.98582 328.16573 336.65994 328.35352 332.74414 C 328.13594 327.67166 330.35083 322.32465 329.43555 317.47852 C 326.56975 316.8775 322.72044 316.20699 323.06055 312.74805 C 320.89118 310.79831 320.96353 306.40879 319.14453 305.08984 C 315.20391 306.87034 313.39457 301.92691 315.46484 299.04102 C 316.6007 292.76988 318.68291 286.73105 320.61914 280.74219 C 321.59944 276.83462 317.76365 274.90458 316.37695 272.05078 C 316.89648 268.1428 322.14629 270.66595 324.77734 268.9043 C 333.63618 267.65823 341.03962 261.36279 350.13672 261.91406 z M 209.35742 267.35547 C 213.45497 266.71955 218.57219 269.2481 217.57812 273.96875 C 219.62308 279.06502 222.96794 284.08675 227.40234 287.08203 C 227.61057 291.44667 222.65022 293.97079 219.18555 295.32227 C 216.17959 298.62399 213.50489 304.2139 216.68359 308.11523 C 216.73089 310.81249 212.74987 312.50701 215.24414 315.60742 C 218.67978 318.03365 214.69939 320.73629 212.58984 321.93945 C 211.11999 323.97234 212.62154 325.34362 214.19336 326.32617 C 216.15649 329.45906 210.35512 332.3466 214.09375 334.82812 C 215.86264 337.63628 212.85507 339.46209 210.83398 340.30859 C 209.68732 342.66882 208.40913 348.91483 205.1875 344.99414 C 204.75324 339.15784 206.50201 332.67887 205.66406 327.18555 C 203.15129 331.51961 205.70406 338.41649 201.39648 341.68555 C 196.83036 341.72425 199.03916 335.29253 198.74219 332.43555 C 198.55288 326.67069 200.88261 321.02673 200.91211 315.45898 C 199.45421 313.53207 198.88182 319.48716 197.92969 319.99023 C 194.76647 329.48398 194.48287 319.39168 194.4668 314.63867 C 194.2011 310.24184 197.81039 305.19655 195.66406 301.33203 C 194.49086 304.02748 190.01394 305.28788 189.66992 301.43945 C 188.94944 296.57799 190.2667 290.20903 187.99219 286.33594 C 185.71806 289.93021 182.42394 285.52531 183.64062 282.68359 C 183.94268 277.6376 184.11066 269.92414 190.75 269.31445 C 196.88983 268.29013 203.12446 267.44176 209.35742 267.35547 z M 408.45898 292.30273 C 413.70582 292.37163 411.46397 298.90763 410.35547 301.80273 C 407.79657 313.44351 415.25546 325.6523 409.53516 336.77344 C 406.96465 342.95814 403.92384 351.74491 408.42773 357.66992 C 410.35479 354.94856 408.39253 348.02071 413.20508 348.93359 C 415.17069 350.82225 414.34387 354.1826 416.42578 356.17383 C 416.70205 363.49368 409.98575 368.91733 406.01758 374.39062 C 393.34535 388.38939 379.09477 401.26651 363.17383 411.42773 C 357.94837 413.51126 356.95626 406.19908 356.91797 402.6582 C 356.81695 394.64255 364.87441 390.2571 369.66211 384.9375 C 380.32655 375.58639 392.67982 365.58429 396.44727 351.29883 C 397.5324 345.90023 390.72869 347.93057 387.9043 345.90234 C 383.88102 342.67416 375.12363 344.51084 374.01367 338.12695 C 374.42926 333.40898 380.67628 333.77296 383.51562 332.6543 C 386.48438 329.98391 390.16194 328.01942 392.06641 324.13086 C 395.5159 320.24454 396.79493 315.28195 398.81445 310.76758 C 400.66818 305.39804 397.8903 298.26875 402.05469 293.85938 C 403.93473 292.71803 406.31354 292.49601 408.45898 292.30273 z M 240.42578 299.49023 C 249.89468 300.77433 254.47404 312.45129 252.94922 320.95703 C 251.71086 324.71632 247.25986 322.04853 246.9375 319.12305 C 245.64557 317.33226 245.74709 312.53018 243.23828 312.42188 C 239.93198 317.15436 246.83044 321.843 244.46875 326.38477 C 241.11924 329.16335 237.21935 324.89252 238.0332 321.32812 C 238.1037 318.52092 235.97948 317.04423 233.5625 318.03125 C 229.7758 317.78168 230.08403 313.08201 232.61133 311.42773 C 233.85613 306.94927 234.0627 299.54754 240.42578 299.49023 z M 300.03125 304.83008 C 303.3741 308.02757 300.82018 313.89744 301.28906 318.09766 C 300.40845 322.57716 301.76429 328.31406 298.61523 331.94531 C 294.52858 331.14256 286.94689 332.66774 285.73828 327.03516 C 286.04276 322.72728 286.46979 317.28863 289.80273 314.24023 C 291.86046 312.36569 294.41514 317.72873 295.3418 314.17969 C 297.07504 311.59722 295.3246 304.23991 300.03125 304.83008 z M 220.71094 314.15234 C 221.32683 314.50233 222.39622 315.81602 224.14844 318.57031 C 226.68859 324.17673 231.00818 329.15886 237.4082 330.05273 C 242.88473 331.98655 248.56014 333.21187 254.28711 333.38086 C 259.11797 336.00882 260.45818 343.14759 257.58398 347.71484 C 255.0313 355.54037 253.53846 363.6941 251.16211 371.53906 C 244.29556 369.82505 248.18573 357.98384 240.0332 357.74414 C 241.6302 360.98781 239.08844 363.86039 238.72266 366.8457 C 239.86669 372.65706 243.06264 379.45661 240.15625 385.09766 C 235.73604 387.71757 234.25829 380.46427 232.60352 377.83984 C 231.89522 376.0012 229.50784 379.21486 227.9043 377.40039 C 226.11105 375.1807 223.09731 379.58638 221.05664 376.37891 C 219.77666 373.61517 216.9871 377.45703 214.61914 376.57422 C 210.83828 377.67863 207.67221 373.59171 204.26562 375.19141 C 202.8471 378.23175 196.92244 374.99164 198.18945 378.91797 C 199.22651 382.58632 194.05454 384.62705 192.66016 380.93359 C 191.34853 379.66187 192.67986 374.61103 190.08203 375.58789 C 188.67759 377.75587 190.48716 383.07559 186.24805 381.92383 C 184.18158 379.74067 185.03023 373.89966 180.78125 374.19922 C 177.444 375.26481 173.27829 374.24231 171.16016 377.83984 C 169.47718 380.44277 165.34979 382.76115 163.33398 379.40039 C 158.98029 382.92674 163.47712 387.4414 163.59961 391.56445 C 163.01946 396.70158 154.77989 397.5434 153.89453 392.0293 C 152.59431 386.40515 145.2893 384.26451 144.41992 378.7207 C 145.93221 376.42918 149.38679 375.79901 151.58789 373.81836 C 172.28997 365.17277 195.49003 369.34309 217.05859 366.33984 C 219.29634 366.03315 224.37917 365.07156 221.81055 361.80469 C 219.39916 359.60191 221.85715 355.1327 224.66016 357.83984 C 227.12089 361.00129 226.99413 357.80015 226.92773 355.26172 C 227.19116 348.73882 235.3939 347.84714 240.45898 347.77539 C 243.1008 347.68739 244.84565 351.83248 246.99805 348.43945 C 249.34215 346.34506 251.03271 341.77867 246.03906 342.69531 C 240.95541 342.66721 235.62091 341.75847 232.17578 337.625 C 228.44087 334.18672 220.2901 338.84643 218.40625 333.05664 C 218.43555 329.71926 222.83068 327.91223 221.1875 324.17969 C 221.0938 320.72909 218.86327 313.10238 220.71094 314.15234 z M 305.82422 335.17188 C 308.77887 335.36962 311.44966 336.26253 313.23438 339.32227 C 321.06484 346.5117 330.2555 352.61325 340.44141 355.73242 C 345.50177 355.28948 346.62121 361.59769 344.09961 364.93359 C 338.6328 375.74998 327.54382 381.49769 318.24609 388.41211 C 312.96039 392.06684 310.82593 398.1492 307.22461 403.07227 C 305.91771 405.24297 300.81084 404.26647 302.7832 407.88477 C 304.76256 412.18756 308.70752 415.17081 311.54492 418.87305 C 304.78688 418.96055 297.53753 422.33987 290.9043 420.24023 C 288.19648 417.75932 291.04452 413.88595 290.99609 410.80859 C 294.32118 403.86078 300.45834 398.5588 302.4043 390.80859 C 308.14752 379.42743 319.68518 372.53759 327.60547 362.96289 C 327.95455 358.32013 321.66766 356.32207 318.75586 353.60352 C 314.44598 350.73618 310.49514 347.13506 307.83984 342.81836 C 301.505 342.29543 295.13021 348.3852 288.74609 344.66602 C 285.56779 343.76497 279.51565 339.7298 284.05078 336.57227 C 287.99112 334.88951 292.52623 335.34624 296.70703 335.19727 C 299.63008 335.47226 302.86956 334.97413 305.82422 335.17188 z M 360.46289 337.7793 C 364.46759 337.51323 367.81866 339.82508 369.64844 343.13086 C 375.28991 348.01004 382.92025 348.48844 389.66602 350.60156 C 394.10075 353.95925 389.06875 359.67315 386.69141 362.71289 C 382.25961 364.65982 383.50771 358.25674 382.43359 356.08203 C 381.13047 353.40123 375.0658 354.97832 378.23438 357.76367 C 378.83851 362.50872 376.16812 368.46947 371.57812 370.27539 C 368.26925 369.89284 367.0234 375.81137 363.14453 374.18164 C 360.03455 376.20731 361.4905 382.02863 356.74609 382.36914 C 353.37071 383.20849 354.84873 388.29005 353.18359 390.75391 C 350.46275 396.23591 349.79343 403.22928 353.03711 408.54688 C 354.69817 413.46342 349.04178 415.83208 345.02734 415.20312 C 341.63605 414.98071 333.81909 416.79264 334.10547 411.18555 C 336.9319 404.72557 339.91649 398.27222 341.78516 391.47656 C 345.99433 382.94132 351.83089 375.27182 358.74219 368.81055 C 359.62869 366.47651 359.93605 363.35865 362.93359 362.92578 C 366.0514 359.87481 359.14361 358.25903 362.32812 355.36719 C 364.34537 353.91208 370.4326 354.29707 367.26758 350.53516 C 364.94936 348.55614 360.40992 350.69048 359.53711 346.69531 C 359.77827 343.14978 356.0749 343.92579 354.03711 342.51758 C 351.39318 338.77753 358.07344 337.69945 360.46289 337.7793 z M 153.08594 341.29102 C 163.44055 341.70179 173.53056 344.66029 183.75195 346.0332 C 190.03554 348.78031 194.54171 354.60448 201.38477 356.43945 C 203.87374 357.84793 211.02646 357.90038 208.55273 362.30469 C 201.11538 364.44418 192.85301 362.5571 185.16016 363.29492 C 177.44027 363.14372 169.68214 363.13802 162.44531 366.07422 C 154.99981 367.84205 147.00913 369.42099 140.58203 373.5957 C 138.2011 377.25192 135.23569 384.5593 129.62109 382.16211 C 127.62584 379.02464 125.60956 375.74196 122.47852 373.29688 C 120.33216 370.37329 114.41169 367.41827 116.27734 363.22656 C 119.51063 360.5888 123.55882 366.859 126.70312 362.76562 C 134.25226 355.46695 138.69542 342.72428 150.57227 341.45117 C 151.40649 341.35287 152.24604 341.30043 153.08594 341.29102 z M 117.78711 342.30078 C 121.91049 342.33668 129.14314 345.50809 127.05859 350.625 C 125.97535 353.0615 126.03315 358.16113 121.87109 356.875 C 117.66183 356.8294 110.07776 355.99293 110.97266 350.00391 C 111.77165 346.79087 114.02664 342.40551 117.78711 342.30078 z M 268.54688 345.41992 C 274.31185 346.1428 274.3467 353.74304 272.29492 357.83594 C 271.10528 366.57016 269.53247 375.33662 266.55469 383.53125 C 264.64837 388.92959 264.74497 395.20154 262.53906 400.33008 C 256.90807 402.88359 249.69216 395.98804 252.51562 390.07227 C 256.16913 383.5653 255.40448 375.7118 259.19531 369.19141 C 261.04679 365.43724 259.92749 360.63445 262.82422 357.42969 C 263.50949 353.43367 262.85911 345.87049 268.54688 345.41992 z M 285.36328 348.55273 C 292.24387 349.99711 299.15806 351.32364 306.13281 352.25977 C 311.51436 354.31485 318.58771 356.67864 320.66602 362.56641 C 320.22917 366.32916 315.07861 366.78135 313.22266 369.82422 C 309.41616 373.36819 305.36031 376.9626 303.2832 381.68359 C 296.96456 389.61481 291.92207 398.80667 287.21875 407.8125 C 284.60904 413.68784 284.76355 424.81066 293.32422 424.75977 C 299.25486 425.28072 306.21997 425.41594 310.27148 420.36523 C 314.16066 419.00393 314.21945 412.99392 311.14258 410.74023 C 308.427 403.3339 314.63162 395.91806 319.76367 391.16406 C 322.9111 388.29864 327.43847 387.47809 329.70117 383.87695 C 335.79494 382.45253 338.46784 375.30189 344.40625 373.31641 C 346.12816 368.59425 350.05148 364.73217 350.06641 359.4375 C 351.81488 356.16028 358.05641 355.89874 360.14844 358.7793 C 359.74142 363.06783 354.89239 365.69098 353.39062 369.75781 C 351.1094 373.8254 348.23311 377.88603 344.79102 380.72852 C 340.68314 387.27126 335.19909 393.46656 334.2793 401.48438 C 332.49875 403.62216 329.82694 404.82613 329.65039 408.23828 C 328.53818 411.64266 328.36249 415.26323 328.85352 418.79688 C 337.13292 419.21315 345.29495 416.61948 353.56641 417.12305 C 340.73551 427.49648 323.6511 429.76159 307.79492 432.08008 C 299.39467 432.51282 290.77049 436.53242 282.4043 434.51562 C 278.49342 432.26659 273.83578 438.06995 269.78125 434.91797 C 255.34666 431.47051 239.85529 434.32316 225.28125 431.18945 C 212.92879 426.59067 199.94026 423.46758 187.7793 418.16797 C 178.98646 415.17882 171.0037 410.517 163.20898 405.82812 C 154.68719 403.6841 161.97846 401.08964 166.18945 398.54102 C 170.04696 396.58635 170.47363 391.98796 171.21484 388.23242 C 183.63309 388.89 196.39479 386.97812 208.64844 389.36914 C 212.90421 391.29185 208.94652 395.80527 206.13672 396.87305 C 201.31214 399.25114 207.90276 399.79939 209.85156 400 C 218.93798 401.34224 229.21223 398.89238 237.46484 403.73242 C 240.87817 405.77859 238.63081 410.30614 240.60352 412.76562 C 246.87979 416.135 253.62696 406.7107 259.38086 411.49805 C 261.63233 413.83419 260.25334 418.32094 262.32422 420.20312 C 271.17892 410.93764 269.59831 397.0152 273.33008 385.48438 C 275.95095 373.90686 281.04839 362.82821 281.55078 350.87109 C 282.072 349.2709 283.75336 348.44161 285.36328 348.55273 z M 258.59961 460.06055 C 252.98065 461.21885 253.24916 468.61176 256.44141 472.17383 C 258.79991 479.29766 269.85129 477.5051 270.78125 470.43555 C 272.22912 463.60051 264.00924 460.33288 258.59961 460.06055 z M 258.59375 499.48828 C 251.47527 500.11082 252.21651 509.53163 254.79492 513.96875 C 260.54738 517.15858 270.25713 510.69614 265.83984 504.05664 C 264.52749 501.35879 261.67543 499.28024 258.59375 499.48828 z "
     style="fill:#000000"
     id="path22910"
     d="m 262.93945,2.046875 c -19.00753,-0.315736 -37.87133,2.840558 -56.66601,5.8125 -4.14947,0.032004 -7.59256,3.382498 -11.88477,3.806641 -28.90372,8.060826 -55.51741,21.911284 -80.60156,38.121093 -4.60506,2.40136 -7.614,7.13739 -12.26367,9.746094 -3.745135,3.580945 -9.830828,6.308723 -10.384768,11.798828 -1.240923,3.047158 -4.632272,0.35579 -5.90625,2.355469 -12.157619,12.365579 -25.658391,24.66946 -34.048828,39.95117 0.57943,3.6946 -3.400802,6.06223 -5.324219,8.24024 -0.901229,4.09888 -4.76666,6.14945 -5.628906,10.14062 -2.654756,3.97666 -5.065296,8.05642 -7.066407,12.31055 -7.850663,8.27378 -10.651427,19.98745 -15.210937,30.19531 -15.7524418,42.28045 -18.8532173,88.2527 -13.6152344,132.70703 3.4851827,27.86787 13.2692784,54.70009 24.7324214,80.16602 4.716286,-1.61432 4.736179,5.54889 6.207032,8.16601 1.635505,5.44469 6.41505,9.09752 8.65039,14.06446 -0.905639,2.59509 0.977374,6.49083 4.021485,6.09179 3.102536,1.62597 1.717308,6.13132 4.974609,7.36133 8.899364,11.2003 17.338437,23.01809 28.419922,32.16602 -0.201989,4.25828 5.59633,6.77029 8.025391,10.16992 8.855163,9.51216 19.443779,16.90778 30.476559,23.63672 16.40986,11.307 34.23549,20.45895 52.63868,27.68945 1.42745,2.59513 5.6134,1.37337 8.10351,2.9043 14.65775,6.01223 30.5949,8.40474 46.11133,11.04883 17.42805,2.65425 34.71758,5.99338 52.3457,4.33398 52.25795,-3.79413 100.89618,-27.21853 144.33985,-55.24219 8.57545,-5.38554 16.6608,-12.04379 25.53125,-16.66211 1.63003,1.91598 0.8468,-1.96631 3.68164,-3.03711 2.32557,-1.5106 3.10077,-5.24663 6.1914,-6.10546 2.1571,-4.31208 7.03502,-6.84091 9.61133,-11.01758 5.18377,-6.62373 12.19606,-13.57642 15.85547,-20.39649 -1.79964,-4.08079 3.62378,-7.21404 5.81055,-9.38672 2.11739,-5.18142 6.25601,-9.47372 8.33398,-14.8164 2.28887,-5.67067 6.96205,-9.78743 8.60938,-15.62891 5.49805,-9.45309 8.24426,-19.92654 11.67578,-30.06445 4.71896,-3.44193 4.67391,-10.51071 6.5957,-15.82617 2.21634,-8.60017 3.85164,-17.45685 3.39258,-26.30274 3.29184,-2.72426 0.93907,-8.37245 2.39258,-12.43554 3.41636,-16.46761 1.56905,-33.5878 1.52539,-50.25586 -0.004,-6.3304 -0.7304,-12.60936 -2.55078,-18.65821 -0.0582,-9.86536 -4.12637,-19.20639 -5.12305,-28.98437 -11.6618,-44.29078 -34.28254,-86.22046 -67.88867,-117.806643 -3.23053,-3.362975 -7.04295,-6.557269 -8.53711,-10.837891 -6.05997,-4.797883 -12.11728,-9.751052 -17.93164,-14.941406 -3.9902,-1.505424 -5.37804,-6.11092 -9.6211,-7.162109 -10.50574,-6.258435 -20.21255,-13.777504 -31.5,-18.667969 -5.36877,-4.208955 -12.84905,-4.63762 -17.71875,-9.605469 -11.65929,-4.84587 -24.389,-7.207775 -36.28515,-11.048828 C 333.87789,7.2080839 328.898,9.1307003 326.00977,7.7539062 305.20249,3.5593202 284.07373,1.895617 262.93945,2.046875 Z m 4.32617,12.197266 c 27.6393,-0.278979 55.31943,3.049645 82.17969,9.482421 12.70271,5.029963 25.45025,10.20828 37.55078,16.480469 6.70561,2.952892 12.63261,7.506084 19.56055,10.148438 12.67519,6.692199 22.73892,17.357946 34.73047,25.146484 8.83501,7.985323 18.54095,15.110879 26.50586,24.013672 1.32319,1.909095 1.57545,3.704165 4.00781,4.152345 7.33524,6.23482 13.83879,14.05293 17.66406,22.93164 0.0467,3.02394 3.59044,4.21315 4.32813,7.16992 6.51493,11.69878 12.9389,23.63553 17.37695,36.23047 5.66716,7.28934 5.39978,17.30325 8.53125,25.74414 1.1196,5.47772 2.61765,10.79761 4.65821,15.92969 0.80668,6.4972 0.19738,13.26982 3.16601,19.31445 1.28132,8.24249 1.70589,16.45968 2.95703,24.75977 0.11231,16.79879 -3.11254,33.33701 -3.96484,50.06836 -1.32,6.56834 -0.31175,14.34019 -4.25977,20.04687 -4.32182,2.4978 -4.27074,-4.32871 -3.77539,-6.87695 0.45699,-2.32608 -1.06301,-6.49296 -3.76953,-3.60742 -6.29757,3.30362 -14.09302,1.71053 -20.96875,1.89257 -7.16539,-0.0647 -13.75486,-3.48444 -21.02148,-2.44726 -5.897,0.43651 -11.20262,-3.28127 -16.875,-3.16406 -5.68754,6.59684 -2.46756,17.57773 -8.73047,24.06445 -1.02356,5.97754 -6.39391,11.59363 -5.25,17.5625 3.38037,1.28298 2.67065,6.67398 7.11719,6.66211 3.60415,1.86518 8.86052,3.22383 12.28124,0.9707 -1.54122,-6.8561 -10.89211,-10.63439 -8.95898,-18.625 1.32265,-5.57059 1.29368,-12.15548 4.80274,-16.85547 4.4024,-1.95745 9.50166,1.03771 14.1875,0.50782 11.84953,1.4682 24.41613,-0.42072 35.83398,3.51171 5.89682,2.57443 0.11568,11.38482 6.63867,13.16211 4.51074,2.35329 -0.75694,7.57702 -1.45117,10.91211 -4.97927,8.83245 -5.57106,19.18511 -10.76367,27.93164 -3.81881,6.85813 -5.81265,14.94242 -10.50391,21.25 -5.10754,1.51812 -2.66714,-5.33394 -4.25195,-7.7207 -5.22185,-1.42973 -7.60664,7.24201 -11.58985,7.34766 -5.68392,-3.35357 -12.06594,-4.71089 -18.36328,-5.99024 -3.76708,-2.99871 -9.75776,-0.40427 -13.40625,-3.88281 -9.76171,-0.22909 -18.91198,-4.66855 -28.49609,-5.41602 -5.66888,1.89901 -2.56731,9.68392 -1.49805,13.94532 3.49411,10.23545 8.27874,20.1293 11.1543,30.52929 -0.23058,5.3305 5.31032,10.95518 2.29687,16.00586 -2.5622,1.22654 -7.55349,3.51439 -6.02734,7.01368 4.23582,3.48513 8.53203,-0.82596 11.78906,-3.37696 5.86043,-2.64404 9.74538,-8.82416 13.08789,-14.13281 2.62007,-4.15305 -3.02316,-7.47761 -6.04101,-4.13867 -2.07174,2.75746 -6.01416,0.8613 -5.4707,-2.43555 -2.55059,-9.64244 -9.77759,-18.01807 -10.49219,-28.07812 1.43499,-4.99297 7.74148,-1.49334 10.70312,-0.16211 9.40634,3.12936 18.67434,7.23869 28.69531,7.68554 3.25019,0.0158 5.02774,4.8112 1.67969,6.04297 -0.7071,6.47493 7.53656,3.18357 8.88477,-0.58008 2.42174,-3.9908 5.91404,-9.68623 11.10937,-9.45703 3.92542,2.82338 -1.01325,7.48731 -2.91406,10.17774 -14.91379,19.24566 -32.75659,36.1863 -51.9668,51.08984 -12.88603,8.28601 -24.54539,18.90426 -39.51562,23.40039 -4.79327,2.23655 -11.27362,4.24015 -14.33789,5.92969 -6.1375,4.54402 -2.60977,-5.77312 -5.40039,2.23047 -16.98288,6.2549 -33.28654,15.19306 -51.33203,17.96093 -2.73449,1.35776 -7.85956,-1.10802 -4.53907,-4.02929 5.72295,-3.9028 14.49267,-2.87917 18.51172,-8.90821 0.68804,-9.65467 -4.39157,-18.69826 -4.86523,-28.35546 -0.0646,-4.33154 -2.69083,-9.89041 -0.78711,-13.51563 3.95556,-1.20482 6.54259,4.72349 9.75195,6.56445 11.27345,10.38803 25.64015,16.43438 37.87305,25.55664 6.1122,-6.65841 17.1341,-7.97625 21.98242,-15.99218 -1.02686,-5.01262 -7.30031,-2.98156 -9.43359,0.0566 -2.00309,2.47571 -7.58672,4.50684 -8.39063,-0.0215 -0.47797,-4.37169 -4.35363,-7.7078 -4.07226,-12.34961 -3.98943,-7.98807 -7.66935,-16.60426 -8.10547,-25.69921 0.71085,-4.70302 8.17408,-5.13432 8.68945,-9.4668 -6.37231,-1.57093 -13.50013,1.92865 -18.52539,5.79297 -1.26824,5.33723 3.56822,10.13145 3.60156,15.57031 3.28885,8.75053 7.69435,17.12395 9.0918,26.50977 -4.89284,-4.32153 -10.09308,-8.03938 -16.07422,-10.47266 -5.6322,-3.94683 -11.26852,-7.98036 -17.52539,-10.74414 -1.14793,-3.03107 -3.13031,-5.93111 -6.78516,-6.5332 -3.08836,-1.32114 -7.76183,-0.59158 -6.99023,3.75586 -1.33035,10.95188 -0.53071,22.0568 1.61914,32.73828 0.0645,4.22374 -5.32083,3.0921 -6.04688,-0.20704 -2.00112,-6.11597 -7.47208,-9.48172 -11.67968,-13.85351 -1.54898,-2.42419 -3.10054,-4.55282 -5.47071,-6.03516 -2.7214,-5.09279 4.78197,-8.5075 4.13477,-13.09765 -2.40121,-3.34336 -7.21365,-1.31553 -9.60938,1.03906 -5.69454,3.12248 -13.0476,1.41982 -18.38281,4.91602 -3.49517,3.82623 2.85785,4.97441 5.54883,4.14062 8.61246,-1.38454 13.65426,7.48448 16.44531,14.17383 4.7837,9.00559 12.99561,15.66812 17.14649,25.13281 4.40361,5.17851 -6.36526,3.01297 -7.70703,7.3418 0.8116,2.30952 5.52601,5.90388 1.20117,7.64453 -18.92697,2.15779 -37.82256,5.80428 -56.99414,4.90625 -28.79834,-0.52717 -58.13665,-5.73684 -83.7793,-19.0957 -7.21554,-3.22862 -15.22655,-6.03492 -21.01562,-11.50586 -0.54846,-4.98716 5.97575,-2.5628 8.13281,-0.64063 5.50143,4.28519 9.00891,-3.88316 11.52344,-7.66992 6.69606,-11.63336 13.1552,-23.41888 20.78515,-34.48242 -1.37851,15.53444 -2.06287,31.16917 -0.80078,46.68359 -0.55881,2.59972 -3.00131,5.35739 0.22266,7.39063 5.91194,4.79387 14.37356,9.36002 22.08984,6.97265 3.31593,-2.73044 -0.65658,-6.78171 -3.97852,-6.41797 -3.8618,-3.02378 -0.10446,-8.6442 1.27735,-12.13867 2.2133,-5.46758 7.83857,-8.30188 9.55469,-14.03125 1.94247,-2.20849 3.66215,-4.04166 4.9414,-6.81836 5.8267,-7.04652 11.33136,-15.58164 20.41406,-18.50976 0.36701,-3.50196 -5.69556,-4.63536 -8.3496,-4.91797 -5.98277,-1.82752 -9.04395,1.48135 -10.81055,6.93945 -6.11441,11.0575 -13.25713,21.66193 -20.93945,31.62695 -4.16224,2.00926 -4.51669,-4.28305 -4.25782,-6.90429 -0.50669,-12.37535 1.38204,-24.99657 -0.71289,-37.22266 -2.78532,-4.50327 -7.03772,1.52671 -9.62304,3.23828 -4.40984,3.82743 -8.64628,8.04558 -10.72657,13.49414 -1.598,3.73643 -7.87088,4.24667 -8.16406,-0.51172 -0.36654,-5.83131 3.92808,-10.78816 3.80078,-16.69921 0.12768,-3.39561 0.91993,-9.92076 5.92578,-8.29688 3.01845,1.70601 6.61521,-2.31449 3.33985,-4.58203 -3.97762,-3.08365 -9.76817,-1.83567 -13.82032,-5.23242 -3.51322,-2.34964 -7.47645,-2.79846 -11.48046,-2.64258 -3.89324,-1.83977 -4.7962,-7.04295 -9.08594,-8.63867 -7.28759,-3.07119 -13.45287,-8.85685 -20.78321,-11.41797 -3.70457,4.21852 0.28488,9.53319 4.88868,10.47656 4.02706,1.29088 2.74123,6.17244 -0.043,8.08789 -4.48623,5.25798 -11.52124,9.06311 -13.04688,16.16211 -3.08408,5.09483 -7.46825,11.69685 -14.01172,11.86914 -2.29617,-1.80853 -5.785013,-2.05009 -7.056636,1.20508 -2.121922,3.86369 2.643296,3.97817 4.291016,6.11133 3.50312,1.59584 7.05241,4.52577 9.92773,7.50195 2.16506,2.25922 9.86416,4.51753 9.76954,-0.28711 -1.49568,-2.64656 -3.92493,-5.75348 -1.38672,-8.71875 6.72178,-9.43792 15.71117,-17.17534 20.82617,-27.64453 1.89,-4.35273 6.67384,-3.53468 10.27148,-2.27734 5.68102,0.59537 12.50452,3.7935 14.17578,9.61718 -1.80366,8.90927 -4.37816,17.64201 -7.19921,26.28907 -2.29052,6.85527 -0.98966,15.03235 -4.8418,21.24218 -4.30346,4.18595 -10.35195,-3.22335 -14.48047,0.375 0.0679,2.85999 -1.83067,6.19145 -5.20313,5.16797 -12.90686,-3.89299 -21.18016,-15.61174 -32.5371,-22.23242 -13.410802,-10.92315 -26.485159,-22.90843 -36.005864,-37.45508 -1.790072,-2.30954 -0.951572,-5.95613 2.091796,-6.24218 2.554232,-4.35206 -2.912711,-9.56289 1.400391,-13.4629 8.885034,-8.9239 20.287207,-14.89275 30.435547,-22.24023 3.25838,-2.59914 7.75589,-2.21343 11.18555,-3.77148 1.49317,-4.63834 -4.95572,-7.68262 -7.10742,-11.31055 -4.673805,-4.96745 -9.514897,-10.06227 -12.271489,-16.28906 -3.891794,-3.42038 -6.443089,-8.0638 -8.212891,-12.72266 -3.470612,2.66767 -7.902402,4.2076 -12.232422,2.43359 -2.440279,-1.01868 -7.820738,-1.97853 -6.285156,2.40039 2.980682,3.24163 0.07294,9.52072 5.800781,10.36524 4.501861,2.1653 9.325794,-1.24138 13.693359,0.18555 4.846289,3.97812 6.956189,10.57015 11.652344,14.83984 3.327296,2.05886 0.199641,5.83851 -2.798828,5.81641 -3.993254,1.72767 -6.465799,5.68346 -10.875,6.65234 -7.883349,3.9499 -14.220113,10.23103 -21.365234,15.15039 -3.28334,1.86924 -7.340287,-2.88043 -10.083985,-0.55078 0.196077,2.61199 1.425894,8.57012 -3.251953,6.7207 -5.463116,-7.1231 -7.010977,-16.66791 -11.507812,-24.25586 -6.78126,-12.65143 -11.513807,-26.19543 -15.175782,-40.03515 -2.806619,-7.36838 -4.616254,-15.04299 -6.367187,-22.71485 4.242375,3.32732 6.906581,9.84081 12.167969,11.41993 1.102204,-2.8472 0.72335,-7.60111 4.917968,-8.0293 12.769532,-1.09253 24.723536,-4.50991 37.083985,-7.42774 4.229414,-1.28673 9.215022,0.21121 10.265625,4.84571 3.390947,2.86623 6.042008,-2.6084 4.910156,-5.56641 -1.664176,-6.9775 -3.74997,-13.91164 -5.533203,-20.83789 -0.930598,-4.39701 -6.733304,-3.5124 -6.751953,0.65234 -0.72795,3.66878 2.036554,10.31716 -2.625,11.99414 -16.528725,1.72351 -32.613038,7.00346 -49.123047,8.27344 -4.507245,3.03463 -7.102438,-3.19123 -7.876953,-6.64453 C 7.553597,293.72866 8.3336316,280.28503 7.2050781,267.2832 6.7079763,248.0593 9.805123,228.8933 13.306641,210.07227 c 5.112139,-18.37366 11.840133,-36.21219 19.777343,-53.48829 2.607924,-9.28309 8.384888,-17.42966 12.384766,-26.17968 14.571636,-22.95431 34.248425,-42.336282 54.91016,-59.816409 7.29191,-6.488867 16.01245,-10.788597 24.69336,-15.00586 20.98319,-13.933045 44.34052,-24.807032 68.58984,-30.839843 11.92527,-2.038514 23.09741,-6.950481 35.21875,-8.103516 12.65026,-2.389416 25.56372,-2.307075 38.38476,-2.394531 z m -8.70117,6.08789 -0.16601,0.01172 c -5.48072,2.009511 -5.98935,10.323348 -1.55274,13.802734 2.9814,3.428307 -0.41083,8.355473 -4.66797,7.671875 -6.39136,0.574794 -11.93541,-3.893449 -17.96875,-4.132812 -2.12633,5.676912 1.70361,12.859975 -2.01757,18.060547 -1.17598,4.752439 3.91722,5.775589 7.29687,4.101562 4.09841,0.08741 9.65429,-4.529696 13.12305,-0.80664 1.31834,6.241282 -3.47013,12.208045 -3.94336,18.439453 -1.28784,4.838957 5.19945,5.844191 8.52148,4.482422 6.38055,-1.451942 13.61703,2.035045 19.39453,-1.333985 2.59838,-7.703637 -8.66739,-11.957644 -7.02343,-19.371094 3.84859,-4.849159 11.39673,-2.247699 16.6914,-3.02539 5.56878,1.302868 5.06773,-6.399779 6.08008,-10.240234 0.0726,-3.430504 0.8406,-10.442863 -3.68555,-11.119141 -3.68757,2.442445 -8.32402,2.349072 -12.14843,4.039062 -3.73131,2.603766 -5.09593,-3.175436 -3.64063,-5.761718 -0.0699,-4.437384 6.22809,-8.51299 3,-12.632813 -5.24334,-2.713319 -11.68698,0.265697 -17.1582,-2.183594 l -0.13477,-0.002 z m 83.53516,11.498047 c -5.04226,0.681657 -9.11387,4.332778 -13.95313,5.796875 -6.39676,6.821406 -4.03847,17.410703 0.35743,24.669922 1.68246,4.485929 2.33465,9.274179 3.58789,13.828125 -1.24983,9.997044 -16.02488,14.068169 -22.76563,6.689453 -5.32591,-5.062969 0.87204,-12.529476 0.34961,-17.875 -9.02589,0.998193 -13.96955,12.955169 -7.53711,19.691406 9.99083,10.738588 31.23347,8.778681 36.56836,-5.853515 2.66642,-8.007367 1.62687,-17.085086 -0.56445,-25.044922 -2.33928,-4.040908 -6.96833,-11.596836 -0.9707,-14.742188 9.66167,-3.435492 21.02626,5.258986 20.27343,15.515625 0.12234,3.20764 4.26253,4.526062 4.67383,0.59375 3.18349,-11.245093 -9.13212,-23.338168 -20.01953,-23.269531 z M 163.70508,42.828125 c -7.45188,1.665715 -14.59187,6.325486 -19.16406,12.404297 -0.4378,1.928884 3.26846,2.254365 3.44726,4.503906 5.38768,9.764569 11.52751,19.500935 14.85547,30.160156 -1.53158,4.733194 -6.73654,-0.430353 -9.53906,-1.441406 -5.46323,-3.591109 -11.45612,-5.942046 -17.65821,-7.677734 -4.17612,-2.740975 -12.41597,-2.990306 -11.85742,-9.765625 0.63614,-5.69767 -6.01692,-2.17725 -8.10937,-0.214844 -3.92593,3.280157 -8.8931,7.216381 -10.63086,11.666016 6.76365,3.306204 5.77594,12.780312 10.77734,17.701169 5.2382,11.43012 9.89843,23.20795 15.71875,34.41016 -2.02976,2.51031 -9.40041,7.6049 -4.86719,10.84961 2.44353,-0.0555 8.76437,-1.37823 6.77344,3.30273 -6.22589,7.22604 -12.16701,14.72309 -17.69726,22.51367 -2.8084,2.23322 -5.68292,8.82621 -8.53516,12.7793 -2.33845,4.8328 -6.77386,8.54686 -8.822266,13.35742 -1.188587,12.43848 -7.545583,23.63593 -8.789062,36.10157 -1.440367,3.5653 -0.705707,9.61234 -4.830078,11.30078 -5.324929,-1.54048 -1.126105,-8.92253 -1.078125,-12.39258 0.584964,-4.93224 3.388663,-10.10869 2.412109,-14.94922 -2.909555,-0.60511 -4.916815,1.47433 -4.101562,4.35742 0.370089,5.8355 -5.685121,8.92555 -10.810547,7.69922 -11.704117,-2.20427 -23.558601,-2.52991 -35.292969,-4.32617 -4.889165,-0.34879 -9.615591,-4.78492 -7.318359,-9.92578 2.989185,-6.85735 12.494795,-3.1366 17.611328,-7.15235 3.339383,-1.24124 5.846005,-6.92025 0.888672,-7.83789 -5.4561,-0.82953 -11.114562,-0.63586 -16.576172,-1.27734 -8.287921,3.03616 -6.169387,14.11015 -7.898438,20.89062 -0.965595,11.42057 -3.339693,22.62881 -5.195312,33.88477 0.192074,3.14959 -1.758835,9.55063 3.599609,8.54297 6.937362,0.19015 14.3117,0.41553 20.878906,-1.86719 2.27875,-5.63575 -4.4393,-10.63413 -9.677734,-8.91797 -6.320097,-0.18604 -6.286196,-8.14728 -5.441406,-12.66015 -1.129187,-6.45554 2.540419,-6.84659 7.853515,-5.1543 10.828178,2.39944 21.54611,3.41392 32.580079,3.71094 3.509174,0.72202 9.229009,0.017 10.839843,2.38476 0.39106,3.29676 -2.200288,8.31269 0.330078,11 2.372399,-1.58771 7.436082,-3.08412 7.470703,1.4375 -1.178002,8.17511 -2.76836,16.13542 -1.521484,24.45703 0.389122,12.20787 3.894488,23.86731 7.011719,35.55469 2.874145,17.93917 8.005791,35.9174 17.085933,51.73242 9.994,13.91134 21.96273,26.793 37.35157,34.82813 22.59222,15.19933 46.53367,28.63507 73.13281,35.30469 6.33355,2.92872 13.51429,2.01955 19.95898,4.06445 6.72075,2.64322 14.6998,0.5372 21.64649,3.07812 23.57715,-0.0493 46.99433,-4.35408 70.07812,-8.84179 5.87015,-0.69672 10.93796,-3.30506 16.09571,-5.76563 7.90159,-2.20582 14.5665,-7.39661 21.49609,-11.45312 24.9478,-19.3723 48.54174,-41.74397 62.16602,-70.71094 7.31233,-14.00365 11.07254,-29.43396 17.75586,-43.73633 2.44465,-5.38174 0.74988,-12.2441 1.73046,-18.1543 1.32253,-25.61034 -3.13971,-51.28834 -10.6289,-75.82031 -5.72864,-15.21951 -11.44308,-30.70408 -22.48633,-42.91211 -7.66425,-8.50419 -14.3338,-18.18463 -23.40039,-25.1582 -6.51657,-1.97891 -7.22359,-10.02302 -12.73438,-13.39844 -4.30375,-5.29003 -12.29877,-4.85432 -16.72656,-9.54883 -0.83497,-4.02335 5.17125,-3.07922 6.39649,-6.34765 5.87428,-5.67265 10.69633,-12.341791 14.69335,-19.355471 6.76885,-7.136458 11.33499,-15.844014 16.59961,-23.994141 1.65315,-2.563713 8.67281,-2.238346 5.49415,-6.505859 -3.39471,-4.311518 -11.30932,-6.691689 -15.9043,-3.419922 2.21732,7.222661 -4.41995,13.036534 -8.49414,18.125 -6.05718,5.208917 -8.14864,13.202112 -12.9375,19.498047 -2.95038,3.383772 -2.81825,8.907006 -6.32227,11.580076 -2.35579,-0.47619 -4.5828,-3.28125 -7.93555,-2.26562 -2.96728,-0.0289 2.15508,3.28418 -0.56445,4.74804 -4.39974,2.0428 -7.86394,-4.08169 -12.05664,-4.71093 -11.77887,-5.357853 -25.17514,-3.802876 -37.24414,-8.041019 -23.98807,-2.415347 -48.39489,-2.403628 -72.4707,-0.117188 -16.88482,4.571792 -34.3966,7.616087 -49.94922,16.146487 -6.99492,3.61529 -14.6832,6.19848 -21.64063,9.58984 -5.69224,3.95152 -9.21934,11.10687 -15.63672,13.8711 -3.72726,0.3523 -1.90907,-5.41548 -5.74804,-4.91993 -4.88824,-1.61077 -3.00281,-8.18675 -5.74414,-11.5625 -3.20134,-9.26022 -9.00684,-17.29699 -12.63867,-26.349606 -1.74907,-3.874349 2.87408,-7.361219 6.14453,-4.664063 10.97105,6.530386 22.69534,11.927963 34.44726,16.880859 3.65038,1.58117 12.25644,2.91097 11.13672,-3.64648 -1.10549,-6.219654 -4.21945,-11.954687 -6.03516,-17.945316 -1.24956,-2.718283 -6.84307,-7.209803 -2.45507,-9.587891 5.62695,1.054918 8.70428,7.462275 14.28711,8.900391 3.22794,2.196309 7.0018,7.237753 3.65039,10.75 -0.34462,3.22448 3.05841,6.411682 5.41211,3.064453 2.16775,-3.18409 5.11558,-5.629001 8.67968,-6.792969 4.13282,-4.579463 11.91264,-3.285 15.85352,-7.705078 1.27409,-5.050036 -4.72504,-4.466401 -7.44922,-2.71875 -4.01462,1.176076 -8.28843,5.549645 -11.91992,4.839844 -9.54564,-10.052439 -20.89602,-18.592821 -29.26563,-29.683594 -2.77894,-3.529832 2.75285,-7.191865 1.01172,-10.408203 -0.48682,-0.201197 -1.0358,-0.196319 -1.55273,-0.169922 z m 268.67383,48.529297 c -4.13144,0.696261 -8.38605,1.690125 -12.3418,2.830078 -7.31274,5.551901 -14.47342,12.05027 -19.23828,19.94922 -2.88455,10.2375 0.59787,22.20528 9.0039,28.82422 3.16393,4.21453 5.68173,11.34655 12.40235,9.33203 7.95686,-3.02013 14.63962,-8.82903 22.64062,-11.9707 3.77776,-1.20476 5.78704,6.6153 10.13868,6.20312 2.07157,-8.01464 -3.23355,-16.29621 -8.29883,-22.19727 -2.04687,-2.89987 -10.10765,-5.06929 -9.5625,0.2168 2.4792,3.26667 5.05917,10.5743 -0.9336,11.57422 -6.08928,2.90941 -12.68488,10.80396 -20.11328,7.05078 -5.1001,-3.24756 -3.12839,-10.33238 -5.13281,-14.80859 -4.69797,-4.54436 0.6208,-10.96912 4.10156,-14.4375 8.01912,-7.26943 18.22111,-14.982069 29.6582,-13.960939 9.84459,0.695119 18.06614,10.081319 16.26758,19.953129 -0.29981,4.18484 4.70038,-0.35763 6.49024,-0.41993 3.00144,-1.77784 2.36495,-7.20266 1.01367,-10.08984 -1.55582,-1.78589 -1.11118,-3.97722 -3.32617,-5.05664 -5.79318,-7.846216 -16.45319,-10.072829 -25.41797,-12.333985 -2.42365,-0.43323 -4.88483,-0.739 -7.35156,-0.658203 z m -164.71875,5.820312 c 19.62934,0.371957 39.96913,0.67752 58.50976,7.839846 5.81796,2.6466 12.58864,2.11043 18.34766,5.21875 10.7294,3.94076 19.58167,11.23614 28.37304,18.25586 14.94446,13.99259 30.3708,27.79918 42.29493,44.55469 12.9086,15.44294 16.79115,35.94395 22.9375,54.58984 4.17523,15.09335 5.04158,30.88528 5.69531,46.47851 -0.0487,18.2521 -3.31372,36.93341 -11.39258,53.38672 -2.18176,3.35516 -5.5896,-0.65001 -3.82617,-3.3789 3.24201,-11.01009 -0.42273,-22.28935 -0.0625,-33.39063 0.7113,-7.06816 5.39584,-14.56897 1.80469,-21.30469 -6.62944,-2.66602 -13.66794,2.08844 -19.81446,4.40821 -4.01248,2.87464 -9.55341,5.85888 -14.10937,2.1582 -9.45988,-7.58149 -18.98647,-16.53137 -31.09766,-19.29883 -3.24114,-1.40096 0.81621,-6.13296 -3.46679,-6.33789 -11.89425,-2.73204 -24.10729,-4.01104 -35.98243,-6.85156 -5.7336,-1.39788 -12.36027,0.0952 -17.66797,-2.46289 -3.2173,-2.8005 -0.14134,-8.5422 4.03711,-6.96094 19.42033,1.71169 38.31558,8.66857 57.94141,7.70313 2.53258,0.34842 4.55944,-1.87479 1.69336,-3.60743 -7.35534,-5.1864 -17.25888,-3.16526 -25.6875,-5.35546 -9.48061,-2.93691 -19.4534,-3.01902 -29.23633,-4.42579 -3.87923,-0.049 -10.46471,-3.34543 -6.78711,-7.8457 3.23475,-4.01158 -0.6226,-9.41931 -0.21875,-14.05078 0.0513,-3.46326 -2.19257,-5.57146 -5.04687,-6.49609 -3.18813,-3.24539 -4.09266,-8.40651 -5.4375,-12.17383 -6.48818,-5.76781 -3.63148,-15.85018 -1.33594,-22.9336 0.96933,-4.34715 3.15154,-10.01247 -1.05469,-13.33398 -1.96105,-3.76757 1.50036,-7.87465 0.63867,-11.95312 0.75834,-5.88749 -3.5668,-10.58694 -5.1621,-15.97852 -2.3363,-5.01365 -6.31178,-10.101 -12.57813,-9.21875 -4.72892,-1.46504 -9.84344,-0.39176 -12.44336,4.10547 -5.52084,7.76211 -9.75133,17.22678 -8.46289,26.89844 -0.14334,3.07582 -4.6842,3.20641 -3.02344,6.80078 1.21377,6.77895 0.14648,13.55559 -1.00781,20.20312 -0.35544,2.94166 1.4612,4.84386 4.09375,5.28906 2.14082,1.72384 1.46799,4.63631 3.23828,6.52344 0.65991,4.28018 0.12477,9.49138 5.25,11.31641 5.77831,2.96093 -4.45078,4.41683 -6.65625,6.9414 -2.65995,2.23809 0.20251,10.78673 -5.72265,8.76172 -2.95585,-2.54368 -1.71743,-7.57429 -6.04493,-9.33203 -2.44786,-1.31302 -5.32746,-1.61061 -7.65039,-3.3164 -2.68619,0.0656 -7.2959,-1.85568 -4.59179,-5.07422 5.68245,-6.48919 8.87894,-14.86503 10.85742,-23.09375 3.65333,-4.70193 2.9891,-12.56124 -2.25586,-15.82032 -2.66198,-3.90774 4.4367,-4.27176 3.50781,-8.16796 0.20976,-9.28512 -2.00283,-22.11003 -12.63672,-24.73633 -6.98969,-2.38324 -17.60251,-2.06799 -20.49023,6.07226 -5.96984,6.84643 -6.95146,16.44685 -8.23242,25.0918 -1.80625,2.05275 -2.81596,5.20933 -0.17383,7.33008 5.99696,4.15073 0.0687,11.87858 1.06445,17.53125 0.44498,3.23645 5.46522,0.77947 6.82031,3.82422 2.15782,1.94933 1.07251,4.88292 -0.63867,6.53515 -1.74687,4.25228 2.89831,6.48692 3.10938,10.08399 -1.90601,4.89837 -7.62281,7.27777 -9.75196,12.14843 -4.05319,2.06359 -6.71653,-3.87389 -10.64453,-4.3496 -3.83983,-2.48443 1.78211,-5.73706 0.12305,-8.96094 -1.09412,-6.34127 -2.2957,-13.8349 -7.01563,-18.42774 -5.18966,3.51182 -4.6179,11.56936 -4.34765,17.14649 0.44592,0.57494 4.39741,-4.3783 5.73633,-0.39844 0.0985,4.63514 -2.11939,9.91083 -5.66993,12.92773 -1.18993,2.55962 -2.57486,7.41187 -6.64843,6.13086 -5.03504,-2.23214 -10.55472,-5.43132 -13.33789,-10.33398 -1.17242,-4.20059 4.9412,-5.1757 4.70898,-9.18359 3.35688,-3.7727 4.76703,2.95918 6.87305,4.16406 4.19715,-0.76944 1.32819,-3.22323 0.98047,-5.61524 0.10031,-1.90836 1.53731,-2.99323 -0.21485,-4.7207 -0.64694,-3.17566 -1.95416,-10.22393 -6.50586,-6.7207 -0.83665,2.74399 -3.22872,6.76238 -6.60156,4.41211 -3.97485,-3.30229 -9.76035,-3.13437 -13.04883,-7.56836 -2.94205,-2.50854 -4.62872,-6.06889 -5.05273,-9.73633 -4.33787,-5.70058 -13.96905,-0.42015 -17.62696,-6.67773 -0.83937,-3.46362 3.8439,-4.02971 4.0918,-7.18555 1.84725,-3.18453 5.10719,-5.94912 8.15039,-7.35938 4.74527,-9.05897 14.58218,-14.09463 22.53321,-20 11.84235,-8.01469 24.79606,-14.23486 38.07226,-19.36523 20.4838,-8.546876 42.88696,-11.421839 64.97852,-11.328126 z M 81.554688,109.74023 c -7.479471,1.8428 -15.334536,7.10109 -18.183594,14.4336 0.632492,2.72183 -2.636163,4.03939 -2.664063,6.15429 1.618635,4.24151 5.930917,2.6326 9.207031,2.49415 7.315809,3.18982 11.425745,11.01823 17.710938,15.75585 4.024095,3.70298 8.390571,7.00757 12.57031,10.5293 l -46.791013,0 c -0.879101,-3.03977 0.415657,-8.49361 -2.138672,-10.54101 -6.115792,6.02792 -8.230799,15.18045 -8.677734,23.45312 0.967735,4.87003 6.100175,0.26111 7.919921,-1.69531 5.134488,-4.18153 11.965258,0.1343 17.820313,-0.76172 15.537045,0.64215 31.193839,0.41468 46.792965,0.55664 -7.71939,-15.21698 -20.006129,-27.34132 -30.582028,-40.58594 -1.710764,-3.10082 -5.402003,-7.09996 -4.59375,-9.88086 3.855088,-1.49938 10.196798,-9.21484 1.609376,-9.91211 z m 199.166012,8.25 c 3.87525,0.49284 2.00354,4.72616 0.35547,6.61133 -1.2907,2.67893 -1.6876,5.84302 1.06055,7.3711 1.36408,3.50032 -1.56901,6.99159 -0.74414,10.61523 -0.66393,4.32522 -5.43558,6.63028 -9.28906,4.50391 -5.3076,0.30474 -10.45052,-4.27808 -8.91407,-9.82422 2.20971,-8.30851 8.21481,-16.99686 16.90235,-19.26563 0.2091,0.009 0.42,-0.047 0.6289,-0.0117 z m -55.48632,8.82422 c 6.80061,0.67553 7.7119,11.00064 2.51953,13.98438 1.96845,0.81472 5.15502,1.38342 4.36328,4.50781 0.18931,5.14053 -6.90942,4.08207 -10.25,4.22656 -3.48861,-0.27712 -11.25191,-0.14851 -9.81055,-5.66015 2.22402,-6.19519 5.15757,-13.38083 11.10156,-16.7793 0.67081,-0.21126 1.37255,-0.31742 2.07618,-0.2793 z m 65.60937,29.27149 1.08203,5.98437 c 0.83777,9.60057 -1.89073,20.53788 -9.48047,26.89649 -4.49207,2.13578 -11.22701,3.4832 -15.19531,-0.15625 -2.03715,-2.63365 3.16187,-4.21033 0.24805,-6.37891 -1.86763,-2.27542 -0.14595,-5.54473 -1.76563,-7.53516 -1.86798,-1.97121 -5.87114,1.00316 -6.22851,-2.91796 -0.0229,-4.86315 0.89927,-12.2453 6.41211,-13.75391 3.06345,-0.23911 3.69448,3.02986 2.76367,5.22461 0.0635,5.2094 8.89076,3.19105 6.48047,-1.54102 -0.62481,-4.27205 6.2259,-4.96001 6.27343,-0.57031 0.49199,7.35905 -2.86512,16.14215 -2.36523,22.32813 5.42076,-8.53035 6.78285,-18.87607 11.77539,-27.58008 z m 208.72266,6.15429 c -4.51017,2.13196 0.83945,9.06879 -3.57032,11.86329 -5.86862,4.08897 -13.77046,3.20453 -19.85156,7.08593 -8.46947,3.98139 -17.47005,7.63993 -26.73828,8.06055 -4.77461,-2.16482 -1.47157,-11.3462 -7.66016,-11.7793 -4.39077,2.80903 -0.59893,9.27892 0.29297,13.03711 3.28016,6.24213 4.52239,13.5721 8.51758,19.34571 3.95605,2.50001 5.28729,-4.81387 3.20313,-7.19922 -0.61331,-5.49717 7.32551,-5.4334 10.80273,-6.97657 8.29195,-2.05813 16.35811,-4.85566 24.05664,-8.36914 4.96671,0.11195 9.32877,-3.20681 14.14258,-3.16406 2.6331,1.6112 2.11603,5.72119 4.96875,7.56836 1.88929,1.42029 5.72213,-4.13168 3.16797,-6.50195 -4.09772,-6.92749 -5.51467,-15.16078 -9.29492,-22.07227 -0.54781,-0.51073 -1.25967,-0.94969 -2.03711,-0.89844 z m -353.10352,20.15039 c 4.54181,1.71128 7.25393,6.69006 12.10938,8.1875 3.46809,0.89368 6.62052,4.94719 3.18164,7.80469 -2.92693,3.06422 -8.42901,3.49411 -10.92188,-0.33593 -4.09864,-3.89487 -12.40718,-4.25664 -13.87695,-10.45508 0.49129,-4.52131 6.40016,-1.75215 8.17187,-4.96485 0.40125,-0.20739 0.88839,-0.27075 1.33594,-0.23633 z m -35.11133,6.85743 c 7.469,0.84655 12.01683,10.00866 20.03125,8.30859 6.03222,0.85876 10.70935,5.44718 16.44531,7.14258 2.67415,2.10162 -0.21029,6.55707 1.63672,8.3125 2.29447,-3.85172 9.10198,-0.14619 6.4375,3.86523 -3.39956,4.5674 2.5544,10.83663 7.16211,7.35547 5.46885,-0.21565 10.98962,2.92125 14.80469,6.65625 2.50386,5.06545 -4.55332,7.92451 -7.76953,10.21875 -4.65444,3.00198 -7.15819,-3.88833 -11.04688,-4.93359 -5.43507,-3.41712 -13.98318,-7.0868 -13.91796,-14.65235 0.4955,-1.91955 2.23725,-5.13119 -0.84961,-2.42187 -5.40201,5.22434 -11.21978,10.05862 -17.29688,14.39062 -1.54756,2.75488 -5.54601,2.97465 -6.44336,6.47852 -2.61549,5.47305 -6.76115,13.34423 -2.12304,18.72656 3.05968,1.57169 8.92992,-3.74405 9.93945,1.82227 3.4253,3.88865 10.14192,4.28254 15.16015,3.75586 5.54921,-2.90122 12.47676,0.8567 16.12305,5.24023 3.28076,3.43977 7.35259,-0.91181 11.09766,-0.57812 3.04625,0.48845 9.73604,-2.0021 9.20117,1.91406 -1.1593,14.92804 -2.86394,29.80442 -4.58594,44.67578 -6.52485,0.4344 -13.99333,-2.36842 -20.12695,0.4375 -2.76207,1.8675 -6.6388,0.20724 -8.51953,3.17773 -5.58899,1.25721 -10.69196,4.85414 -13.70117,9.64258 -3.82402,3.84468 -9.39525,3.93585 -13.93946,5.88672 -4.37763,3.07836 -8.56048,8.51851 -14.16015,8.625 -4.3324,-4.76383 -4.27026,-12.18034 -6.238285,-18.10351 -2.620747,-12.0668 -5.216213,-24.34818 -5.083984,-36.69727 -5.749479,-14.26936 -3.561755,-30.22269 -1.847657,-45.10547 1.334159,-10.43411 5.268682,-20.25503 7.607422,-30.42773 2.667254,-6.80207 6.020194,-13.40723 7.150394,-20.63867 0.81082,-1.91648 2.75582,-3.20768 4.85351,-3.07422 z m 119.92188,13.00976 c 5.73078,-0.31796 8.08045,6.31355 13.62695,6.87696 4.5911,1.74206 15.95985,4.70352 4.79883,5.06445 -3.54698,0.94446 -9.94299,0.61086 -12.04688,2.11719 2.90415,2.68229 2.5465,6.96659 4.20899,10.24218 2.61893,-0.4064 11.41643,0.58013 7.03125,4.71289 -3.75503,1.74511 -8.12125,1.47018 -11.95703,1.64649 -3.54226,4.45665 -4.31813,11.08912 -5.30274,16.17578 3.01624,-2.85345 7.35247,0.53582 6.36524,4.24023 -1.09362,2.90594 0.0974,5.42109 0.30664,8.0254 -2.07633,3.42851 -9.36023,5.96659 -11,0.85351 -1.85377,-5.99928 -6.45951,-11.47691 -7.06055,-17.7168 -3.18948,-2.07939 -2.03389,-6.8223 -4.3457,-9.70117 -1.13627,-5.43978 -3.1006,-10.53015 -3.30274,-16.07422 1.12921,-8.78455 9.97979,-16.13911 18.67774,-16.46289 z m 56.33984,3.17774 c 3.19826,0.23234 7.33835,4.39789 3.5,6.85742 -2.87732,1.2989 1.73189,4.50578 -0.76172,6.77344 -7.41801,9.31823 -15.90575,17.82772 -22.73633,27.75 -0.57229,-8.26535 -1.89779,-18.05923 4.89063,-24.36719 5.28813,-4.72829 8.17424,-11.47215 12.96289,-16.50586 0.63925,-0.38605 1.39728,-0.59457 2.14453,-0.50781 z m -92.90625,4.30273 c 7.45119,0.921 8.14807,10.3518 9.19727,16.21094 1.11472,4.90127 -2.69105,9.08273 -7.43164,9.63672 -5.37849,1.63679 -10.026,8.52877 -16.15235,6.02929 -3.08874,-4.15813 5.30859,-5.18963 3.79883,-9.73242 -0.28022,-7.84887 0.75655,-18.85884 9.29102,-22.00781 0.42495,-0.0911 0.86215,-0.14663 1.29687,-0.13672 z m 31.99414,1.37695 c -3.35149,6.27791 -1.60403,14.42588 -2.00195,21.29688 0.0154,1.55147 0.0621,6.49234 1.36328,2.66016 0.53076,-7.80872 2.14395,-15.93418 1.5918,-23.71485 -0.29956,-0.13082 -0.62169,-0.24844 -0.95313,-0.24219 z m 289.49219,18.375 c -4.87397,-0.0366 -2.88665,6.54075 -7.24805,7.09766 -14.04782,2.12731 -28.7096,1.29144 -42.43554,5.02344 -2.40918,0.37221 -3.49132,-5.49395 -5.38282,-1.9336 -5.14395,10.56985 0.99788,22.39238 -2.45507,33.38086 0.0614,6.23172 8.69366,5.8983 11.82617,10.16797 2.96497,2.83965 9.16125,0.95735 11.40429,-2.02148 -1.53375,-6.32177 -6.80629,-12.04307 -13.18164,-13.40039 -3.54173,-4.08604 -1.01716,-10.396 -1.84765,-15.25586 16.30991,-2.12169 32.62808,-4.21138 49,-5.80469 0.75176,2.58524 -1.46525,7.86945 1.03711,8.98242 3.82283,0.9399 5.68878,-2.95863 4.41992,-6.11914 -1.72679,-6.28915 -0.56671,-13.47849 -3.33594,-19.32617 -0.54929,-0.33787 -1.1078,-0.85856 -1.80078,-0.79102 z m -215.98828,0.34375 c 4.99342,0.52542 1.66564,6.80778 -1.4043,7.9336 -3.05724,1.42093 -6.34434,2.15037 -8.76172,4.58594 -4.32148,1.60279 -9.08864,2.36964 -13.54101,3.1875 -4.32695,-2.59641 2.03874,-6.0629 4.01953,-7.92383 5.4842,-5.18616 12.43497,-6.8418 19.6875,-7.78321 z m -166.58399,2.47461 0.72461,0.68946 0.6211,0.58984 c 5.77539,5.66918 11.93853,10.91788 18.16211,16.08399 -2.46794,4.9404 -8.86886,11.56326 -14.79297,7.74804 -3.28383,-2.96378 -0.29667,-7.1805 1.66992,-9.77734 -0.51115,-4.3764 -6.69416,-5.54764 -8.93555,-1.58203 -2.88187,1.62296 -2.80242,7.50786 -7.22851,5.99218 -5.08937,-2.39198 -1.13457,-8.81303 1.41211,-11.73242 2.46823,-2.98625 5.56513,-5.35894 8.36718,-8.01172 z m 67.67383,5.7168 c 2.64618,-0.13838 3.3979,3.50697 6.22461,1.95703 5.02757,1.36567 1.59978,7.53442 -1.10156,9.63477 -6.07245,4.84063 -15.52717,7.16856 -22.67578,3.49414 -4.31694,-3.11184 -0.0444,-8.07684 3.42383,-9.625 4.321,-2.51235 9.03316,-5.15604 14.1289,-5.46094 z m 106.6582,10.30469 c 11.21527,0.72379 22.51285,2.20293 33.47461,4.59765 3.85163,1.16862 1.92517,5.91329 -1.33984,6.33594 -10.62368,2.99509 -20.97711,7.6534 -32.29883,6.71875 -8.79714,2.23628 -7.51855,-2.97782 -4.82617,-9.30859 1.26324,-2.82606 -0.75134,-8.41304 3.99609,-8.29688 0.33019,-0.0311 0.66255,-0.0414 0.99414,-0.0469 z m -98.41796,4.25586 c 5.04178,1.12244 1.8539,8.57687 -2.12696,9.19531 -11.70787,4.03843 -24.51785,2.81914 -36.67578,2.19727 -4.10126,0.94028 -7.21614,-5.14516 -2.70508,-6.69532 7.2435,-1.30503 14.44098,1.8749 21.78321,-0.0117 6.65245,-0.36604 13.29758,-2.5694 19.72461,-4.68554 z m 140.60156,9.32812 c 4.08977,0.0568 9.54971,-0.0469 11.47851,4.18164 2.7049,2.01873 9.65083,2.42048 8.07032,7.16016 -3.41606,3.6572 -9.87816,-3.1387 -12.47657,1.18359 -0.10154,4.96811 7.15758,3.01724 10.28516,4.67774 6.38503,2.87117 14.13045,7.08268 15.93945,14.37109 0.3961,3.49777 -4.29894,4.41437 -5.60351,1.24024 -2.96231,-5.65899 -10.15676,-10.58315 -16.04492,-9.79297 1.63612,2.34763 7.62633,3.31788 4.49609,7.20507 -1.81265,2.40857 -6.90167,-1.44015 -7.21289,1.93165 2.00703,3.99534 7.57272,3.0763 9.86914,7.07421 4.14252,3.09699 0.55191,8.61607 3.4082,12.07032 4.73771,-1.63182 1.66024,-10.33675 7.73047,-10.49024 4.78383,1.63379 2.14172,8.57826 2.77344,12.26758 -0.9467,5.20244 2.26355,12.81368 -4.69141,14.53516 -7.48634,5.10212 -17.54554,4.03178 -24.81054,9.25195 -3.61819,-0.94191 -6.38023,6.04535 -9.66797,2.08984 -1.79987,-2.41617 1.77926,-8.4873 -2.82227,-6.91992 -4.70044,0.42702 -3.31559,-5.53535 -4.08008,-7.91601 -3.35743,-1.08129 -1.3082,4.79255 -3.00195,6.65039 -0.38185,3.30027 -5.60966,3.97439 -5.42187,0.0586 -0.21758,-5.07248 1.99731,-10.41949 1.08203,-15.26562 -2.8658,-0.60102 -6.71511,-1.27153 -6.375,-4.73047 -2.16937,-1.94974 -2.09702,-6.33926 -3.91602,-7.65821 -3.94062,1.7805 -5.74996,-3.16293 -3.67969,-6.04882 1.13586,-6.27114 3.21807,-12.30997 5.1543,-18.29883 0.9803,-3.90757 -2.85549,-5.83761 -4.24219,-8.69141 0.51953,-3.90798 5.76934,-1.38483 8.40039,-3.14648 8.85884,-1.24607 16.26228,-7.54151 25.35938,-6.99024 z m -140.7793,5.44141 c 4.09755,-0.63592 9.21477,1.89263 8.2207,6.61328 2.04496,5.09627 5.38982,10.118 9.82422,13.11328 0.20823,4.36464 -4.75212,6.88876 -8.21679,8.24024 -3.00596,3.30172 -5.68066,8.89163 -2.50196,12.79296 0.0473,2.69726 -3.93372,4.39178 -1.43945,7.49219 3.43564,2.42623 -0.54475,5.12887 -2.6543,6.33203 -1.46985,2.03289 0.0317,3.40417 1.60352,4.38672 1.96313,3.13289 -3.83824,6.02043 -0.0996,8.50195 1.76889,2.80816 -1.23868,4.63397 -3.25977,5.48047 -1.14666,2.36023 -2.42485,8.60624 -5.64648,4.68555 -0.43426,-5.8363 1.31451,-12.31527 0.47656,-17.80859 -2.51277,4.33406 0.04,11.23094 -4.26758,14.5 -4.56612,0.0387 -2.35732,-6.39302 -2.65429,-9.25 -0.18931,-5.76486 2.14042,-11.40882 2.16992,-16.97657 -1.4579,-1.92691 -2.03029,4.02818 -2.98242,4.53125 -3.16322,9.49375 -3.44682,-0.59855 -3.46289,-5.35156 -0.2657,-4.39683 3.34359,-9.44212 1.19726,-13.30664 -1.1732,2.69545 -5.65012,3.95585 -5.99414,0.10742 -0.72048,-4.86146 0.59678,-11.23042 -1.67773,-15.10351 -2.27413,3.59427 -5.56825,-0.81063 -4.35157,-3.65235 0.30206,-5.04599 0.47004,-12.75945 7.10938,-13.36914 6.13983,-1.02432 12.37446,-1.87269 18.60742,-1.95898 z m 199.10156,24.94726 c 5.24684,0.0689 3.00499,6.6049 1.89649,9.5 -2.5589,11.64078 4.89999,23.84957 -0.82031,34.97071 -2.57051,6.1847 -5.61132,14.97147 -1.10743,20.89648 1.92706,-2.72136 -0.0352,-9.64921 4.77735,-8.73633 1.96561,1.88866 1.13879,5.24901 3.2207,7.24024 0.27627,7.31985 -6.44003,12.7435 -10.4082,18.21679 -12.67223,13.99877 -26.92281,26.87589 -42.84375,37.03711 -5.22546,2.08353 -6.21757,-5.22865 -6.25586,-8.76953 -0.10102,-8.01565 7.95644,-12.4011 12.74414,-17.7207 10.66444,-9.35111 23.01771,-19.35321 26.78516,-33.63867 1.08513,-5.3986 -5.71858,-3.36826 -8.54297,-5.39649 -4.02328,-3.22818 -12.78067,-1.3915 -13.89063,-7.77539 0.41559,-4.71797 6.66261,-4.35399 9.50195,-5.47265 2.96876,-2.67039 6.64632,-4.63488 8.55079,-8.52344 3.44949,-3.88632 4.72852,-8.84891 6.74804,-13.36328 1.85373,-5.36954 -0.92415,-12.49883 3.24024,-16.9082 1.88004,-1.14135 4.25885,-1.36337 6.40429,-1.55665 z m -168.0332,7.1875 c 9.4689,1.2841 14.04826,12.96106 12.52344,21.4668 -1.23836,3.75929 -5.68936,1.0915 -6.01172,-1.83398 -1.29193,-1.79079 -1.19041,-6.59287 -3.69922,-6.70117 -3.3063,4.73248 3.59216,9.42112 1.23047,13.96289 -3.34951,2.77858 -7.2494,-1.49225 -6.43555,-5.05665 0.0705,-2.8072 -2.05372,-4.28389 -4.4707,-3.29687 -3.7867,-0.24957 -3.47847,-4.94924 -0.95117,-6.60352 1.2448,-4.47846 1.45137,-11.88019 7.81445,-11.9375 z m 59.60547,5.33985 c 3.34285,3.19749 0.78893,9.06736 1.25781,13.26758 -0.88061,4.4795 0.47523,10.2164 -2.67383,13.84765 -4.08665,-0.80275 -11.66834,0.72243 -12.87695,-4.91015 0.30448,-4.30788 0.73151,-9.74653 4.06445,-12.79493 2.05773,-1.87454 4.61241,3.4885 5.53907,-0.0605 1.73324,-2.58247 -0.0172,-9.93978 4.68945,-9.34961 z m -79.32031,9.32226 c 0.61589,0.34999 1.68528,1.66368 3.4375,4.41797 2.54015,5.60642 6.85974,10.58855 13.25976,11.48242 5.47653,1.93382 11.15194,3.15914 16.87891,3.32813 4.83086,2.62796 6.17107,9.76673 3.29687,14.33398 -2.55268,7.82553 -4.04552,15.97926 -6.42187,23.82422 -6.86655,-1.71401 -2.97638,-13.55522 -11.12891,-13.79492 1.597,3.24367 -0.94476,6.11625 -1.31054,9.10156 1.14403,5.81136 4.33998,12.61091 1.43359,18.25196 -4.42021,2.61991 -5.89796,-4.63339 -7.55273,-7.25782 -0.7083,-1.83864 -3.09568,1.37502 -4.69922,-0.43945 -1.79325,-2.21969 -4.80699,2.18599 -6.84766,-1.02148 -1.27998,-2.76374 -4.06954,1.07812 -6.4375,0.19531 -3.78086,1.10441 -6.94693,-2.98251 -10.35352,-1.38281 -1.41852,3.04034 -7.34318,-0.19977 -6.07617,3.72656 1.03706,3.66835 -4.13491,5.70908 -5.52929,2.01562 -1.31163,-1.27172 0.0197,-6.32256 -2.57813,-5.3457 -1.40444,2.16798 0.40513,7.4877 -3.83398,6.33594 -2.06647,-2.18316 -1.21782,-8.02417 -5.4668,-7.72461 -3.33725,1.06559 -7.50296,0.0431 -9.62109,3.64062 -1.68298,2.60293 -5.81037,4.92131 -7.82618,1.56055 -4.35369,3.52635 0.14314,8.04101 0.26563,12.16406 -0.58015,5.13713 -8.81972,5.97895 -9.70508,0.46485 -1.30022,-5.62415 -8.60523,-7.76479 -9.47461,-13.3086 1.51229,-2.29152 4.96687,-2.92169 7.16797,-4.90234 20.70208,-8.64559 43.90214,-4.47527 65.4707,-7.47852 2.23775,-0.30669 7.32058,-1.26828 4.75196,-4.53515 -2.41139,-2.20278 0.0466,-6.67199 2.84961,-3.96485 2.46073,3.16145 2.33397,-0.0397 2.26757,-2.57812 0.26343,-6.5229 8.46617,-7.41458 13.53125,-7.48633 2.64182,-0.088 4.38667,4.05709 6.53907,0.66406 2.3441,-2.09439 4.03466,-6.66078 -0.95899,-5.74414 -5.08365,-0.0281 -10.41815,-0.93684 -13.86328,-5.07031 -3.73491,-3.43828 -11.88568,1.22143 -13.76953,-4.56836 0.0293,-3.33738 4.42443,-5.14441 2.78125,-8.87695 -0.0937,-3.4506 -2.32423,-11.07731 -0.47656,-10.02735 z m 85.11328,21.01954 c 2.95465,0.19774 5.62544,1.09065 7.41016,4.15039 7.83046,7.18943 17.02112,13.29098 27.20703,16.41015 5.06036,-0.44294 6.1798,5.86527 3.6582,9.20117 -5.46681,10.81639 -16.55579,16.5641 -25.85352,23.47852 -5.2857,3.65473 -7.42016,9.73709 -11.02148,14.66016 -1.3069,2.1707 -6.41377,1.1942 -4.44141,4.8125 1.97936,4.30279 5.92432,7.28604 8.76172,10.98828 -6.75804,0.0875 -14.00739,3.46682 -20.64062,1.36718 -2.70782,-2.48091 0.14022,-6.35428 0.0918,-9.43164 3.32509,-6.94781 9.46225,-12.24979 11.40821,-20 5.74322,-11.38116 17.28088,-18.271 25.20117,-27.8457 0.34908,-4.64276 -5.93781,-6.64082 -8.84961,-9.35937 -4.30988,-2.86734 -8.26072,-6.46846 -10.91602,-10.78516 -6.33484,-0.52293 -12.70963,5.56684 -19.09375,1.84766 -3.1783,-0.90105 -9.23044,-4.93622 -4.69531,-8.09375 3.94034,-1.68276 8.47545,-1.22603 12.65625,-1.375 2.92305,0.27499 6.16253,-0.22314 9.11719,-0.0254 z m 54.63867,2.60742 c 4.0047,-0.26607 7.35577,2.04578 9.18555,5.35156 5.64147,4.87918 13.27181,5.35758 20.01758,7.4707 4.43473,3.35769 -0.59727,9.07159 -2.97461,12.11133 -4.4318,1.94693 -3.1837,-4.45615 -4.25782,-6.63086 -1.30312,-2.6808 -7.36779,-1.10371 -4.19921,1.68164 0.60413,4.74505 -2.06626,10.7058 -6.65626,12.51172 -3.30887,-0.38255 -4.55472,5.53598 -8.43359,3.90625 -3.10998,2.02567 -1.65403,7.84699 -6.39844,8.1875 -3.37538,0.83935 -1.89736,5.92091 -3.5625,8.38477 -2.72084,5.482 -3.39016,12.47537 -0.14648,17.79297 1.66106,4.91654 -3.99533,7.2852 -8.00977,6.65624 -3.39129,-0.22241 -11.20825,1.58952 -10.92187,-4.01757 2.82643,-6.45998 5.81102,-12.91333 7.67969,-19.70899 4.20917,-8.53524 10.04573,-16.20474 16.95703,-22.66601 0.8865,-2.33404 1.19386,-5.4519 4.1914,-5.88477 3.11781,-3.05097 -3.78998,-4.66675 -0.60547,-7.55859 2.01725,-1.45511 8.10448,-1.07012 4.93946,-4.83203 -2.31822,-1.97902 -6.85766,0.15532 -7.73047,-3.83985 0.24116,-3.54553 -3.46221,-2.76952 -5.5,-4.17773 -2.64393,-3.74005 4.03633,-4.81813 6.42578,-4.73828 z m -207.37695,3.51172 c 10.35461,0.41077 20.44462,3.36927 30.66601,4.74218 6.28359,2.74711 10.78976,8.57128 17.63282,10.40625 2.48897,1.40848 9.64169,1.46093 7.16796,5.86524 -7.43735,2.13949 -15.69972,0.25241 -23.39257,0.99023 -7.71989,-0.1512 -15.47802,-0.1569 -22.71485,2.7793 -7.4455,1.76783 -15.43618,3.34677 -21.86328,7.52148 -2.38093,3.65622 -5.34634,10.9636 -10.96094,8.56641 -1.99525,-3.13747 -4.01153,-6.42015 -7.14257,-8.86523 -2.14636,-2.92359 -8.06683,-5.87861 -6.20118,-10.07032 3.23329,-2.63776 7.28148,3.63244 10.42578,-0.46094 7.54914,-7.29867 11.9923,-20.04134 23.86915,-21.31445 0.83422,-0.0983 1.67377,-0.15074 2.51367,-0.16015 z m -35.29883,1.00976 c 4.12338,0.0359 11.35603,3.20731 9.27148,8.32422 -1.08324,2.4365 -1.02544,7.53613 -5.1875,6.25 -4.20926,-0.0456 -11.79333,-0.88207 -10.89843,-6.87109 0.79899,-3.21304 3.05398,-7.5984 6.81445,-7.70313 z m 150.75977,3.11914 c 5.76497,0.72288 5.79982,8.32312 3.74804,12.41602 -1.18964,8.73422 -2.76245,17.50068 -5.74023,25.69531 -1.90632,5.39834 -1.80972,11.67029 -4.01563,16.79883 -5.63099,2.55351 -12.8469,-4.34204 -10.02344,-10.25781 3.65351,-6.50697 2.88886,-14.36047 6.67969,-20.88086 1.85148,-3.75417 0.73218,-8.55696 3.62891,-11.76172 0.68527,-3.99602 0.0349,-11.5592 5.72266,-12.00977 z m 16.8164,3.13281 c 6.88059,1.44438 13.79478,2.77091 20.76953,3.70704 5.38155,2.05508 12.4549,4.41887 14.53321,10.30664 -0.43685,3.76275 -5.58741,4.21494 -7.44336,7.25781 -3.8065,3.54397 -7.86235,7.13838 -9.93946,11.85937 -6.31864,7.93122 -11.36113,17.12308 -16.06445,26.12891 -2.60971,5.87534 -2.4552,16.99816 6.10547,16.94727 5.93064,0.52095 12.89575,0.65617 16.94726,-4.39454 3.88918,-1.3613 3.94797,-7.37131 0.8711,-9.625 -2.71558,-7.40633 3.48904,-14.82217 8.62109,-19.57617 3.14743,-2.86542 7.6748,-3.68597 9.9375,-7.28711 6.09377,-1.42442 8.76667,-8.57506 14.70508,-10.56054 1.72191,-4.72216 5.64523,-8.58424 5.66016,-13.87891 1.74847,-3.27722 7.99,-3.53876 10.08203,-0.6582 -0.40702,4.28853 -5.25605,6.91168 -6.75782,10.97851 -2.28122,4.06759 -5.15751,8.12822 -8.5996,10.97071 -4.10788,6.54274 -9.59193,12.73804 -10.51172,20.75586 -1.78055,2.13778 -4.45236,3.34175 -4.62891,6.7539 -1.11221,3.40438 -1.2879,7.02495 -0.79687,10.5586 8.2794,0.41627 16.44143,-2.1774 24.71289,-1.67383 -12.8309,10.37343 -29.91531,12.63854 -45.77149,14.95703 -8.40025,0.43274 -17.02443,4.45234 -25.39062,2.43554 -3.91088,-2.24903 -8.56852,3.55433 -12.62305,0.40235 -14.43459,-3.44746 -29.92596,-0.59481 -44.5,-3.72852 -12.35246,-4.59878 -25.34099,-7.72187 -37.50195,-13.02148 -8.79284,-2.98915 -16.7756,-7.65097 -24.57032,-12.33985 -8.52179,-2.14402 -1.23052,-4.73848 2.98047,-7.2871 3.85751,-1.95467 4.28418,-6.55306 5.02539,-10.3086 12.41825,0.65758 25.17995,-1.2543 37.4336,1.13672 4.25577,1.92271 0.29808,6.43613 -2.51172,7.50391 -4.82458,2.37809 1.76604,2.92634 3.71484,3.12695 9.08642,1.34224 19.36067,-1.10762 27.61328,3.73242 3.41333,2.04617 1.16597,6.57372 3.13868,9.0332 6.27627,3.36938 13.02344,-6.05492 18.77734,-1.26757 2.25147,2.33614 0.87248,6.82289 2.94336,8.70507 8.8547,-9.26548 7.27409,-23.18792 11.00586,-34.71874 2.62087,-11.57752 7.71831,-22.65617 8.2207,-34.61329 0.52122,-1.60019 2.20258,-2.42948 3.8125,-2.31836 z m -26.76367,111.50782 c -5.61896,1.1583 -5.35045,8.55121 -2.1582,12.11328 2.3585,7.12383 13.40988,5.33127 14.33984,-1.73828 1.44787,-6.83504 -6.77201,-10.10267 -12.18164,-10.375 z m -0.006,39.42773 c -7.11848,0.62254 -6.37724,10.04335 -3.79883,14.48047 5.75246,3.18983 15.46221,-3.27261 11.04492,-9.91211 -1.31235,-2.69785 -4.16441,-4.7764 -7.24609,-4.56836 z" />
</svg>
