<?xml version="1.0" encoding="UTF-8" standalone="no"?>
<!-- Created with Inkscape (http://www.inkscape.org/) -->

<svg
   xmlns:dc="http://purl.org/dc/elements/1.1/"
   xmlns:cc="http://creativecommons.org/ns#"
   xmlns:rdf="http://www.w3.org/1999/02/22-rdf-syntax-ns#"
   xmlns:svg="http://www.w3.org/2000/svg"
   xmlns="http://www.w3.org/2000/svg"
   xmlns:sodipodi="http://sodipodi.sourceforge.net/DTD/sodipodi-0.dtd"
   xmlns:inkscape="http://www.inkscape.org/namespaces/inkscape"
   width="480"
   height="480"
   viewBox="0 0 480 480"
   id="svg2"
   version="1.1"
   inkscape:version="0.91 r13725"
   sodipodi:docname="seal01.svg"
   inkscape:export-filename="/home/thejoeejoee/projects/rytirskytabor.cz/seal.png"
   inkscape:export-xdpi="153"
   inkscape:export-ydpi="153">
  <defs
     id="defs4" />
  <sodipodi:namedview
     id="base"
     pagecolor="#ffffff"
     bordercolor="#666666"
     borderopacity="1.0"
     inkscape:pageopacity="0.0"
     inkscape:pageshadow="2"
     inkscape:zoom="1.4"
     inkscape:cx="191.69481"
     inkscape:cy="239.02411"
     inkscape:document-units="px"
     inkscape:current-layer="layer1"
     showgrid="false"
     units="px"
     width="480px"
     inkscape:window-width="1920"
     inkscape:window-height="1017"
     inkscape:window-x="0"
     inkscape:window-y="30"
     inkscape:window-maximized="1" />
  <metadata
     id="metadata7">
    <rdf:RDF>
      <cc:Work
         rdf:about="">
        <dc:format>image/svg+xml</dc:format>
        <dc:type
           rdf:resource="http://purl.org/dc/dcmitype/StillImage" />
        <dc:title></dc:title>
      </cc:Work>
    </rdf:RDF>
  </metadata>
  <g
     inkscape:label="Vrstva 1"
     inkscape:groupmode="layer"
     id="layer1"
     transform="translate(0,-572.3622)">
    <g
       transform="matrix(1.1338442,0,0,1.1338442,-95.445108,518.41098)"
       style="font-style:normal;font-weight:normal;font-size:40px;line-height:125%;font-family:sans-serif;text-align:center;letter-spacing:0px;word-spacing:0px;text-anchor:middle;fill:#000000;fill-opacity:1;fill-rule:nonzero;stroke:none;stroke-width:1px;stroke-linecap:butt;stroke-linejoin:miter;stroke-opacity:1"
       id="flowRoot8106">
      <path
         d="m 127.68016,298.26797 q 11.52,-5.04 23.94,-7.02 12.6,-1.98 24.3,-1.26 11.7,0.72 27.9,9.18 -11.88,15.12 -28.62,20.52 -7.56,-11.88 -22.32,-11.88 -14.58,0 -22.68,1.98 -8.1,1.8 -17.82,9.18 3.96,-7.02 7.92,-11.7 3.96,-4.86 7.38,-9 z m 186.3,27.72 q -18.54,18.54 -38.7,27.54 -9.18,-2.52 -18.9,-11.16 -9.54,-8.46 -16.38,-22.5 -6.66,-14.04 -13.14,-31.32 -6.3,-17.46 -16.2,-21.6 -9.72,-4.32 -21.42,2.88 -11.52,7.02 -22.32,13.86 -7.92,4.68 -3.24,-3.6 l 7.56,-6.12 q 7.56,-11.7 -0.18,-26.28 -7.74,-14.76 -9.54,-26.64 -1.8,-11.88 27.54,-45 -13.86,9.9 -22.68,20.34 -8.64,10.44 -10.98,21.42 -2.34,10.98 6.12,26.64 8.46,15.48 2.88,24.3 -5.58,8.64 -13.86,17.1 l -5.58,5.22 -3.6,-0.54 q 0.72,-3.24 5.94,-9.36 5.22,-6.12 0.9,-10.8 -4.14,-4.68 -10.08,-8.64 -5.94,-4.14 5.4,-11.52 8.82,-3.24 5.04,-10.26 -11.34,0.54 -19.62,-10.98 9.36,-18.36 27.36,-35.46 18,-17.28 32.4,-25.38 14.4,-8.1 22.86,-10.98 8.64,-2.88 17.64,-3.06 l 0.9,0 q 10.62,0 20.34,4.86 9.72,4.86 28.98,27.36 -9.72,8.64 -20.88,8.1 -11.34,-5.04 -13.14,-16.2 -1.8,-11.34 -13.68,-16.38 l -8.82,0.9 q -22.5,6.12 -35.46,24.84 -12.96,18.72 -5.22,34.56 8.1,-8.28 27.54,-29.16 15.3,16.2 22.5,17.1 7.38,0.9 13.86,2.52 6.66,1.62 7.74,4.5 l -38.88,31.68 q 9,0.36 15.12,4.5 6.3,3.96 9.18,10.26 2.88,6.12 16.38,35.1 13.5,28.8 25.38,32.94 11.88,4.32 16.92,-0.18 5.22,-4.32 12.24,-9.9 l 3.78,0 0,4.5 z m -90.36,-90.36 q -9.18,-5.76 -14.76,-16.38 -5.4,-10.8 -12.96,-1.98 l -9.9,10.08 q 10.44,20.16 -1.98,39.06 l 39.6,-30.78 z"
         style="font-style:normal;font-variant:normal;font-weight:500;font-stretch:normal;font-size:180px;font-family:Xenippa;-inkscape-font-specification:'Xenippa Medium';text-align:center;text-anchor:middle;fill:#000000;fill-opacity:1;fill-rule:nonzero;stroke:none;stroke-opacity:1"
         id="path8115"
         inkscape:connector-curvature="0" />
      <path
         d="m 407.31578,159.66797 c 3.12,1.56 4.38,3.78 3.78,6.66 -4.8,6.36 -2.76,14.16 6.12,23.4 9,9.12 10.8,17.88 5.4,26.28 -5.4,8.28 -19.98,15.66 -43.74,22.14 14.64,0.48 25.02,5.4 31.14,14.76 6.12,9.36 10.62,27.12 13.5,53.28 2.88,26.04 6.58144,29.16431 17.98144,30.00431 11.52,0.84 18.54,-0.12 21.06,-2.88 2.52,-2.76 4.14,-5.64 4.86,-8.64 0.84,-2.88 3,-4.8 6.48,-5.76 0.96,0.72 1.8,1.74 2.52,3.06 l -1.8,6.66 c -5.4,11.4 -10.56,18.42 -15.48,21.06 -4.92,2.76 -12.06,4.14 -21.42,4.14 -13.56,-0.12 -24.06,-4.26 -31.5,-12.42 -7.32,-8.04 -9.10144,-15.00431 -12.22144,-41.52431 -3.12,-26.52 -7.2,-42.18 -12.24,-46.98 -5.04,-4.92 -10.14,-7.56 -15.3,-7.92 -0.36,-3.12 0.24,-5.88 1.8,-8.28 1.68,-2.52 6.84,-5.82 15.48,-9.9 8.76,-4.08 13.86,-7.86 15.3,-11.34 1.44,-3.48 -0.78,-8.46 -6.66,-14.94 -5.76,-6.48 -7.26,-13.68 -4.5,-21.6 -10.92,10.68 -20.58,17.46 -28.98,20.34 l -0.72,-4.14 c 11.88,-11.16 21.36,-19.26 28.44,-24.3 7.08,-5.16 13.98,-8.88 20.7,-11.16 z m -71.1,29.34 c -6.48,-0.12 -12.9,-3 -19.26,-8.64 -6.36,-5.64 -11.34,-7.74 -14.94,-6.3 -3.6,1.32 -5.58,4.02 -5.94,8.1 -0.36,4.08 0.84,7.2 3.6,9.36 2.88,2.16 6.78,2.88 11.7,2.16 -2.4,9.96 -9.36,16.92 -20.88,20.88 -4.44,-3.96 -7.2,-7.8 -8.28,-11.52 -0.96,-3.72 -0.72,-8.28 0.72,-13.68 1.44,-5.52 4.38,-10.62 8.82,-15.3 4.44,-4.8 9.06,-8.28 13.86,-10.44 4.92,-2.16 9.84,-3.36 14.76,-3.6 4.08,0.36 10.5,2.7 19.26,7.02 8.76,4.32 19.74,5.88 32.94,4.68 l 9,-3.42 -1.26,3.24 c -8.4,6.12 -16.26,12.72 -23.58,19.8 -6.6,6.36 -7.8,13.44 -3.6,21.24 4.32,7.8 7.2,16.92 8.64,27.36 1.44,10.32 -1.02,19.92 -7.38,28.8 -6.36,8.88 -14.22,16.02 -23.58,21.42 17.16,0.96 31.32,4.2 42.48,9.72 -8.04,10.2 -17.88,17.04 -29.52,20.52 -5.16,-7.92 -12.78,-11.88 -22.86,-11.88 -10.08,0 -17.94,0.66 -23.58,1.98 -5.52,1.32 -11.64,4.44 -18.36,9.36 2.04,-4.68 6.84,-11.52 14.4,-20.52 8.88,-3.48 16.5,-8.46 22.86,-14.94 6.48,-6.6 6.72,-10.5 0.72,-11.7 -5.88,-1.32 -6.72,-5.04 -2.52,-11.16 4.32,-6.24 3.06,-11.52 -3.78,-15.84 -6.72,-4.44 -7.68,-9.12 -2.88,-14.04 4.92,-4.92 7.5,-9.6 7.74,-14.04 0.24,-4.44 1.98,-9.06 5.22,-13.86 3.24,-4.92 8.4,-9.84 15.48,-14.76 z m 6.48,1.08 c -3.24,1.8 -6.78,5.04 -10.62,9.72 -3.84,4.56 -6.3,10.62 -7.38,18.18 -0.96,7.56 1.44,16.56 7.2,27 5.88,10.32 7.02,18.78 3.42,25.38 -3.6,6.6 -10.38,13.74 -20.34,21.42 6.48,0.24 14.34,-4.68 23.58,-14.76 7.92,-8.52 8.58,-18 1.98,-28.44 -6.6,-10.56 -9.84,-20.7 -9.72,-30.42 0.12,-9.72 4.62,-17.64 13.5,-23.76 6.96,-3.84 6.42,-5.28 -1.62,-4.32 z"
         style="font-style:normal;font-variant:normal;font-weight:500;font-stretch:normal;font-size:180px;font-family:Xenippa;-inkscape-font-specification:'Xenippa Medium';text-align:center;text-anchor:middle;fill:#000000;fill-opacity:1;fill-rule:nonzero;stroke:none;stroke-opacity:1"
         id="path8117"
         inkscape:connector-curvature="0"
         sodipodi:nodetypes="cccccsccscccccccsccccscccccccscsccccccccsccccccscccsccccccccsccccccscccscc" />
    </g>
    <circle
       style="fill:none;fill-opacity:1;stroke:#000000;stroke-width:18.194;stroke-linecap:butt;stroke-miterlimit:4;stroke-dasharray:none;stroke-dashoffset:0;stroke-opacity:1"
       id="path8123"
       r="236.16217"
       cy="812.40314"
       cx="240.0332" />
    <path
       inkscape:connector-curvature="0"
       d="m 92.9395,658.00774 c 0,1.2808 0.741,2.43816 1.88368,2.94216 l 39.37942,17.3832 c 1.16791,0.51545 2.52305,0.24655 3.42138,-0.67874 l 15.96683,-16.44582 166.19429,-3.1e-4 17.84203,18.37729 c 1.21362,1.25003 3.18142,1.25003 4.39502,0 1.21362,-1.25002 1.21362,-3.27685 -1e-5,-4.52688 l -13.44701,-13.85041 5.27405,0 17.84203,18.37729 c 1.21362,1.25003 3.18139,1.25003 4.39502,0 1.21361,-1.25002 1.21361,-3.27685 -10e-6,-4.52688 l -13.44701,-13.85041 5.27406,-10e-6 17.84201,18.3773 c 1.21362,1.25 3.18144,1.25 4.39504,0 1.21361,-1.25004 1.21361,-3.27687 0,-4.52689 l -16.5546,-17.0512 16.5546,-17.05122 c 1.21361,-1.25003 1.21361,-3.27685 0,-4.52688 -1.2136,-1.25002 -3.18141,-1.25002 -4.39504,10e-6 l -17.842,18.37728 -5.27405,0 13.447,-13.85041 c 1.21362,-1.25003 1.21362,-3.27685 0,-4.52688 -1.21359,-1.25002 -3.18139,-1.25002 -4.39501,10e-6 l -17.84204,18.37729 -5.27405,0 13.44703,-13.85042 c 1.21363,-1.25003 1.21363,-3.27685 0,-4.52688 -1.21361,-1.25002 -3.18141,-1.25002 -4.39502,10e-6 l -17.84204,18.37729 -166.194,0 -15.96683,-16.44582 c -0.89862,-0.92558 -2.25376,-1.19449 -3.42136,-0.67872 L 94.8235,655.06528 c -1.14299,0.50429 -1.88401,1.66165 -1.884,2.94246 z m 41.77733,-13.58787 10.08393,10.38646 c 0,6.40221 0,0 0,6.40221 l -10.08393,10.38644 -30.7804,-13.58724 z"
       id="path12830"
       style="stroke:#000000;stroke-width:4.03521681;stroke-miterlimit:4;stroke-dasharray:none;stroke-opacity:1"
       sodipodi:nodetypes="sccsccsssccsssccssscsssccsssccsssccsccscccccc" />
    <g
       transform="matrix(0.28898673,0.28898673,-0.28898673,0.28898673,222.60366,809.8349)"
       id="g12832" />
    <g
       transform="matrix(0.28898673,0.28898673,-0.28898673,0.28898673,222.60366,809.8349)"
       id="g12834" />
    <g
       transform="matrix(0.28898673,0.28898673,-0.28898673,0.28898673,222.60366,809.8349)"
       id="g12836" />
    <g
       transform="matrix(0.28898673,0.28898673,-0.28898673,0.28898673,222.60366,809.8349)"
       id="g12838" />
    <g
       transform="matrix(0.28898673,0.28898673,-0.28898673,0.28898673,222.60366,809.8349)"
       id="g12840" />
    <g
       transform="matrix(0.28898673,0.28898673,-0.28898673,0.28898673,222.60366,809.8349)"
       id="g12842" />
    <g
       transform="matrix(0.28898673,0.28898673,-0.28898673,0.28898673,222.60366,809.8349)"
       id="g12844" />
    <g
       transform="matrix(0.28898673,0.28898673,-0.28898673,0.28898673,222.60366,809.8349)"
       id="g12846" />
    <g
       transform="matrix(0.28898673,0.28898673,-0.28898673,0.28898673,222.60366,809.8349)"
       id="g12848" />
    <g
       transform="matrix(0.28898673,0.28898673,-0.28898673,0.28898673,222.60366,809.8349)"
       id="g12850" />
    <g
       transform="matrix(0.28898673,0.28898673,-0.28898673,0.28898673,222.60366,809.8349)"
       id="g12852" />
    <g
       transform="matrix(0.28898673,0.28898673,-0.28898673,0.28898673,222.60366,809.8349)"
       id="g12854" />
    <g
       transform="matrix(0.28898673,0.28898673,-0.28898673,0.28898673,222.60366,809.8349)"
       id="g12856" />
    <g
       transform="matrix(0.28898673,0.28898673,-0.28898673,0.28898673,222.60366,809.8349)"
       id="g12858" />
    <g
       transform="matrix(0.28898673,0.28898673,-0.28898673,0.28898673,222.60366,809.8349)"
       id="g12860" />
    <path
       inkscape:connector-curvature="0"
       d="m 286.08673,953.08059 -74.54383,0.0261 0.0274,-5.08754 -0.25162,-0.93625 3.42916,-6.5204 c 1.88002,-3.57545 3.48405,-6.94073 3.62277,-7.4929 0.2211,-1.26233 -0.58092,-3.23342 -1.77021,-4.36387 -0.99565,-0.94641 -4.53607,-1.15793 -5.91899,-0.31593 -0.44219,0.26373 -5.19936,4.10151 -10.62124,8.51897 l -9.8178,8.01897 0.27904,5.43201 0,9.58326 -25.61237,0 -25.55749,0 -3.59532,-3.41747 c -4.26006,-4.04933 -5.58663,-4.83776 -8.43632,-4.96964 -4.01151,-0.18405 -4.23116,-0.0797 -14.24403,9.4379 -9.76432,9.2813 -10.04033,9.64804 -10.04033,13.01332 0,3.36528 0.27745,3.7334 10.04033,13.0133 7.96521,7.5712 9.01723,8.46679 10.48397,8.96542 2.04622,0.73616 5.53171,0.57966 7.24558,-0.36815 0.7471,-0.39421 3.34676,-2.60154 5.78171,-4.91601 l 4.42623,-4.20729 24.728,0 24.78293,0 0,9.63541 0,6.332 10.48397,7.0725 10.45506,7.1001 2.23985,-0.08 c 2.04622,-0.051 2.34969,-0.1841 3.31934,-1.3146 1.13436,-1.3941 1.5491,-3.0493 1.10547,-4.6276 -0.16619,-0.5782 -1.7153,-3.2595 -3.45805,-5.9682 l -3.12569,-4.9683 0,-1.5463 0,-4.79772 12.06054,0 c 6.58373,0 40.3275,0.15791 74.90076,0.3681 l 62.92547,0.39424 10.59379,-10.06977 10.59379,-10.01754 -11.00851,-10.46395 -10.98107,-10.43786 -74.54239,-0.0246 z m 8.48977,16.8525 c -72.52218,0 -73.76782,0.0274 -74.81839,1.02607 -1.38293,1.31453 -1.30057,3.18123 0.1662,4.57541 0.99563,0.94639 3.51293,0.97388 75.53801,0.97388 l 74.57129,0 -5.6979,5.41602 -5.69791,5.41601 -66.96444,-0.34336 c -36.84346,-0.21148 -69.89648,-0.39425 -73.43546,-0.44781 l -6.41899,-0.10435 0,-13.35668 0,-13.40893 72.85454,0 72.90946,0 5.393,5.12621 5.39297,5.12622 -73.79238,10e-4 z m -88.84433,-26.9517 -1.41038,2.70871 0.3339,27.79234 c -0.15223,22.35986 -0.30879,25.80266 -0.22113,28.28486 0.024,0.6808 0.42322,0.6015 1.24423,1.6438 0.55201,0.7361 0.83092,1.3146 0.55346,1.3146 -0.22109,0 -1.9913,-1.1045 -3.9277,-2.4726 -1.93493,-1.3145 -3.81787,-2.5768 -4.12133,-2.7609 -0.47109,-0.2362 -0.63583,1.8836 -0.63583,-26.29959 l -0.33535,-25.10972 3.29186,-2.7609 c 3.51295,-2.97106 6.47246,-5.25947 6.61119,-5.12762 0.0288,0.0274 -0.58091,1.28844 -1.38294,2.78702 z m -36.34189,36.94316 -21.1876,0 0.77455,-1.10437 c 1.07949,-1.60297 1.49421,-3.04936 1.43786,-5.04792 -0.0274,-2.28701 -0.91184,-4.17981 -2.6835,-5.86382 l -1.46528,-1.39283 22.12687,0 22.12688,0 0,6.67838 0,6.73056 z m -34.02124,2.36668 -8.60249,8.2813 -8.71232,-8.2813 -8.71376,-8.28272 8.71231,-8.28133 8.71232,-8.28134 8.6025,8.28134 8.54757,8.28133 z"
       id="path17592"
       sodipodi:nodetypes="ccccccscccccccscsssccsccccccccccccccscccccccccssscccccccccccccccccscsccccccccccccsccccccccccccccc"
       style="stroke:#000000;stroke-width:3.76494932;stroke-miterlimit:4;stroke-dasharray:none;stroke-opacity:1" />
  </g>
</svg>
